<svg width="327" height="240" viewBox="0 0 327 240" fill="none" xmlns="http://www.w3.org/2000/svg">
<rect width="327" height="240" transform="translate(0 0.000747681)" fill="#F6F7F8"/>
<circle cx="33" cy="32.9998" r="8.25" stroke="#6FADAA" stroke-width="1.5"/>
<circle cx="33" cy="32.9998" r="8.25" stroke="#6FADAA" stroke-width="1.5"/>
<rect x="24" y="32.9998" width="18" height="9" fill="#F6F7F8"/>
<rect x="24" y="23.9998" width="9" height="18" fill="#F6F7F8"/>
<circle cx="33" cy="32.9998" r="4" fill="#242424"/>
<circle cx="33" cy="90.9998" r="8.25" stroke="#6FADAA" stroke-width="1.5"/>
<rect x="24" y="81.9998" width="9" height="18" fill="#F6F7F8"/>
<circle cx="33" cy="90.9998" r="4" fill="#242424"/>
<circle cx="33" cy="149" r="8.25" stroke="#6FADAA" stroke-width="1.5"/>
<rect x="24" y="140" width="9" height="9" fill="#F6F7F8"/>
<circle cx="33" cy="149" r="4" fill="#242424"/>
<circle cx="33" cy="207" r="8.25" stroke="#6FADAA" stroke-width="1.5"/>
<path fill-rule="evenodd" clip-rule="evenodd" d="M32.1142 208.174L30.3315 206.688C30.0013 206.413 29.4956 206.441 29.2021 206.751C28.9085 207.06 28.9383 207.534 29.2685 207.809L31.6685 209.809C32.0062 210.091 32.5253 210.054 32.8146 209.729L36.8146 205.229C37.0974 204.911 37.0515 204.438 36.7121 204.173C36.3727 203.907 35.8683 203.95 35.5854 204.269L32.1142 208.174Z" fill="#6FADAA"/>
<rect width="28" height="1" transform="matrix(-4.37114e-08 1 1 4.37114e-08 33 47.9998)" fill="#C7C9CC"/>
<rect width="28" height="1" transform="matrix(-4.37114e-08 1 1 4.37114e-08 33 106)" fill="#C7C9CC"/>
<rect width="28" height="1" transform="matrix(-4.37114e-08 1 1 4.37114e-08 33 164)" fill="#C7C9CC"/>
<path d="M149.587 37.9998H148.482V28.2498H156.178V37.9998H155.073V29.2638H149.587V37.9998ZM157.69 38.0128L157.82 37.1418C157.872 37.1504 157.916 37.1591 157.95 37.1678C157.985 37.1678 158.02 37.1678 158.054 37.1678C158.418 37.1678 158.678 36.9078 158.834 36.3878C158.999 35.8678 159.103 35.0271 159.146 33.8658L159.237 31.6038H163.722V37.9998H162.695V32.4878H160.199L160.147 33.9698C160.087 35.4258 159.909 36.4788 159.614 37.1288C159.32 37.7788 158.843 38.1038 158.184 38.1038C158.089 38.1038 158.007 38.0951 157.937 38.0778C157.868 38.0691 157.786 38.0474 157.69 38.0128ZM170.753 37.9998H169.817L169.791 36.7258C169.54 37.1678 169.202 37.5101 168.777 37.7528C168.361 37.9868 167.893 38.1038 167.373 38.1038C166.758 38.1038 166.268 37.9434 165.904 37.6228C165.54 37.3021 165.358 36.8731 165.358 36.3358C165.358 35.8158 165.549 35.3911 165.93 35.0618C166.311 34.7324 166.974 34.4464 167.919 34.2038L169.765 33.7618C169.713 33.3111 169.544 32.9688 169.258 32.7348C168.981 32.4921 168.599 32.3708 168.114 32.3708C167.629 32.3708 167.234 32.4791 166.931 32.6958C166.628 32.9124 166.42 33.2331 166.307 33.6578L165.345 33.4758C165.492 32.8604 165.813 32.3794 166.307 32.0328C166.801 31.6774 167.408 31.4998 168.127 31.4998C168.942 31.4998 169.583 31.7208 170.051 32.1628C170.519 32.6048 170.753 33.2158 170.753 33.9958V37.9998ZM166.424 36.2448C166.424 36.5481 166.524 36.7908 166.723 36.9728C166.922 37.1461 167.191 37.2328 167.529 37.2328C168.17 37.2328 168.703 37.0031 169.128 36.5438C169.561 36.0758 169.778 35.4734 169.778 34.7368V34.5938L167.932 35.0488C167.386 35.1874 166.996 35.3521 166.762 35.5428C166.537 35.7248 166.424 35.9588 166.424 36.2448ZM175.202 37.9998H174.175V32.4878H171.952V31.6038H177.425V32.4878H175.202V37.9998ZM181.342 38.1038C180.363 38.1038 179.57 37.7961 178.963 37.1808C178.365 36.5568 178.066 35.7508 178.066 34.7628C178.066 33.8181 178.369 33.0381 178.976 32.4228C179.583 31.8074 180.35 31.4998 181.277 31.4998C182.178 31.4998 182.915 31.7814 183.487 32.3448C184.059 32.9081 184.345 33.6318 184.345 34.5158C184.345 34.5851 184.336 34.6848 184.319 34.8148C184.31 34.9361 184.306 35.0098 184.306 35.0358H179.132C179.193 35.7031 179.418 36.2318 179.808 36.6218C180.207 37.0031 180.718 37.1938 181.342 37.1938C181.845 37.1938 182.261 37.0811 182.59 36.8558C182.919 36.6304 183.153 36.3011 183.292 35.8678L184.28 36.0498C184.124 36.6824 183.782 37.1851 183.253 37.5578C182.733 37.9218 182.096 38.1038 181.342 38.1038ZM181.277 32.3838C180.74 32.3838 180.28 32.5484 179.899 32.8778C179.518 33.1984 179.275 33.6318 179.171 34.1778H183.253C183.218 33.6491 183.015 33.2201 182.642 32.8908C182.278 32.5528 181.823 32.3838 181.277 32.3838ZM185.079 31.6038H186.236L188.043 34.1908H188.888V31.6038H189.863V34.1908H190.695L192.528 31.6038H193.672L191.475 34.5938L193.841 37.9998H192.671L190.656 35.1008H189.863V37.9998H188.888V35.1008H188.082L186.054 37.9998H184.923L187.263 34.6588L185.079 31.6038ZM200.574 38.1038C199.647 38.1038 198.875 37.7874 198.26 37.1548C197.653 36.5221 197.35 35.7248 197.35 34.7628C197.35 33.8268 197.653 33.0511 198.26 32.4358C198.875 31.8118 199.647 31.4998 200.574 31.4998C201.337 31.4998 201.978 31.7034 202.498 32.1108C203.027 32.5094 203.369 33.0554 203.525 33.7488L202.485 33.9308C202.372 33.4628 202.147 33.0988 201.809 32.8388C201.471 32.5701 201.059 32.4358 200.574 32.4358C199.941 32.4358 199.421 32.6524 199.014 33.0858C198.615 33.5191 198.416 34.0781 198.416 34.7628C198.416 35.4734 198.615 36.0541 199.014 36.5048C199.421 36.9468 199.941 37.1678 200.574 37.1678C201.085 37.1678 201.514 37.0291 201.861 36.7518C202.208 36.4744 202.433 36.0888 202.537 35.5948L203.564 35.7638C203.443 36.4571 203.105 37.0204 202.55 37.4538C202.004 37.8871 201.345 38.1038 200.574 38.1038ZM207.786 38.1038C206.807 38.1038 206.014 37.7961 205.407 37.1808C204.809 36.5568 204.51 35.7508 204.51 34.7628C204.51 33.8181 204.814 33.0381 205.42 32.4228C206.027 31.8074 206.794 31.4998 207.721 31.4998C208.623 31.4998 209.359 31.7814 209.931 32.3448C210.503 32.9081 210.789 33.6318 210.789 34.5158C210.789 34.5851 210.781 34.6848 210.763 34.8148C210.755 34.9361 210.75 35.0098 210.75 35.0358H205.576C205.637 35.7031 205.862 36.2318 206.252 36.6218C206.651 37.0031 207.162 37.1938 207.786 37.1938C208.289 37.1938 208.705 37.0811 209.034 36.8558C209.364 36.6304 209.598 36.3011 209.736 35.8678L210.724 36.0498C210.568 36.6824 210.226 37.1851 209.697 37.5578C209.177 37.9218 208.54 38.1038 207.786 38.1038ZM207.721 32.3838C207.184 32.3838 206.725 32.5484 206.343 32.8778C205.962 33.1984 205.719 33.6318 205.615 34.1778H209.697C209.663 33.6491 209.459 33.2201 209.086 32.8908C208.722 32.5528 208.267 32.3838 207.721 32.3838ZM213.445 37.9998H212.431V31.6038H216.682V32.4878H213.445V37.9998ZM217.497 34.7888C217.497 33.8354 217.809 33.0511 218.433 32.4358C219.057 31.8118 219.846 31.4998 220.799 31.4998C221.753 31.4998 222.541 31.8118 223.165 32.4358C223.789 33.0511 224.101 33.8354 224.101 34.7888C224.101 35.7508 223.789 36.5438 223.165 37.1678C222.541 37.7918 221.753 38.1038 220.799 38.1038C219.846 38.1038 219.057 37.7918 218.433 37.1678C217.809 36.5438 217.497 35.7508 217.497 34.7888ZM223.035 34.7888C223.035 34.0954 222.827 33.5321 222.411 33.0988C221.995 32.6568 221.458 32.4358 220.799 32.4358C220.141 32.4358 219.603 32.6568 219.187 33.0988C218.771 33.5321 218.563 34.0954 218.563 34.7888C218.563 35.4908 218.771 36.0628 219.187 36.5048C219.603 36.9468 220.141 37.1678 220.799 37.1678C221.458 37.1678 221.995 36.9468 222.411 36.5048C222.827 36.0628 223.035 35.4908 223.035 34.7888ZM225.749 40.0148H224.774V37.1158H225.372C225.624 36.8731 225.801 36.5134 225.905 36.0368C226.009 35.5601 226.083 34.8191 226.126 33.8138L226.204 31.6038H230.767V37.1158H231.638V40.0148H230.65V37.9998H225.749V40.0148ZM227.166 32.4878L227.114 33.7748C227.08 34.6414 227.006 35.3434 226.893 35.8808C226.789 36.4094 226.638 36.8211 226.438 37.1158H229.753V32.4878H227.166ZM234.037 37.9998H233.023V31.6038H234.037V34.1778H237.404V31.6038H238.431V37.9998H237.404V35.0748H234.037V37.9998ZM240.226 33.5668C240.226 32.9861 240.412 32.5138 240.785 32.1498C241.158 31.7858 241.639 31.6038 242.228 31.6038H245.335V37.9998H244.334V35.4908H242.904L241.032 37.9998H239.888L241.812 35.4258C241.327 35.3478 240.941 35.1441 240.655 34.8148C240.369 34.4768 240.226 34.0608 240.226 33.5668ZM241.292 33.5408C241.292 33.8961 241.396 34.1691 241.604 34.3598C241.812 34.5418 242.111 34.6328 242.501 34.6328H244.334V32.4488H242.514C242.124 32.4488 241.821 32.5441 241.604 32.7348C241.396 32.9168 241.292 33.1854 241.292 33.5408Z" fill="black" fill-opacity="0.6"/>
<path d="M151.251 92.2168C150.133 92.2168 149.279 91.9611 148.69 91.4498C148.101 90.9298 147.806 90.1758 147.806 89.1878V86.2498H148.911V88.9408C148.911 89.7121 149.11 90.2798 149.509 90.6438C149.916 91.0078 150.549 91.1898 151.407 91.1898C151.823 91.1898 152.222 91.1508 152.603 91.0728C152.984 90.9948 153.383 90.8734 153.799 90.7088V86.2498H154.904V95.9998H153.799V91.7228C153.314 91.8961 152.863 92.0218 152.447 92.0998C152.04 92.1778 151.641 92.2168 151.251 92.2168ZM160.217 96.1038C159.238 96.1038 158.445 95.7961 157.838 95.1808C157.24 94.5568 156.941 93.7508 156.941 92.7628C156.941 91.8181 157.244 91.0381 157.851 90.4228C158.458 89.8074 159.225 89.4998 160.152 89.4998C161.053 89.4998 161.79 89.7814 162.362 90.3448C162.934 90.9081 163.22 91.6318 163.22 92.5158C163.22 92.5851 163.211 92.6848 163.194 92.8148C163.185 92.9361 163.181 93.0098 163.181 93.0358H158.007C158.068 93.7031 158.293 94.2318 158.683 94.6218C159.082 95.0031 159.593 95.1938 160.217 95.1938C160.72 95.1938 161.136 95.0811 161.465 94.8558C161.794 94.6304 162.028 94.3011 162.167 93.8678L163.155 94.0498C162.999 94.6824 162.657 95.1851 162.128 95.5578C161.608 95.9218 160.971 96.1038 160.217 96.1038ZM160.152 90.3838C159.615 90.3838 159.155 90.5484 158.774 90.8778C158.393 91.1984 158.15 91.6318 158.046 92.1778H162.128C162.093 91.6491 161.89 91.2201 161.517 90.8908C161.153 90.5528 160.698 90.3838 160.152 90.3838ZM164.862 98.8598V89.6038H165.837L165.863 90.7088C166.14 90.3188 166.478 90.0198 166.877 89.8118C167.284 89.6038 167.726 89.4998 168.203 89.4998C169.096 89.4998 169.837 89.8118 170.426 90.4358C171.015 91.0598 171.31 91.8441 171.31 92.7888C171.31 93.7421 171.015 94.5351 170.426 95.1678C169.837 95.7918 169.096 96.1038 168.203 96.1038C167.726 96.1038 167.289 96.0041 166.89 95.8048C166.491 95.5968 166.153 95.3021 165.876 94.9208V98.8598H164.862ZM170.244 92.7888C170.244 92.0954 170.04 91.5321 169.633 91.0988C169.226 90.6568 168.701 90.4358 168.06 90.4358C167.419 90.4358 166.894 90.6568 166.487 91.0988C166.08 91.5321 165.876 92.0954 165.876 92.7888C165.876 93.4908 166.08 94.0628 166.487 94.5048C166.894 94.9468 167.419 95.1678 168.06 95.1678C168.701 95.1678 169.226 94.9468 169.633 94.5048C170.04 94.0628 170.244 93.4908 170.244 92.7888ZM175.705 96.1038C174.726 96.1038 173.933 95.7961 173.326 95.1808C172.728 94.5568 172.429 93.7508 172.429 92.7628C172.429 91.8181 172.732 91.0381 173.339 90.4228C173.946 89.8074 174.713 89.4998 175.64 89.4998C176.541 89.4998 177.278 89.7814 177.85 90.3448C178.422 90.9081 178.708 91.6318 178.708 92.5158C178.708 92.5851 178.699 92.6848 178.682 92.8148C178.673 92.9361 178.669 93.0098 178.669 93.0358H173.495C173.556 93.7031 173.781 94.2318 174.171 94.6218C174.57 95.0031 175.081 95.1938 175.705 95.1938C176.208 95.1938 176.624 95.0811 176.953 94.8558C177.282 94.6304 177.516 94.3011 177.655 93.8678L178.643 94.0498C178.487 94.6824 178.145 95.1851 177.616 95.5578C177.096 95.9218 176.459 96.1038 175.705 96.1038ZM175.64 90.3838C175.103 90.3838 174.643 90.5484 174.262 90.8778C173.881 91.1984 173.638 91.6318 173.534 92.1778H177.616C177.581 91.6491 177.378 91.2201 177.005 90.8908C176.641 90.5528 176.186 90.3838 175.64 90.3838ZM185.017 94.1668C185.017 94.7648 184.775 95.2371 184.289 95.5838C183.804 95.9304 183.158 96.1038 182.352 96.1038C181.642 96.1038 181.052 95.9608 180.584 95.6748C180.116 95.3801 179.8 94.9598 179.635 94.4138L180.636 94.1148C180.74 94.4788 180.94 94.7561 181.234 94.9468C181.529 95.1288 181.906 95.2198 182.365 95.2198C182.868 95.2198 183.258 95.1244 183.535 94.9338C183.813 94.7431 183.951 94.4701 183.951 94.1148C183.951 93.8114 183.843 93.5731 183.626 93.3998C183.41 93.2264 183.119 93.1398 182.755 93.1398H181.611V92.2688H182.729C183.067 92.2688 183.34 92.1864 183.548 92.0218C183.756 91.8484 183.86 91.6188 183.86 91.3328C183.86 91.0208 183.735 90.7824 183.483 90.6178C183.241 90.4531 182.89 90.3708 182.43 90.3708C181.971 90.3708 181.603 90.4618 181.325 90.6438C181.048 90.8258 180.862 91.0944 180.766 91.4498L179.804 91.2288C179.952 90.6828 180.255 90.2581 180.714 89.9548C181.182 89.6514 181.767 89.4998 182.469 89.4998C183.206 89.4998 183.795 89.6601 184.237 89.9808C184.679 90.3014 184.9 90.7261 184.9 91.2548C184.9 91.5841 184.805 91.8701 184.614 92.1128C184.424 92.3554 184.155 92.5374 183.808 92.6588C184.19 92.7541 184.484 92.9361 184.692 93.2048C184.909 93.4648 185.017 93.7854 185.017 94.1668ZM190.673 94.9728H195.379V95.9998H189.178V95.0898L192.116 92.0478C192.853 91.3024 193.342 90.7174 193.585 90.2928C193.836 89.8594 193.962 89.4261 193.962 88.9928C193.962 88.4468 193.784 88.0048 193.429 87.6668C193.082 87.3288 192.627 87.1598 192.064 87.1598C191.501 87.1598 191.033 87.3244 190.66 87.6538C190.287 87.9744 190.058 88.4294 189.971 89.0188L188.905 88.7978C189.052 87.9744 189.412 87.3288 189.984 86.8608C190.565 86.3841 191.275 86.1458 192.116 86.1458C193 86.1458 193.715 86.4058 194.261 86.9258C194.807 87.4458 195.08 88.1261 195.08 88.9668C195.08 89.4954 194.946 90.0068 194.677 90.5008C194.417 90.9861 193.854 91.6751 192.987 92.5678L190.673 94.9728ZM200.788 95.9998H199.774V89.6038H200.788V92.1778H204.155V89.6038H205.182V95.9998H204.155V93.0748H200.788V95.9998ZM210.084 96.1038C209.105 96.1038 208.312 95.7961 207.705 95.1808C207.107 94.5568 206.808 93.7508 206.808 92.7628C206.808 91.8181 207.111 91.0381 207.718 90.4228C208.325 89.8074 209.092 89.4998 210.019 89.4998C210.92 89.4998 211.657 89.7814 212.229 90.3448C212.801 90.9081 213.087 91.6318 213.087 92.5158C213.087 92.5851 213.078 92.6848 213.061 92.8148C213.052 92.9361 213.048 93.0098 213.048 93.0358H207.874C207.935 93.7031 208.16 94.2318 208.55 94.6218C208.949 95.0031 209.46 95.1938 210.084 95.1938C210.587 95.1938 211.003 95.0811 211.332 94.8558C211.661 94.6304 211.895 94.3011 212.034 93.8678L213.022 94.0498C212.866 94.6824 212.524 95.1851 211.995 95.5578C211.475 95.9218 210.838 96.1038 210.084 96.1038ZM210.019 90.3838C209.482 90.3838 209.022 90.5484 208.641 90.8778C208.26 91.1984 208.017 91.6318 207.913 92.1778H211.995C211.96 91.6491 211.757 91.2201 211.384 90.8908C211.02 90.5528 210.565 90.3838 210.019 90.3838ZM214.755 98.0148H213.78V95.1158H214.378C214.629 94.8731 214.807 94.5134 214.911 94.0368C215.015 93.5601 215.089 92.8191 215.132 91.8138L215.21 89.6038H219.773V95.1158H220.644V98.0148H219.656V95.9998H214.755V98.0148ZM216.172 90.4878L216.12 91.7748C216.085 92.6414 216.012 93.3434 215.899 93.8808C215.795 94.4094 215.643 94.8211 215.444 95.1158H218.759V90.4878H216.172ZM224.798 96.1038C223.819 96.1038 223.026 95.7961 222.419 95.1808C221.821 94.5568 221.522 93.7508 221.522 92.7628C221.522 91.8181 221.825 91.0381 222.432 90.4228C223.039 89.8074 223.806 89.4998 224.733 89.4998C225.634 89.4998 226.371 89.7814 226.943 90.3448C227.515 90.9081 227.801 91.6318 227.801 92.5158C227.801 92.5851 227.792 92.6848 227.775 92.8148C227.766 92.9361 227.762 93.0098 227.762 93.0358H222.588C222.649 93.7031 222.874 94.2318 223.264 94.6218C223.663 95.0031 224.174 95.1938 224.798 95.1938C225.301 95.1938 225.717 95.0811 226.046 94.8558C226.375 94.6304 226.609 94.3011 226.748 93.8678L227.736 94.0498C227.58 94.6824 227.238 95.1851 226.709 95.5578C226.189 95.9218 225.552 96.1038 224.798 96.1038ZM224.733 90.3838C224.196 90.3838 223.736 90.5484 223.355 90.8778C222.974 91.1984 222.731 91.6318 222.627 92.1778H226.709C226.674 91.6491 226.471 91.2201 226.098 90.8908C225.734 90.5528 225.279 90.3838 224.733 90.3838ZM228.416 96.0128L228.546 95.1418C228.598 95.1504 228.641 95.1591 228.676 95.1678C228.711 95.1678 228.745 95.1678 228.78 95.1678C229.144 95.1678 229.404 94.9078 229.56 94.3878C229.725 93.8678 229.829 93.0271 229.872 91.8658L229.963 89.6038H234.448V95.9998H233.421V90.4878H230.925L230.873 91.9698C230.812 93.4258 230.635 94.4788 230.34 95.1288C230.045 95.7788 229.569 96.1038 228.91 96.1038C228.815 96.1038 228.732 96.0951 228.663 96.0778C228.594 96.0691 228.511 96.0474 228.416 96.0128ZM237.553 95.9998H236.578V89.6038H237.553V94.5048L240.959 89.6038H241.934V95.9998H240.959V91.0988L237.553 95.9998Z" fill="black" fill-opacity="0.6"/>
<path d="M150.251 150.217C149.133 150.217 148.279 149.961 147.69 149.45C147.101 148.93 146.806 148.176 146.806 147.188V144.25H147.911V146.941C147.911 147.712 148.11 148.28 148.509 148.644C148.916 149.008 149.549 149.19 150.407 149.19C150.823 149.19 151.222 149.151 151.603 149.073C151.984 148.995 152.383 148.873 152.799 148.709V144.25H153.904V154H152.799V149.723C152.314 149.896 151.863 150.022 151.447 150.1C151.04 150.178 150.641 150.217 150.251 150.217ZM159.217 154.104C158.238 154.104 157.445 153.796 156.838 153.181C156.24 152.557 155.941 151.751 155.941 150.763C155.941 149.818 156.244 149.038 156.851 148.423C157.458 147.807 158.225 147.5 159.152 147.5C160.053 147.5 160.79 147.781 161.362 148.345C161.934 148.908 162.22 149.632 162.22 150.516C162.22 150.585 162.211 150.685 162.194 150.815C162.185 150.936 162.181 151.01 162.181 151.036H157.007C157.068 151.703 157.293 152.232 157.683 152.622C158.082 153.003 158.593 153.194 159.217 153.194C159.72 153.194 160.136 153.081 160.465 152.856C160.794 152.63 161.028 152.301 161.167 151.868L162.155 152.05C161.999 152.682 161.657 153.185 161.128 153.558C160.608 153.922 159.971 154.104 159.217 154.104ZM159.152 148.384C158.615 148.384 158.155 148.548 157.774 148.878C157.393 149.198 157.15 149.632 157.046 150.178H161.128C161.093 149.649 160.89 149.22 160.517 148.891C160.153 148.553 159.698 148.384 159.152 148.384ZM163.862 156.86V147.604H164.837L164.863 148.709C165.14 148.319 165.478 148.02 165.877 147.812C166.284 147.604 166.726 147.5 167.203 147.5C168.096 147.5 168.837 147.812 169.426 148.436C170.015 149.06 170.31 149.844 170.31 150.789C170.31 151.742 170.015 152.535 169.426 153.168C168.837 153.792 168.096 154.104 167.203 154.104C166.726 154.104 166.289 154.004 165.89 153.805C165.491 153.597 165.153 153.302 164.876 152.921V156.86H163.862ZM169.244 150.789C169.244 150.095 169.04 149.532 168.633 149.099C168.226 148.657 167.701 148.436 167.06 148.436C166.419 148.436 165.894 148.657 165.487 149.099C165.08 149.532 164.876 150.095 164.876 150.789C164.876 151.491 165.08 152.063 165.487 152.505C165.894 152.947 166.419 153.168 167.06 153.168C167.701 153.168 168.226 152.947 168.633 152.505C169.04 152.063 169.244 151.491 169.244 150.789ZM174.705 154.104C173.726 154.104 172.933 153.796 172.326 153.181C171.728 152.557 171.429 151.751 171.429 150.763C171.429 149.818 171.732 149.038 172.339 148.423C172.946 147.807 173.713 147.5 174.64 147.5C175.541 147.5 176.278 147.781 176.85 148.345C177.422 148.908 177.708 149.632 177.708 150.516C177.708 150.585 177.699 150.685 177.682 150.815C177.673 150.936 177.669 151.01 177.669 151.036H172.495C172.556 151.703 172.781 152.232 173.171 152.622C173.57 153.003 174.081 153.194 174.705 153.194C175.208 153.194 175.624 153.081 175.953 152.856C176.282 152.63 176.516 152.301 176.655 151.868L177.643 152.05C177.487 152.682 177.145 153.185 176.616 153.558C176.096 153.922 175.459 154.104 174.705 154.104ZM174.64 148.384C174.103 148.384 173.643 148.548 173.262 148.878C172.881 149.198 172.638 149.632 172.534 150.178H176.616C176.581 149.649 176.378 149.22 176.005 148.891C175.641 148.553 175.186 148.384 174.64 148.384ZM184.017 152.167C184.017 152.765 183.775 153.237 183.289 153.584C182.804 153.93 182.158 154.104 181.352 154.104C180.642 154.104 180.052 153.961 179.584 153.675C179.116 153.38 178.8 152.96 178.635 152.414L179.636 152.115C179.74 152.479 179.94 152.756 180.234 152.947C180.529 153.129 180.906 153.22 181.365 153.22C181.868 153.22 182.258 153.124 182.535 152.934C182.813 152.743 182.951 152.47 182.951 152.115C182.951 151.811 182.843 151.573 182.626 151.4C182.41 151.226 182.119 151.14 181.755 151.14H180.611V150.269H181.729C182.067 150.269 182.34 150.186 182.548 150.022C182.756 149.848 182.86 149.619 182.86 149.333C182.86 149.021 182.735 148.782 182.483 148.618C182.241 148.453 181.89 148.371 181.43 148.371C180.971 148.371 180.603 148.462 180.325 148.644C180.048 148.826 179.862 149.094 179.766 149.45L178.804 149.229C178.952 148.683 179.255 148.258 179.714 147.955C180.182 147.651 180.767 147.5 181.469 147.5C182.206 147.5 182.795 147.66 183.237 147.981C183.679 148.301 183.9 148.726 183.9 149.255C183.9 149.584 183.805 149.87 183.614 150.113C183.424 150.355 183.155 150.537 182.808 150.659C183.19 150.754 183.484 150.936 183.692 151.205C183.909 151.465 184.017 151.785 184.017 152.167ZM193.638 154H192.546V151.647H187.801V150.698L192.208 144.25H193.638V150.646H194.977V151.647H193.638V154ZM192.546 145.446L188.958 150.646H192.546V145.446ZM200.245 154H199.231V147.604H200.245V150.178H203.612V147.604H204.639V154H203.612V151.075H200.245V154ZM209.541 154.104C208.562 154.104 207.769 153.796 207.162 153.181C206.564 152.557 206.265 151.751 206.265 150.763C206.265 149.818 206.568 149.038 207.175 148.423C207.782 147.807 208.549 147.5 209.476 147.5C210.377 147.5 211.114 147.781 211.686 148.345C212.258 148.908 212.544 149.632 212.544 150.516C212.544 150.585 212.535 150.685 212.518 150.815C212.509 150.936 212.505 151.01 212.505 151.036H207.331C207.392 151.703 207.617 152.232 208.007 152.622C208.406 153.003 208.917 153.194 209.541 153.194C210.044 153.194 210.46 153.081 210.789 152.856C211.118 152.63 211.352 152.301 211.491 151.868L212.479 152.05C212.323 152.682 211.981 153.185 211.452 153.558C210.932 153.922 210.295 154.104 209.541 154.104ZM209.476 148.384C208.939 148.384 208.479 148.548 208.098 148.878C207.717 149.198 207.474 149.632 207.37 150.178H211.452C211.417 149.649 211.214 149.22 210.841 148.891C210.477 148.553 210.022 148.384 209.476 148.384ZM214.212 156.015H213.237V153.116H213.835C214.086 152.873 214.264 152.513 214.368 152.037C214.472 151.56 214.546 150.819 214.589 149.814L214.667 147.604H219.23V153.116H220.101V156.015H219.113V154H214.212V156.015ZM215.629 148.488L215.577 149.775C215.542 150.641 215.469 151.343 215.356 151.881C215.252 152.409 215.1 152.821 214.901 153.116H218.216V148.488H215.629ZM224.255 154.104C223.276 154.104 222.483 153.796 221.876 153.181C221.278 152.557 220.979 151.751 220.979 150.763C220.979 149.818 221.282 149.038 221.889 148.423C222.496 147.807 223.263 147.5 224.19 147.5C225.091 147.5 225.828 147.781 226.4 148.345C226.972 148.908 227.258 149.632 227.258 150.516C227.258 150.585 227.249 150.685 227.232 150.815C227.223 150.936 227.219 151.01 227.219 151.036H222.045C222.106 151.703 222.331 152.232 222.721 152.622C223.12 153.003 223.631 153.194 224.255 153.194C224.758 153.194 225.174 153.081 225.503 152.856C225.832 152.63 226.066 152.301 226.205 151.868L227.193 152.05C227.037 152.682 226.695 153.185 226.166 153.558C225.646 153.922 225.009 154.104 224.255 154.104ZM224.19 148.384C223.653 148.384 223.193 148.548 222.812 148.878C222.431 149.198 222.188 149.632 222.084 150.178H226.166C226.131 149.649 225.928 149.22 225.555 148.891C225.191 148.553 224.736 148.384 224.19 148.384ZM227.873 154.013L228.003 153.142C228.055 153.15 228.098 153.159 228.133 153.168C228.168 153.168 228.202 153.168 228.237 153.168C228.601 153.168 228.861 152.908 229.017 152.388C229.182 151.868 229.286 151.027 229.329 149.866L229.42 147.604H233.905V154H232.878V148.488H230.382L230.33 149.97C230.269 151.426 230.092 152.479 229.797 153.129C229.502 153.779 229.026 154.104 228.367 154.104C228.272 154.104 228.189 154.095 228.12 154.078C228.051 154.069 227.968 154.047 227.873 154.013ZM237.01 154H236.035V147.604H237.01V152.505L240.416 147.604H241.391V154H240.416V149.099L237.01 154Z" fill="black" fill-opacity="0.6"/>
<path d="M150.251 208.217C149.133 208.217 148.279 207.961 147.69 207.45C147.101 206.93 146.806 206.176 146.806 205.188V202.25H147.911V204.941C147.911 205.712 148.11 206.28 148.509 206.644C148.916 207.008 149.549 207.19 150.407 207.19C150.823 207.19 151.222 207.151 151.603 207.073C151.984 206.995 152.383 206.873 152.799 206.709V202.25H153.904V212H152.799V207.723C152.314 207.896 151.863 208.022 151.447 208.1C151.04 208.178 150.641 208.217 150.251 208.217ZM159.217 212.104C158.238 212.104 157.445 211.796 156.838 211.181C156.24 210.557 155.941 209.751 155.941 208.763C155.941 207.818 156.244 207.038 156.851 206.423C157.458 205.807 158.225 205.5 159.152 205.5C160.053 205.5 160.79 205.781 161.362 206.345C161.934 206.908 162.22 207.632 162.22 208.516C162.22 208.585 162.211 208.685 162.194 208.815C162.185 208.936 162.181 209.01 162.181 209.036H157.007C157.068 209.703 157.293 210.232 157.683 210.622C158.082 211.003 158.593 211.194 159.217 211.194C159.72 211.194 160.136 211.081 160.465 210.856C160.794 210.63 161.028 210.301 161.167 209.868L162.155 210.05C161.999 210.682 161.657 211.185 161.128 211.558C160.608 211.922 159.971 212.104 159.217 212.104ZM159.152 206.384C158.615 206.384 158.155 206.548 157.774 206.878C157.393 207.198 157.15 207.632 157.046 208.178H161.128C161.093 207.649 160.89 207.22 160.517 206.891C160.153 206.553 159.698 206.384 159.152 206.384ZM163.862 214.86V205.604H164.837L164.863 206.709C165.14 206.319 165.478 206.02 165.877 205.812C166.284 205.604 166.726 205.5 167.203 205.5C168.096 205.5 168.837 205.812 169.426 206.436C170.015 207.06 170.31 207.844 170.31 208.789C170.31 209.742 170.015 210.535 169.426 211.168C168.837 211.792 168.096 212.104 167.203 212.104C166.726 212.104 166.289 212.004 165.89 211.805C165.491 211.597 165.153 211.302 164.876 210.921V214.86H163.862ZM169.244 208.789C169.244 208.095 169.04 207.532 168.633 207.099C168.226 206.657 167.701 206.436 167.06 206.436C166.419 206.436 165.894 206.657 165.487 207.099C165.08 207.532 164.876 208.095 164.876 208.789C164.876 209.491 165.08 210.063 165.487 210.505C165.894 210.947 166.419 211.168 167.06 211.168C167.701 211.168 168.226 210.947 168.633 210.505C169.04 210.063 169.244 209.491 169.244 208.789ZM174.705 212.104C173.726 212.104 172.933 211.796 172.326 211.181C171.728 210.557 171.429 209.751 171.429 208.763C171.429 207.818 171.732 207.038 172.339 206.423C172.946 205.807 173.713 205.5 174.64 205.5C175.541 205.5 176.278 205.781 176.85 206.345C177.422 206.908 177.708 207.632 177.708 208.516C177.708 208.585 177.699 208.685 177.682 208.815C177.673 208.936 177.669 209.01 177.669 209.036H172.495C172.556 209.703 172.781 210.232 173.171 210.622C173.57 211.003 174.081 211.194 174.705 211.194C175.208 211.194 175.624 211.081 175.953 210.856C176.282 210.63 176.516 210.301 176.655 209.868L177.643 210.05C177.487 210.682 177.145 211.185 176.616 211.558C176.096 211.922 175.459 212.104 174.705 212.104ZM174.64 206.384C174.103 206.384 173.643 206.548 173.262 206.878C172.881 207.198 172.638 207.632 172.534 208.178H176.616C176.581 207.649 176.378 207.22 176.005 206.891C175.641 206.553 175.186 206.384 174.64 206.384ZM184.017 210.167C184.017 210.765 183.775 211.237 183.289 211.584C182.804 211.93 182.158 212.104 181.352 212.104C180.642 212.104 180.052 211.961 179.584 211.675C179.116 211.38 178.8 210.96 178.635 210.414L179.636 210.115C179.74 210.479 179.94 210.756 180.234 210.947C180.529 211.129 180.906 211.22 181.365 211.22C181.868 211.22 182.258 211.124 182.535 210.934C182.813 210.743 182.951 210.47 182.951 210.115C182.951 209.811 182.843 209.573 182.626 209.4C182.41 209.226 182.119 209.14 181.755 209.14H180.611V208.269H181.729C182.067 208.269 182.34 208.186 182.548 208.022C182.756 207.848 182.86 207.619 182.86 207.333C182.86 207.021 182.735 206.782 182.483 206.618C182.241 206.453 181.89 206.371 181.43 206.371C180.971 206.371 180.603 206.462 180.325 206.644C180.048 206.826 179.862 207.094 179.766 207.45L178.804 207.229C178.952 206.683 179.255 206.258 179.714 205.955C180.182 205.651 180.767 205.5 181.469 205.5C182.206 205.5 182.795 205.66 183.237 205.981C183.679 206.301 183.9 206.726 183.9 207.255C183.9 207.584 183.805 207.87 183.614 208.113C183.424 208.355 183.155 208.537 182.808 208.659C183.19 208.754 183.484 208.936 183.692 209.205C183.909 209.465 184.017 209.785 184.017 210.167ZM194.639 208.893C194.639 209.837 194.323 210.609 193.69 211.207C193.057 211.805 192.251 212.104 191.272 212.104C190.319 212.104 189.534 211.818 188.919 211.246C188.312 210.674 188.009 209.937 188.009 209.036C188.009 208.637 188.07 208.243 188.191 207.853C188.321 207.463 188.512 207.081 188.763 206.709L191.701 202.25H192.949L190.453 205.994C190.618 205.942 190.787 205.903 190.96 205.877C191.133 205.842 191.302 205.825 191.467 205.825C192.394 205.825 193.153 206.111 193.742 206.683C194.34 207.255 194.639 207.991 194.639 208.893ZM189.127 208.971C189.127 209.586 189.326 210.093 189.725 210.492C190.132 210.882 190.652 211.077 191.285 211.077C191.935 211.077 192.468 210.873 192.884 210.466C193.3 210.058 193.508 209.534 193.508 208.893C193.508 208.269 193.3 207.757 192.884 207.359C192.477 206.96 191.948 206.761 191.298 206.761C190.995 206.761 190.709 206.813 190.44 206.917C190.171 207.021 189.937 207.172 189.738 207.372C189.539 207.58 189.387 207.818 189.283 208.087C189.179 208.355 189.127 208.65 189.127 208.971ZM200.067 212H199.053V205.604H200.067V208.178H203.434V205.604H204.461V212H203.434V209.075H200.067V212ZM209.363 212.104C208.384 212.104 207.591 211.796 206.984 211.181C206.386 210.557 206.087 209.751 206.087 208.763C206.087 207.818 206.391 207.038 206.997 206.423C207.604 205.807 208.371 205.5 209.298 205.5C210.2 205.5 210.936 205.781 211.508 206.345C212.08 206.908 212.366 207.632 212.366 208.516C212.366 208.585 212.358 208.685 212.34 208.815C212.332 208.936 212.327 209.01 212.327 209.036H207.153C207.214 209.703 207.439 210.232 207.829 210.622C208.228 211.003 208.739 211.194 209.363 211.194C209.866 211.194 210.282 211.081 210.611 210.856C210.941 210.63 211.175 210.301 211.313 209.868L212.301 210.05C212.145 210.682 211.803 211.185 211.274 211.558C210.754 211.922 210.117 212.104 209.363 212.104ZM209.298 206.384C208.761 206.384 208.302 206.548 207.92 206.878C207.539 207.198 207.296 207.632 207.192 208.178H211.274C211.24 207.649 211.036 207.22 210.663 206.891C210.299 206.553 209.844 206.384 209.298 206.384ZM214.034 214.015H213.059V211.116H213.657C213.909 210.873 214.086 210.513 214.19 210.037C214.294 209.56 214.368 208.819 214.411 207.814L214.489 205.604H219.052V211.116H219.923V214.015H218.935V212H214.034V214.015ZM215.451 206.488L215.399 207.775C215.365 208.641 215.291 209.343 215.178 209.881C215.074 210.409 214.923 210.821 214.723 211.116H218.038V206.488H215.451ZM224.077 212.104C223.098 212.104 222.305 211.796 221.698 211.181C221.1 210.557 220.801 209.751 220.801 208.763C220.801 207.818 221.105 207.038 221.711 206.423C222.318 205.807 223.085 205.5 224.012 205.5C224.914 205.5 225.65 205.781 226.222 206.345C226.794 206.908 227.08 207.632 227.08 208.516C227.08 208.585 227.072 208.685 227.054 208.815C227.046 208.936 227.041 209.01 227.041 209.036H221.867C221.928 209.703 222.153 210.232 222.543 210.622C222.942 211.003 223.453 211.194 224.077 211.194C224.58 211.194 224.996 211.081 225.325 210.856C225.655 210.63 225.889 210.301 226.027 209.868L227.015 210.05C226.859 210.682 226.517 211.185 225.988 211.558C225.468 211.922 224.831 212.104 224.077 212.104ZM224.012 206.384C223.475 206.384 223.016 206.548 222.634 206.878C222.253 207.198 222.01 207.632 221.906 208.178H225.988C225.954 207.649 225.75 207.22 225.377 206.891C225.013 206.553 224.558 206.384 224.012 206.384ZM227.695 212.013L227.825 211.142C227.877 211.15 227.921 211.159 227.955 211.168C227.99 211.168 228.025 211.168 228.059 211.168C228.423 211.168 228.683 210.908 228.839 210.388C229.004 209.868 229.108 209.027 229.151 207.866L229.242 205.604H233.727V212H232.7V206.488H230.204L230.152 207.97C230.092 209.426 229.914 210.479 229.619 211.129C229.325 211.779 228.848 212.104 228.189 212.104C228.094 212.104 228.012 212.095 227.942 212.078C227.873 212.069 227.791 212.047 227.695 212.013ZM238.587 212H235.857V205.604H236.871V207.749H238.587C239.263 207.749 239.805 207.944 240.212 208.334C240.628 208.724 240.836 209.239 240.836 209.881C240.836 210.513 240.628 211.025 240.212 211.415C239.805 211.805 239.263 212 238.587 212ZM239.77 209.881C239.77 209.473 239.653 209.166 239.419 208.958C239.194 208.75 238.856 208.646 238.405 208.646H236.871V211.116H238.405C238.847 211.116 239.185 211.012 239.419 210.804C239.653 210.587 239.77 210.279 239.77 209.881Z" fill="black" fill-opacity="0.6"/>
</svg>
