<svg width="716" height="192" viewBox="0 0 716 192" fill="none" xmlns="http://www.w3.org/2000/svg">
<rect width="716" height="192" fill="#F6F7F8"/>
<path fill-rule="evenodd" clip-rule="evenodd" d="M35.8927 131.568L33.6644 129.587C33.2516 129.22 32.6195 129.257 32.2526 129.67C31.8857 130.083 31.9229 130.715 32.3356 131.082L35.3357 133.748C35.7578 134.124 36.4067 134.075 36.7682 133.641L41.7682 127.641C42.1218 127.217 42.0645 126.586 41.6402 126.233C41.2159 125.879 40.5854 125.937 40.2318 126.361L35.8927 131.568Z" fill="#6FADAA"/>
<path d="M59.512 135.105C58.1253 135.105 56.9857 134.637 56.093 133.701C55.209 132.765 54.767 131.573 54.767 130.126C54.767 128.67 55.209 127.478 56.093 126.551C56.977 125.615 58.1167 125.147 59.512 125.147C60.9073 125.147 62.047 125.615 62.931 126.551C63.815 127.478 64.257 128.67 64.257 130.126C64.257 131.582 63.815 132.778 62.931 133.714C62.047 134.641 60.9073 135.105 59.512 135.105ZM59.512 134.078C60.5867 134.078 61.4533 133.714 62.112 132.986C62.7793 132.258 63.113 131.305 63.113 130.126C63.113 128.947 62.7793 127.994 62.112 127.266C61.4533 126.538 60.5867 126.174 59.512 126.174C58.4287 126.174 57.5577 126.538 56.899 127.266C56.2403 127.994 55.911 128.947 55.911 130.126C55.911 131.305 56.2403 132.258 56.899 132.986C57.5577 133.714 58.4287 134.078 59.512 134.078ZM67.0995 135.001H66.0855V128.605H71.4155V135.001H70.3885V129.489H67.0995V135.001ZM72.5234 135.014L72.6534 134.143C72.7054 134.152 72.7487 134.16 72.7834 134.169C72.818 134.169 72.8527 134.169 72.8874 134.169C73.2514 134.169 73.5114 133.909 73.6674 133.389C73.832 132.869 73.936 132.028 73.9794 130.867L74.0704 128.605H78.5554V135.001H77.5284V129.489H75.0324L74.9804 130.971C74.9197 132.427 74.742 133.48 74.4474 134.13C74.1527 134.78 73.676 135.105 73.0174 135.105C72.922 135.105 72.8397 135.096 72.7704 135.079C72.701 135.07 72.6187 135.049 72.5234 135.014ZM85.5861 135.001H84.6501L84.6241 133.727C84.3728 134.169 84.0348 134.511 83.6101 134.754C83.1941 134.988 82.7261 135.105 82.2061 135.105C81.5908 135.105 81.1011 134.945 80.7371 134.624C80.3731 134.303 80.1911 133.874 80.1911 133.337C80.1911 132.817 80.3818 132.392 80.7631 132.063C81.1445 131.734 81.8075 131.448 82.7521 131.205L84.5981 130.763C84.5461 130.312 84.3771 129.97 84.0911 129.736C83.8138 129.493 83.4325 129.372 82.9471 129.372C82.4618 129.372 82.0675 129.48 81.7641 129.697C81.4608 129.914 81.2528 130.234 81.1401 130.659L80.1781 130.477C80.3255 129.862 80.6461 129.381 81.1401 129.034C81.6341 128.679 82.2408 128.501 82.9601 128.501C83.7748 128.501 84.4161 128.722 84.8841 129.164C85.3521 129.606 85.5861 130.217 85.5861 130.997V135.001ZM81.2571 133.246C81.2571 133.549 81.3568 133.792 81.5561 133.974C81.7555 134.147 82.0241 134.234 82.3621 134.234C83.0035 134.234 83.5365 134.004 83.9611 133.545C84.3945 133.077 84.6111 132.475 84.6111 131.738V131.595L82.7651 132.05C82.2191 132.189 81.8291 132.353 81.5951 132.544C81.3698 132.726 81.2571 132.96 81.2571 133.246ZM89.5293 132.622C88.7233 132.622 88.1123 132.44 87.6963 132.076C87.2803 131.703 87.0723 131.157 87.0723 130.438V128.605H88.0863V130.308C88.0863 130.776 88.2206 131.131 88.4893 131.374C88.7666 131.608 89.1696 131.725 89.6983 131.725C89.9496 131.725 90.1836 131.708 90.4003 131.673C90.6256 131.638 90.8813 131.582 91.1673 131.504V128.605H92.1943V135.001H91.1673V132.375C90.8553 132.462 90.5736 132.527 90.3223 132.57C90.071 132.605 89.8066 132.622 89.5293 132.622ZM95.3076 135.001H94.3326V128.605H95.3076V133.506L98.7136 128.605H99.6886V135.001H98.7136V130.1L95.3076 135.001ZM104.839 135.001H101.823V128.605H104.709C105.29 128.605 105.753 128.752 106.1 129.047C106.447 129.342 106.62 129.74 106.62 130.243C106.62 130.572 106.538 130.858 106.373 131.101C106.217 131.344 105.987 131.526 105.684 131.647C106.074 131.742 106.373 131.929 106.581 132.206C106.798 132.475 106.906 132.808 106.906 133.207C106.906 133.744 106.711 134.178 106.321 134.507C105.94 134.836 105.446 135.001 104.839 135.001ZM105.619 130.36C105.619 130.057 105.528 129.831 105.346 129.684C105.173 129.528 104.913 129.45 104.566 129.45H102.824V131.296H104.631C104.952 131.296 105.194 131.218 105.359 131.062C105.532 130.897 105.619 130.663 105.619 130.36ZM102.824 134.143H104.605C105.012 134.143 105.32 134.056 105.528 133.883C105.745 133.71 105.853 133.458 105.853 133.129C105.853 132.8 105.753 132.553 105.554 132.388C105.355 132.215 105.069 132.128 104.696 132.128H102.824V134.143ZM113.452 135.001H112.516L112.49 133.727C112.239 134.169 111.901 134.511 111.476 134.754C111.06 134.988 110.592 135.105 110.072 135.105C109.457 135.105 108.967 134.945 108.603 134.624C108.239 134.303 108.057 133.874 108.057 133.337C108.057 132.817 108.248 132.392 108.629 132.063C109.011 131.734 109.674 131.448 110.618 131.205L112.464 130.763C112.412 130.312 112.243 129.97 111.957 129.736C111.68 129.493 111.299 129.372 110.813 129.372C110.328 129.372 109.934 129.48 109.63 129.697C109.327 129.914 109.119 130.234 109.006 130.659L108.044 130.477C108.192 129.862 108.512 129.381 109.006 129.034C109.5 128.679 110.107 128.501 110.826 128.501C111.641 128.501 112.282 128.722 112.75 129.164C113.218 129.606 113.452 130.217 113.452 130.997V135.001ZM109.123 133.246C109.123 133.549 109.223 133.792 109.422 133.974C109.622 134.147 109.89 134.234 110.228 134.234C110.87 134.234 111.403 134.004 111.827 133.545C112.261 133.077 112.477 132.475 112.477 131.738V131.595L110.631 132.05C110.085 132.189 109.695 132.353 109.461 132.544C109.236 132.726 109.123 132.96 109.123 133.246ZM118.188 126.72C118.508 126.72 118.76 126.638 118.942 126.473C119.124 126.3 119.219 126.057 119.228 125.745H120.125C120.125 126.282 119.947 126.716 119.592 127.045C119.236 127.366 118.768 127.526 118.188 127.526C117.607 127.526 117.139 127.366 116.784 127.045C116.437 126.724 116.259 126.291 116.251 125.745H117.161C117.161 126.048 117.252 126.287 117.434 126.46C117.616 126.633 117.867 126.72 118.188 126.72ZM116.433 135.001H115.458V128.605H116.433V133.506L119.839 128.605H120.814V135.001H119.839V130.1L116.433 135.001ZM125.392 135.001H124.365V129.489H122.142V128.605H127.615V129.489H125.392V135.001ZM131.531 135.105C130.552 135.105 129.759 134.797 129.152 134.182C128.554 133.558 128.255 132.752 128.255 131.764C128.255 130.819 128.559 130.039 129.165 129.424C129.772 128.809 130.539 128.501 131.466 128.501C132.368 128.501 133.104 128.783 133.676 129.346C134.248 129.909 134.534 130.633 134.534 131.517C134.534 131.586 134.526 131.686 134.508 131.816C134.5 131.937 134.495 132.011 134.495 132.037H129.321C129.382 132.704 129.607 133.233 129.997 133.623C130.396 134.004 130.907 134.195 131.531 134.195C132.034 134.195 132.45 134.082 132.779 133.857C133.109 133.632 133.343 133.302 133.481 132.869L134.469 133.051C134.313 133.684 133.971 134.186 133.442 134.559C132.922 134.923 132.285 135.105 131.531 135.105ZM131.466 129.385C130.929 129.385 130.47 129.55 130.088 129.879C129.707 130.2 129.464 130.633 129.36 131.179H133.442C133.408 130.65 133.204 130.221 132.831 129.892C132.467 129.554 132.012 129.385 131.466 129.385ZM140.047 135.001H139.033V128.605H144.363V135.001H143.336V129.489H140.047V135.001ZM145.991 131.79C145.991 130.837 146.303 130.052 146.927 129.437C147.551 128.813 148.339 128.501 149.293 128.501C150.246 128.501 151.035 128.813 151.659 129.437C152.283 130.052 152.595 130.837 152.595 131.79C152.595 132.752 152.283 133.545 151.659 134.169C151.035 134.793 150.246 135.105 149.293 135.105C148.339 135.105 147.551 134.793 146.927 134.169C146.303 133.545 145.991 132.752 145.991 131.79ZM151.529 131.79C151.529 131.097 151.321 130.533 150.905 130.1C150.489 129.658 149.951 129.437 149.293 129.437C148.634 129.437 148.097 129.658 147.681 130.1C147.265 130.533 147.057 131.097 147.057 131.79C147.057 132.492 147.265 133.064 147.681 133.506C148.097 133.948 148.634 134.169 149.293 134.169C149.951 134.169 150.489 133.948 150.905 133.506C151.321 133.064 151.529 132.492 151.529 131.79ZM154.216 135.001V128.605H155.23V131.153H156.179L158.363 128.605H159.572L156.985 131.608L159.793 135.001H158.545L156.127 132.141H155.23V135.001H154.216ZM162.866 134.949L160.084 128.605H161.228L163.438 133.649L165.414 128.605H166.493L162.762 137.861H161.696L162.866 134.949ZM168.687 135.001H167.673V128.605H173.003V135.001H171.976V129.489H168.687V135.001ZM175.138 135.001V128.605H176.152V131.153H177.101L179.285 128.605H180.494L177.907 131.608L180.715 135.001H179.467L177.049 132.141H176.152V135.001H175.138ZM182.816 135.001H181.841V128.605H182.816V133.506L186.222 128.605H187.197V135.001H186.222V130.1L182.816 135.001ZM194.164 132.622C193.358 132.622 192.747 132.44 192.331 132.076C191.915 131.703 191.707 131.157 191.707 130.438V128.605H192.721V130.308C192.721 130.776 192.855 131.131 193.124 131.374C193.401 131.608 193.804 131.725 194.333 131.725C194.584 131.725 194.818 131.708 195.035 131.673C195.26 131.638 195.516 131.582 195.802 131.504V128.605H196.829V135.001H195.802V132.375C195.49 132.462 195.208 132.527 194.957 132.57C194.706 132.605 194.441 132.622 194.164 132.622ZM203.868 135.001H202.932L202.906 133.727C202.655 134.169 202.317 134.511 201.892 134.754C201.476 134.988 201.008 135.105 200.488 135.105C199.873 135.105 199.383 134.945 199.019 134.624C198.655 134.303 198.473 133.874 198.473 133.337C198.473 132.817 198.664 132.392 199.045 132.063C199.427 131.734 200.09 131.448 201.034 131.205L202.88 130.763C202.828 130.312 202.659 129.97 202.373 129.736C202.096 129.493 201.715 129.372 201.229 129.372C200.744 129.372 200.35 129.48 200.046 129.697C199.743 129.914 199.535 130.234 199.422 130.659L198.46 130.477C198.608 129.862 198.928 129.381 199.422 129.034C199.916 128.679 200.523 128.501 201.242 128.501C202.057 128.501 202.698 128.722 203.166 129.164C203.634 129.606 203.868 130.217 203.868 130.997V135.001ZM199.539 133.246C199.539 133.549 199.639 133.792 199.838 133.974C200.038 134.147 200.306 134.234 200.644 134.234C201.286 134.234 201.819 134.004 202.243 133.545C202.677 133.077 202.893 132.475 202.893 131.738V131.595L201.047 132.05C200.501 132.189 200.111 132.353 199.877 132.544C199.652 132.726 199.539 132.96 199.539 133.246ZM208.591 135.105C207.663 135.105 206.892 134.789 206.277 134.156C205.67 133.523 205.367 132.726 205.367 131.764C205.367 130.828 205.67 130.052 206.277 129.437C206.892 128.813 207.663 128.501 208.591 128.501C209.353 128.501 209.995 128.705 210.515 129.112C211.043 129.511 211.386 130.057 211.542 130.75L210.502 130.932C210.389 130.464 210.164 130.1 209.826 129.84C209.488 129.571 209.076 129.437 208.591 129.437C207.958 129.437 207.438 129.654 207.031 130.087C206.632 130.52 206.433 131.079 206.433 131.764C206.433 132.475 206.632 133.055 207.031 133.506C207.438 133.948 207.958 134.169 208.591 134.169C209.102 134.169 209.531 134.03 209.878 133.753C210.224 133.476 210.45 133.09 210.554 132.596L211.581 132.765C211.459 133.458 211.121 134.022 210.567 134.455C210.021 134.888 209.362 135.105 208.591 135.105ZM215.478 135.001H214.451V129.489H212.228V128.605H217.701V129.489H215.478V135.001ZM218.688 130.568C218.688 129.987 218.874 129.515 219.247 129.151C219.62 128.787 220.101 128.605 220.69 128.605H223.797V135.001H222.796V132.492H221.366L219.494 135.001H218.35L220.274 132.427C219.789 132.349 219.403 132.145 219.117 131.816C218.831 131.478 218.688 131.062 218.688 130.568ZM219.754 130.542C219.754 130.897 219.858 131.17 220.066 131.361C220.274 131.543 220.573 131.634 220.963 131.634H222.796V129.45H220.976C220.586 129.45 220.283 129.545 220.066 129.736C219.858 129.918 219.754 130.187 219.754 130.542ZM226.907 135.001H225.932V128.605H226.985L229.26 131.595L231.548 128.605H232.601V135.001H231.626V129.957L229.351 132.934H229.117L226.907 130.009V135.001ZM235.705 135.001H234.73V128.605H235.705V133.506L239.111 128.605H240.086V135.001H239.111V130.1L235.705 135.001ZM244.271 131.673V130.698H256.751V131.673H244.271ZM261.947 135.001H260.933V128.605H266.263V135.001H265.236V129.489H261.947V135.001ZM267.891 131.79C267.891 130.837 268.203 130.052 268.827 129.437C269.451 128.813 270.24 128.501 271.193 128.501C272.146 128.501 272.935 128.813 273.559 129.437C274.183 130.052 274.495 130.837 274.495 131.79C274.495 132.752 274.183 133.545 273.559 134.169C272.935 134.793 272.146 135.105 271.193 135.105C270.24 135.105 269.451 134.793 268.827 134.169C268.203 133.545 267.891 132.752 267.891 131.79ZM273.429 131.79C273.429 131.097 273.221 130.533 272.805 130.1C272.389 129.658 271.852 129.437 271.193 129.437C270.534 129.437 269.997 129.658 269.581 130.1C269.165 130.533 268.957 131.097 268.957 131.79C268.957 132.492 269.165 133.064 269.581 133.506C269.997 133.948 270.534 134.169 271.193 134.169C271.852 134.169 272.389 133.948 272.805 133.506C273.221 133.064 273.429 132.492 273.429 131.79ZM280.117 133.974H284.823V135.001H278.622V134.091L281.56 131.049C282.297 130.304 282.787 129.719 283.029 129.294C283.281 128.861 283.406 128.427 283.406 127.994C283.406 127.448 283.229 127.006 282.873 126.668C282.527 126.33 282.072 126.161 281.508 126.161C280.945 126.161 280.477 126.326 280.104 126.655C279.732 126.976 279.502 127.431 279.415 128.02L278.349 127.799C278.497 126.976 278.856 126.33 279.428 125.862C280.009 125.385 280.72 125.147 281.56 125.147C282.444 125.147 283.159 125.407 283.705 125.927C284.251 126.447 284.524 127.127 284.524 127.968C284.524 128.497 284.39 129.008 284.121 129.502C283.861 129.987 283.298 130.676 282.431 131.569L280.117 133.974ZM289.326 128.657C290.253 128.657 291.012 128.956 291.601 129.554C292.199 130.152 292.498 130.915 292.498 131.842C292.498 132.804 292.182 133.588 291.549 134.195C290.916 134.802 290.093 135.105 289.079 135.105C288.212 135.105 287.489 134.888 286.908 134.455C286.336 134.022 285.959 133.406 285.777 132.609L286.856 132.297C286.995 132.878 287.259 133.324 287.649 133.636C288.039 133.939 288.524 134.091 289.105 134.091C289.772 134.091 290.314 133.887 290.73 133.48C291.155 133.064 291.367 132.522 291.367 131.855C291.367 131.196 291.163 130.659 290.756 130.243C290.349 129.827 289.824 129.619 289.183 129.619C288.767 129.619 288.394 129.688 288.065 129.827C287.744 129.966 287.489 130.165 287.298 130.425L286.427 130.152L287.259 125.251H292.108V126.239H288.13L287.623 129.112C287.874 128.965 288.143 128.852 288.429 128.774C288.715 128.696 289.014 128.657 289.326 128.657ZM298.447 127.474C298.447 128.15 298.222 128.709 297.771 129.151C297.32 129.593 296.753 129.814 296.068 129.814C295.375 129.814 294.803 129.593 294.352 129.151C293.901 128.709 293.676 128.15 293.676 127.474C293.676 126.798 293.901 126.243 294.352 125.81C294.803 125.368 295.375 125.147 296.068 125.147C296.753 125.147 297.32 125.368 297.771 125.81C298.222 126.252 298.447 126.807 298.447 127.474ZM296.068 128.982C296.493 128.982 296.844 128.839 297.121 128.553C297.398 128.267 297.537 127.907 297.537 127.474C297.537 127.041 297.398 126.681 297.121 126.395C296.844 126.109 296.493 125.966 296.068 125.966C295.643 125.966 295.288 126.109 295.002 126.395C294.725 126.681 294.586 127.041 294.586 127.474C294.586 127.907 294.725 128.267 295.002 128.553C295.288 128.839 295.643 128.982 296.068 128.982ZM304.323 132.765C304.323 133.441 304.098 134 303.647 134.442C303.196 134.884 302.629 135.105 301.944 135.105C301.251 135.105 300.679 134.884 300.228 134.442C299.777 134 299.552 133.441 299.552 132.765C299.552 132.089 299.777 131.534 300.228 131.101C300.679 130.659 301.251 130.438 301.944 130.438C302.629 130.438 303.196 130.659 303.647 131.101C304.098 131.543 304.323 132.098 304.323 132.765ZM301.944 134.273C302.369 134.273 302.72 134.13 302.997 133.844C303.274 133.558 303.413 133.198 303.413 132.765C303.413 132.332 303.274 131.972 302.997 131.686C302.72 131.4 302.369 131.257 301.944 131.257C301.519 131.257 301.164 131.4 300.878 131.686C300.601 131.972 300.462 132.332 300.462 132.765C300.462 133.198 300.601 133.558 300.878 133.844C301.164 134.13 301.519 134.273 301.944 134.273ZM303.088 125.498L295.574 135.235L294.937 134.754L302.438 125.017L303.088 125.498ZM308.845 135.001V128.605H309.859V131.153H310.808L312.992 128.605H314.201L311.614 131.608L314.422 135.001H313.174L310.756 132.141H309.859V135.001H308.845ZM320.449 135.001H319.513L319.487 133.727C319.236 134.169 318.898 134.511 318.473 134.754C318.057 134.988 317.589 135.105 317.069 135.105C316.454 135.105 315.964 134.945 315.6 134.624C315.236 134.303 315.054 133.874 315.054 133.337C315.054 132.817 315.245 132.392 315.626 132.063C316.008 131.734 316.671 131.448 317.615 131.205L319.461 130.763C319.409 130.312 319.24 129.97 318.954 129.736C318.677 129.493 318.296 129.372 317.81 129.372C317.325 129.372 316.931 129.48 316.627 129.697C316.324 129.914 316.116 130.234 316.003 130.659L315.041 130.477C315.189 129.862 315.509 129.381 316.003 129.034C316.497 128.679 317.104 128.501 317.823 128.501C318.638 128.501 319.279 128.722 319.747 129.164C320.215 129.606 320.449 130.217 320.449 130.997V135.001ZM316.12 133.246C316.12 133.549 316.22 133.792 316.419 133.974C316.619 134.147 316.887 134.234 317.225 134.234C317.867 134.234 318.4 134.004 318.824 133.545C319.258 133.077 319.474 132.475 319.474 131.738V131.595L317.628 132.05C317.082 132.189 316.692 132.353 316.458 132.544C316.233 132.726 316.12 132.96 316.12 133.246ZM321.636 128.605H322.793L324.6 131.192H325.445V128.605H326.42V131.192H327.252L329.085 128.605H330.229L328.032 131.595L330.398 135.001H329.228L327.213 132.102H326.42V135.001H325.445V132.102H324.639L322.611 135.001H321.48L323.82 131.66L321.636 128.605ZM331.799 137.016H330.824V134.117H331.422C331.673 133.874 331.851 133.515 331.955 133.038C332.059 132.561 332.133 131.82 332.176 130.815L332.254 128.605H336.817V134.117H337.688V137.016H336.7V135.001H331.799V137.016ZM333.216 129.489L333.164 130.776C333.129 131.643 333.056 132.345 332.943 132.882C332.839 133.411 332.687 133.822 332.488 134.117H335.803V129.489H333.216ZM341.764 135.001H339.073V128.605H340.087V130.75H341.764C342.44 130.75 342.982 130.945 343.389 131.335C343.805 131.725 344.013 132.241 344.013 132.882C344.013 133.515 343.805 134.026 343.389 134.416C342.982 134.806 342.44 135.001 341.764 135.001ZM345.833 135.001H344.819V128.605H345.833V135.001ZM342.947 132.882C342.947 132.475 342.83 132.167 342.596 131.959C342.371 131.751 342.033 131.647 341.582 131.647H340.087V134.117H341.582C342.024 134.117 342.362 134.013 342.596 133.805C342.83 133.588 342.947 133.281 342.947 132.882ZM350.729 135.105C349.749 135.105 348.956 134.797 348.35 134.182C347.752 133.558 347.453 132.752 347.453 131.764C347.453 130.819 347.756 130.039 348.363 129.424C348.969 128.809 349.736 128.501 350.664 128.501C351.565 128.501 352.302 128.783 352.874 129.346C353.446 129.909 353.732 130.633 353.732 131.517C353.732 131.586 353.723 131.686 353.706 131.816C353.697 131.937 353.693 132.011 353.693 132.037H348.519C348.579 132.704 348.805 133.233 349.195 133.623C349.593 134.004 350.105 134.195 350.729 134.195C351.231 134.195 351.647 134.082 351.977 133.857C352.306 133.632 352.54 133.302 352.679 132.869L353.667 133.051C353.511 133.684 353.168 134.186 352.64 134.559C352.12 134.923 351.483 135.105 350.729 135.105ZM350.664 129.385C350.126 129.385 349.667 129.55 349.286 129.879C348.904 130.2 348.662 130.633 348.558 131.179H352.64C352.605 130.65 352.401 130.221 352.029 129.892C351.665 129.554 351.21 129.385 350.664 129.385ZM358.256 137.016H357.281V134.117H357.879C358.13 133.874 358.308 133.515 358.412 133.038C358.516 132.561 358.59 131.82 358.633 130.815L358.711 128.605H363.274V134.117H364.145V137.016H363.157V135.001H358.256V137.016ZM359.673 129.489L359.621 130.776C359.586 131.643 359.513 132.345 359.4 132.882C359.296 133.411 359.144 133.822 358.945 134.117H362.26V129.489H359.673ZM368.546 135.001H365.53V128.605H368.416C368.997 128.605 369.46 128.752 369.807 129.047C370.154 129.342 370.327 129.74 370.327 130.243C370.327 130.572 370.245 130.858 370.08 131.101C369.924 131.344 369.694 131.526 369.391 131.647C369.781 131.742 370.08 131.929 370.288 132.206C370.505 132.475 370.613 132.808 370.613 133.207C370.613 133.744 370.418 134.178 370.028 134.507C369.647 134.836 369.153 135.001 368.546 135.001ZM369.326 130.36C369.326 130.057 369.235 129.831 369.053 129.684C368.88 129.528 368.62 129.45 368.273 129.45H366.531V131.296H368.338C368.659 131.296 368.901 131.218 369.066 131.062C369.239 130.897 369.326 130.663 369.326 130.36ZM366.531 134.143H368.312C368.719 134.143 369.027 134.056 369.235 133.883C369.452 133.71 369.56 133.458 369.56 133.129C369.56 132.8 369.46 132.553 369.261 132.388C369.062 132.215 368.776 132.128 368.403 132.128H366.531V134.143ZM375.027 135.105C374.048 135.105 373.255 134.797 372.648 134.182C372.05 133.558 371.751 132.752 371.751 131.764C371.751 130.819 372.055 130.039 372.661 129.424C373.268 128.809 374.035 128.501 374.962 128.501C375.864 128.501 376.6 128.783 377.172 129.346C377.744 129.909 378.03 130.633 378.03 131.517C378.03 131.586 378.022 131.686 378.004 131.816C377.996 131.937 377.991 132.011 377.991 132.037H372.817C372.878 132.704 373.103 133.233 373.493 133.623C373.892 134.004 374.403 134.195 375.027 134.195C375.53 134.195 375.946 134.082 376.275 133.857C376.605 133.632 376.839 133.302 376.977 132.869L377.965 133.051C377.809 133.684 377.467 134.186 376.938 134.559C376.418 134.923 375.781 135.105 375.027 135.105ZM374.962 129.385C374.425 129.385 373.966 129.55 373.584 129.879C373.203 130.2 372.96 130.633 372.856 131.179H376.938C376.904 130.65 376.7 130.221 376.327 129.892C375.963 129.554 375.508 129.385 374.962 129.385ZM383.543 135.001H382.529V128.605H383.543V131.179H386.91V128.605H387.937V135.001H386.91V132.076H383.543V135.001ZM392.839 135.105C391.86 135.105 391.067 134.797 390.46 134.182C389.862 133.558 389.563 132.752 389.563 131.764C389.563 130.819 389.866 130.039 390.473 129.424C391.08 128.809 391.847 128.501 392.774 128.501C393.675 128.501 394.412 128.783 394.984 129.346C395.556 129.909 395.842 130.633 395.842 131.517C395.842 131.586 395.833 131.686 395.816 131.816C395.807 131.937 395.803 132.011 395.803 132.037H390.629C390.69 132.704 390.915 133.233 391.305 133.623C391.704 134.004 392.215 134.195 392.839 134.195C393.342 134.195 393.758 134.082 394.087 133.857C394.416 133.632 394.65 133.302 394.789 132.869L395.777 133.051C395.621 133.684 395.279 134.186 394.75 134.559C394.23 134.923 393.593 135.105 392.839 135.105ZM392.774 129.385C392.237 129.385 391.777 129.55 391.396 129.879C391.015 130.2 390.772 130.633 390.668 131.179H394.75C394.715 130.65 394.512 130.221 394.139 129.892C393.775 129.554 393.32 129.385 392.774 129.385ZM397.51 137.016H396.535V134.117H397.133C397.384 133.874 397.562 133.515 397.666 133.038C397.77 132.561 397.844 131.82 397.887 130.815L397.965 128.605H402.528V134.117H403.399V137.016H402.411V135.001H397.51V137.016ZM398.927 129.489L398.875 130.776C398.84 131.643 398.767 132.345 398.654 132.882C398.55 133.411 398.398 133.822 398.199 134.117H401.514V129.489H398.927ZM407.553 135.105C406.573 135.105 405.78 134.797 405.174 134.182C404.576 133.558 404.277 132.752 404.277 131.764C404.277 130.819 404.58 130.039 405.187 129.424C405.793 128.809 406.56 128.501 407.488 128.501C408.389 128.501 409.126 128.783 409.698 129.346C410.27 129.909 410.556 130.633 410.556 131.517C410.556 131.586 410.547 131.686 410.53 131.816C410.521 131.937 410.517 132.011 410.517 132.037H405.343C405.403 132.704 405.629 133.233 406.019 133.623C406.417 134.004 406.929 134.195 407.553 134.195C408.055 134.195 408.471 134.082 408.801 133.857C409.13 133.632 409.364 133.302 409.503 132.869L410.491 133.051C410.335 133.684 409.992 134.186 409.464 134.559C408.944 134.923 408.307 135.105 407.553 135.105ZM407.488 129.385C406.95 129.385 406.491 129.55 406.11 129.879C405.728 130.2 405.486 130.633 405.382 131.179H409.464C409.429 130.65 409.225 130.221 408.853 129.892C408.489 129.554 408.034 129.385 407.488 129.385ZM411.171 135.014L411.301 134.143C411.353 134.152 411.396 134.16 411.431 134.169C411.466 134.169 411.5 134.169 411.535 134.169C411.899 134.169 412.159 133.909 412.315 133.389C412.48 132.869 412.584 132.028 412.627 130.867L412.718 128.605H417.203V135.001H416.176V129.489H413.68L413.628 130.971C413.567 132.427 413.39 133.48 413.095 134.13C412.8 134.78 412.324 135.105 411.665 135.105C411.57 135.105 411.487 135.096 411.418 135.079C411.349 135.07 411.266 135.049 411.171 135.014ZM420.308 135.001H419.333V128.605H420.308V133.506L423.714 128.605H424.689V135.001H423.714V130.1L420.308 135.001Z" fill="black"/>
<path fill-rule="evenodd" clip-rule="evenodd" d="M35.8927 159.568L33.6644 157.587C33.2516 157.22 32.6195 157.257 32.2526 157.67C31.8857 158.083 31.9229 158.715 32.3356 159.082L35.3357 161.748C35.7578 162.124 36.4067 162.075 36.7682 161.641L41.7682 155.641C42.1218 155.217 42.0645 154.586 41.6402 154.233C41.2159 153.879 40.5854 153.937 40.2318 154.361L35.8927 159.568Z" fill="#6FADAA"/>
<path d="M56.587 163.001H55.482V153.251H56.587V157.32H62.229V153.251H63.334V163.001H62.229V158.334H56.587V163.001ZM66.8447 163.001H65.8697V156.605H66.8447V161.506L70.2507 156.605H71.2257V163.001H70.2507V158.1L66.8447 163.001ZM73.3599 163.001V156.605H74.3739V159.153H75.3229L77.5069 156.605H78.7159L76.1289 159.608L78.9369 163.001H77.6889L75.2709 160.141H74.3739V163.001H73.3599ZM84.9641 163.001H84.0281L84.0021 161.727C83.7507 162.169 83.4127 162.511 82.9881 162.754C82.5721 162.988 82.1041 163.105 81.5841 163.105C80.9687 163.105 80.4791 162.945 80.1151 162.624C79.7511 162.303 79.5691 161.874 79.5691 161.337C79.5691 160.817 79.7597 160.392 80.1411 160.063C80.5224 159.734 81.1854 159.448 82.1301 159.205L83.9761 158.763C83.9241 158.312 83.7551 157.97 83.4691 157.736C83.1917 157.493 82.8104 157.372 82.3251 157.372C81.8397 157.372 81.4454 157.48 81.1421 157.697C80.8387 157.914 80.6307 158.234 80.5181 158.659L79.5561 158.477C79.7034 157.862 80.0241 157.381 80.5181 157.034C81.0121 156.679 81.6187 156.501 82.3381 156.501C83.1527 156.501 83.7941 156.722 84.2621 157.164C84.7301 157.606 84.9641 158.217 84.9641 158.997V163.001ZM80.6351 161.246C80.6351 161.549 80.7347 161.792 80.9341 161.974C81.1334 162.147 81.4021 162.234 81.7401 162.234C82.3814 162.234 82.9144 162.004 83.3391 161.545C83.7724 161.077 83.9891 160.475 83.9891 159.738V159.595L82.1431 160.05C81.5971 160.189 81.2071 160.353 80.9731 160.544C80.7477 160.726 80.6351 160.96 80.6351 161.246ZM86.9693 163.001V156.605H87.9833V159.153H88.9323L91.1163 156.605H92.3253L89.7383 159.608L92.5463 163.001H91.2983L88.8803 160.141H87.9833V163.001H86.9693ZM94.6474 163.001H93.6724V156.605H94.6474V161.506L98.0534 156.605H99.0284V163.001H98.0534V158.1L94.6474 163.001ZM100.253 156.605H101.462L103.152 158.958L104.751 156.605H105.895L103.724 159.738L106.064 163.001H104.868L103.048 160.479L101.358 163.001H100.253L102.476 159.686L100.253 156.605ZM110.139 165.016H109.164V162.117H109.762C110.013 161.874 110.191 161.515 110.295 161.038C110.399 160.561 110.473 159.82 110.516 158.815L110.594 156.605H115.157V162.117H116.028V165.016H115.04V163.001H110.139V165.016ZM111.556 157.489L111.504 158.776C111.469 159.643 111.396 160.345 111.283 160.882C111.179 161.411 111.027 161.822 110.828 162.117H114.143V157.489H111.556ZM116.906 159.79C116.906 158.837 117.218 158.052 117.842 157.437C118.466 156.813 119.254 156.501 120.208 156.501C121.161 156.501 121.95 156.813 122.574 157.437C123.198 158.052 123.51 158.837 123.51 159.79C123.51 160.752 123.198 161.545 122.574 162.169C121.95 162.793 121.161 163.105 120.208 163.105C119.254 163.105 118.466 162.793 117.842 162.169C117.218 161.545 116.906 160.752 116.906 159.79ZM122.444 159.79C122.444 159.097 122.236 158.533 121.82 158.1C121.404 157.658 120.866 157.437 120.208 157.437C119.549 157.437 119.012 157.658 118.596 158.1C118.18 158.533 117.972 159.097 117.972 159.79C117.972 160.492 118.18 161.064 118.596 161.506C119.012 161.948 119.549 162.169 120.208 162.169C120.866 162.169 121.404 161.948 121.82 161.506C122.236 161.064 122.444 160.492 122.444 159.79ZM126.145 163.001H125.131V156.605H130.461V163.001H129.434V157.489H126.145V163.001ZM132.089 159.79C132.089 158.837 132.401 158.052 133.025 157.437C133.649 156.813 134.438 156.501 135.391 156.501C136.345 156.501 137.133 156.813 137.757 157.437C138.381 158.052 138.693 158.837 138.693 159.79C138.693 160.752 138.381 161.545 137.757 162.169C137.133 162.793 136.345 163.105 135.391 163.105C134.438 163.105 133.649 162.793 133.025 162.169C132.401 161.545 132.089 160.752 132.089 159.79ZM137.627 159.79C137.627 159.097 137.419 158.533 137.003 158.1C136.587 157.658 136.05 157.437 135.391 157.437C134.733 157.437 134.195 157.658 133.779 158.1C133.363 158.533 133.155 159.097 133.155 159.79C133.155 160.492 133.363 161.064 133.779 161.506C134.195 161.948 134.733 162.169 135.391 162.169C136.05 162.169 136.587 161.948 137.003 161.506C137.419 161.064 137.627 160.492 137.627 159.79ZM139.288 163.014L139.418 162.143C139.47 162.152 139.513 162.16 139.548 162.169C139.583 162.169 139.617 162.169 139.652 162.169C140.016 162.169 140.276 161.909 140.432 161.389C140.597 160.869 140.701 160.028 140.744 158.867L140.835 156.605H145.32V163.001H144.293V157.489H141.797L141.745 158.971C141.684 160.427 141.507 161.48 141.212 162.13C140.917 162.78 140.441 163.105 139.782 163.105C139.687 163.105 139.604 163.096 139.535 163.079C139.466 163.07 139.383 163.049 139.288 163.014ZM148.464 163.001H147.45V156.605H148.464V159.179H151.831V156.605H152.858V163.001H151.831V160.076H148.464V163.001ZM155.966 163.001H154.991V156.605H155.966V161.506L159.372 156.605H160.347V163.001H159.372V158.1L155.966 163.001ZM164.925 163.001H163.898V157.489H161.675V156.605H167.148V157.489H164.925V163.001ZM171.064 163.105C170.085 163.105 169.292 162.797 168.685 162.182C168.087 161.558 167.788 160.752 167.788 159.764C167.788 158.819 168.092 158.039 168.698 157.424C169.305 156.809 170.072 156.501 170.999 156.501C171.901 156.501 172.637 156.783 173.209 157.346C173.781 157.909 174.067 158.633 174.067 159.517C174.067 159.586 174.059 159.686 174.041 159.816C174.033 159.937 174.028 160.011 174.028 160.037H168.854C168.915 160.704 169.14 161.233 169.53 161.623C169.929 162.004 170.44 162.195 171.064 162.195C171.567 162.195 171.983 162.082 172.312 161.857C172.642 161.632 172.876 161.302 173.014 160.869L174.002 161.051C173.846 161.684 173.504 162.186 172.975 162.559C172.455 162.923 171.818 163.105 171.064 163.105ZM170.999 157.385C170.462 157.385 170.003 157.55 169.621 157.879C169.24 158.2 168.997 158.633 168.893 159.179H172.975C172.941 158.65 172.737 158.221 172.364 157.892C172 157.554 171.545 157.385 170.999 157.385ZM174.683 163.014L174.813 162.143C174.865 162.152 174.908 162.16 174.943 162.169C174.977 162.169 175.012 162.169 175.047 162.169C175.411 162.169 175.671 161.909 175.827 161.389C175.991 160.869 176.095 160.028 176.139 158.867L176.23 156.605H180.715V163.001H179.688V157.489H177.192L177.14 158.971C177.079 160.427 176.901 161.48 176.607 162.13C176.312 162.78 175.835 163.105 175.177 163.105C175.081 163.105 174.999 163.096 174.93 163.079C174.86 163.07 174.778 163.049 174.683 163.014ZM185.574 163.001H182.844V156.605H183.858V158.75H185.574C186.25 158.75 186.792 158.945 187.199 159.335C187.615 159.725 187.823 160.241 187.823 160.882C187.823 161.515 187.615 162.026 187.199 162.416C186.792 162.806 186.25 163.001 185.574 163.001ZM186.757 160.882C186.757 160.475 186.64 160.167 186.406 159.959C186.181 159.751 185.843 159.647 185.392 159.647H183.858V162.117H185.392C185.834 162.117 186.172 162.013 186.406 161.805C186.64 161.588 186.757 161.281 186.757 160.882ZM190.193 163.001H189.179V156.605H190.193V159.179H193.56V156.605H194.587V163.001H193.56V160.076H190.193V163.001ZM199.411 163.001H196.72V156.605H197.734V158.75H199.411C200.087 158.75 200.629 158.945 201.036 159.335C201.452 159.725 201.66 160.241 201.66 160.882C201.66 161.515 201.452 162.026 201.036 162.416C200.629 162.806 200.087 163.001 199.411 163.001ZM203.48 163.001H202.466V156.605H203.48V163.001ZM200.594 160.882C200.594 160.475 200.477 160.167 200.243 159.959C200.018 159.751 199.68 159.647 199.229 159.647H197.734V162.117H199.229C199.671 162.117 200.009 162.013 200.243 161.805C200.477 161.588 200.594 161.281 200.594 160.882ZM204.697 156.605H205.906L207.596 158.958L209.195 156.605H210.339L208.168 159.738L210.508 163.001H209.312L207.492 160.479L205.802 163.001H204.697L206.92 159.686L204.697 156.605ZM215.571 163.001H214.557V156.605H219.887V163.001H218.86V157.489H215.571V163.001ZM220.995 163.014L221.125 162.143C221.177 162.152 221.22 162.16 221.255 162.169C221.29 162.169 221.324 162.169 221.359 162.169C221.723 162.169 221.983 161.909 222.139 161.389C222.304 160.869 222.408 160.028 222.451 158.867L222.542 156.605H227.027V163.001H226V157.489H223.504L223.452 158.971C223.391 160.427 223.214 161.48 222.919 162.13C222.624 162.78 222.148 163.105 221.489 163.105C221.394 163.105 221.311 163.096 221.242 163.079C221.173 163.07 221.09 163.049 220.995 163.014ZM234.058 163.001H233.122L233.096 161.727C232.844 162.169 232.506 162.511 232.082 162.754C231.666 162.988 231.198 163.105 230.678 163.105C230.062 163.105 229.573 162.945 229.209 162.624C228.845 162.303 228.663 161.874 228.663 161.337C228.663 160.817 228.853 160.392 229.235 160.063C229.616 159.734 230.279 159.448 231.224 159.205L233.07 158.763C233.018 158.312 232.849 157.97 232.563 157.736C232.285 157.493 231.904 157.372 231.419 157.372C230.933 157.372 230.539 157.48 230.236 157.697C229.932 157.914 229.724 158.234 229.612 158.659L228.65 158.477C228.797 157.862 229.118 157.381 229.612 157.034C230.106 156.679 230.712 156.501 231.432 156.501C232.246 156.501 232.888 156.722 233.356 157.164C233.824 157.606 234.058 158.217 234.058 158.997V163.001ZM229.729 161.246C229.729 161.549 229.828 161.792 230.028 161.974C230.227 162.147 230.496 162.234 230.834 162.234C231.475 162.234 232.008 162.004 232.433 161.545C232.866 161.077 233.083 160.475 233.083 159.738V159.595L231.237 160.05C230.691 160.189 230.301 160.353 230.067 160.544C229.841 160.726 229.729 160.96 229.729 161.246ZM238.507 163.001H237.48V157.489H235.257V156.605H240.73V157.489H238.507V163.001ZM244.647 163.105C243.667 163.105 242.874 162.797 242.268 162.182C241.67 161.558 241.371 160.752 241.371 159.764C241.371 158.819 241.674 158.039 242.281 157.424C242.887 156.809 243.654 156.501 244.582 156.501C245.483 156.501 246.22 156.783 246.792 157.346C247.364 157.909 247.65 158.633 247.65 159.517C247.65 159.586 247.641 159.686 247.624 159.816C247.615 159.937 247.611 160.011 247.611 160.037H242.437C242.497 160.704 242.723 161.233 243.113 161.623C243.511 162.004 244.023 162.195 244.647 162.195C245.149 162.195 245.565 162.082 245.895 161.857C246.224 161.632 246.458 161.302 246.597 160.869L247.585 161.051C247.429 161.684 247.086 162.186 246.558 162.559C246.038 162.923 245.401 163.105 244.647 163.105ZM244.582 157.385C244.044 157.385 243.585 157.55 243.204 157.879C242.822 158.2 242.58 158.633 242.476 159.179H246.558C246.523 158.65 246.319 158.221 245.947 157.892C245.583 157.554 245.128 157.385 244.582 157.385ZM248.384 156.605H249.541L251.348 159.192H252.193V156.605H253.168V159.192H254L255.833 156.605H256.977L254.78 159.595L257.146 163.001H255.976L253.961 160.102H253.168V163.001H252.193V160.102H251.387L249.359 163.001H248.228L250.568 159.66L248.384 156.605ZM260.77 163.105C259.79 163.105 258.997 162.797 258.391 162.182C257.793 161.558 257.494 160.752 257.494 159.764C257.494 158.819 257.797 158.039 258.404 157.424C259.01 156.809 259.777 156.501 260.705 156.501C261.606 156.501 262.343 156.783 262.915 157.346C263.487 157.909 263.773 158.633 263.773 159.517C263.773 159.586 263.764 159.686 263.747 159.816C263.738 159.937 263.734 160.011 263.734 160.037H258.56C258.62 160.704 258.846 161.233 259.236 161.623C259.634 162.004 260.146 162.195 260.77 162.195C261.272 162.195 261.688 162.082 262.018 161.857C262.347 161.632 262.581 161.302 262.72 160.869L263.708 161.051C263.552 161.684 263.209 162.186 262.681 162.559C262.161 162.923 261.524 163.105 260.77 163.105ZM260.705 157.385C260.167 157.385 259.708 157.55 259.327 157.879C258.945 158.2 258.703 158.633 258.599 159.179H262.681C262.646 158.65 262.442 158.221 262.07 157.892C261.706 157.554 261.251 157.385 260.705 157.385ZM268.145 154.72C268.465 154.72 268.717 154.638 268.899 154.473C269.081 154.3 269.176 154.057 269.185 153.745H270.082C270.082 154.282 269.904 154.716 269.549 155.045C269.193 155.366 268.725 155.526 268.145 155.526C267.564 155.526 267.096 155.366 266.741 155.045C266.394 154.724 266.216 154.291 266.208 153.745H267.118C267.118 154.048 267.209 154.287 267.391 154.46C267.573 154.633 267.824 154.72 268.145 154.72ZM266.39 163.001H265.415V156.605H266.39V161.506L269.796 156.605H270.771V163.001H269.796V158.1L266.39 163.001ZM274.955 159.673V158.698H287.435V159.673H274.955ZM291.618 163.001V156.605H292.632V159.153H293.581L295.765 156.605H296.974L294.387 159.608L297.195 163.001H295.947L293.529 160.141H292.632V163.001H291.618ZM303.222 163.001H302.286L302.26 161.727C302.009 162.169 301.671 162.511 301.246 162.754C300.83 162.988 300.362 163.105 299.842 163.105C299.227 163.105 298.737 162.945 298.373 162.624C298.009 162.303 297.827 161.874 297.827 161.337C297.827 160.817 298.018 160.392 298.399 160.063C298.78 159.734 299.443 159.448 300.388 159.205L302.234 158.763C302.182 158.312 302.013 157.97 301.727 157.736C301.45 157.493 301.068 157.372 300.583 157.372C300.098 157.372 299.703 157.48 299.4 157.697C299.097 157.914 298.889 158.234 298.776 158.659L297.814 158.477C297.961 157.862 298.282 157.381 298.776 157.034C299.27 156.679 299.877 156.501 300.596 156.501C301.411 156.501 302.052 156.722 302.52 157.164C302.988 157.606 303.222 158.217 303.222 158.997V163.001ZM298.893 161.246C298.893 161.549 298.993 161.792 299.192 161.974C299.391 162.147 299.66 162.234 299.998 162.234C300.639 162.234 301.172 162.004 301.597 161.545C302.03 161.077 302.247 160.475 302.247 159.738V159.595L300.401 160.05C299.855 160.189 299.465 160.353 299.231 160.544C299.006 160.726 298.893 160.96 298.893 161.246ZM305.227 163.001V156.605H306.241V159.153H307.19L309.374 156.605H310.583L307.996 159.608L310.804 163.001H309.556L307.138 160.141H306.241V163.001H305.227ZM314.28 159.79C314.28 158.837 314.592 158.052 315.216 157.437C315.84 156.813 316.628 156.501 317.582 156.501C318.535 156.501 319.324 156.813 319.948 157.437C320.572 158.052 320.884 158.837 320.884 159.79C320.884 160.752 320.572 161.545 319.948 162.169C319.324 162.793 318.535 163.105 317.582 163.105C316.628 163.105 315.84 162.793 315.216 162.169C314.592 161.545 314.28 160.752 314.28 159.79ZM319.818 159.79C319.818 159.097 319.61 158.533 319.194 158.1C318.778 157.658 318.24 157.437 317.582 157.437C316.923 157.437 316.386 157.658 315.97 158.1C315.554 158.533 315.346 159.097 315.346 159.79C315.346 160.492 315.554 161.064 315.97 161.506C316.386 161.948 316.923 162.169 317.582 162.169C318.24 162.169 318.778 161.948 319.194 161.506C319.61 161.064 319.818 160.492 319.818 159.79ZM328.771 159.79C328.771 160.769 328.464 161.567 327.848 162.182C327.242 162.797 326.449 163.105 325.469 163.105C324.395 163.105 323.563 162.728 322.973 161.974C322.393 161.22 322.102 160.145 322.102 158.75C322.102 157.06 322.419 155.79 323.051 154.941C323.684 154.083 324.672 153.585 326.015 153.446L327.042 153.329C327.25 153.312 327.432 153.29 327.588 153.264C327.744 153.238 327.931 153.199 328.147 153.147L328.264 154.031C328.143 154.074 328 154.113 327.835 154.148C327.679 154.174 327.415 154.209 327.042 154.252L325.976 154.369C325.032 154.473 324.334 154.807 323.883 155.37C323.433 155.933 323.173 156.778 323.103 157.905C323.381 157.454 323.749 157.112 324.208 156.878C324.668 156.635 325.183 156.514 325.755 156.514C326.631 156.514 327.35 156.822 327.913 157.437C328.485 158.052 328.771 158.837 328.771 159.79ZM327.705 159.79C327.705 159.079 327.502 158.507 327.094 158.074C326.696 157.632 326.167 157.411 325.508 157.411C324.841 157.411 324.295 157.636 323.87 158.087C323.446 158.529 323.233 159.097 323.233 159.79C323.233 160.492 323.441 161.064 323.857 161.506C324.273 161.948 324.811 162.169 325.469 162.169C326.128 162.169 326.665 161.948 327.081 161.506C327.497 161.064 327.705 160.492 327.705 159.79ZM333.093 163.001H330.402V156.605H331.416V158.75H333.093C333.769 158.75 334.311 158.945 334.718 159.335C335.134 159.725 335.342 160.241 335.342 160.882C335.342 161.515 335.134 162.026 334.718 162.416C334.311 162.806 333.769 163.001 333.093 163.001ZM337.162 163.001H336.148V156.605H337.162V163.001ZM334.276 160.882C334.276 160.475 334.159 160.167 333.925 159.959C333.7 159.751 333.362 159.647 332.911 159.647H331.416V162.117H332.911C333.353 162.117 333.691 162.013 333.925 161.805C334.159 161.588 334.276 161.281 334.276 160.882ZM341.265 160.622C340.459 160.622 339.848 160.44 339.432 160.076C339.016 159.703 338.808 159.157 338.808 158.438V156.605H339.822V158.308C339.822 158.776 339.956 159.131 340.225 159.374C340.502 159.608 340.905 159.725 341.434 159.725C341.685 159.725 341.919 159.708 342.136 159.673C342.361 159.638 342.617 159.582 342.903 159.504V156.605H343.93V163.001H342.903V160.375C342.591 160.462 342.309 160.527 342.058 160.57C341.806 160.605 341.542 160.622 341.265 160.622ZM347.082 163.001H346.068V156.605H347.082V159.179H350.449V156.605H351.476V163.001H350.449V160.076H347.082V163.001ZM358.51 163.001H357.574L357.548 161.727C357.297 162.169 356.959 162.511 356.534 162.754C356.118 162.988 355.65 163.105 355.13 163.105C354.515 163.105 354.025 162.945 353.661 162.624C353.297 162.303 353.115 161.874 353.115 161.337C353.115 160.817 353.306 160.392 353.687 160.063C354.068 159.734 354.731 159.448 355.676 159.205L357.522 158.763C357.47 158.312 357.301 157.97 357.015 157.736C356.738 157.493 356.356 157.372 355.871 157.372C355.386 157.372 354.991 157.48 354.688 157.697C354.385 157.914 354.177 158.234 354.064 158.659L353.102 158.477C353.249 157.862 353.57 157.381 354.064 157.034C354.558 156.679 355.165 156.501 355.884 156.501C356.699 156.501 357.34 156.722 357.808 157.164C358.276 157.606 358.51 158.217 358.51 158.997V163.001ZM354.181 161.246C354.181 161.549 354.281 161.792 354.48 161.974C354.679 162.147 354.948 162.234 355.286 162.234C355.927 162.234 356.46 162.004 356.885 161.545C357.318 161.077 357.535 160.475 357.535 159.738V159.595L355.689 160.05C355.143 160.189 354.753 160.353 354.519 160.544C354.294 160.726 354.181 160.96 354.181 161.246ZM360.177 158.568C360.177 157.987 360.364 157.515 360.736 157.151C361.109 156.787 361.59 156.605 362.179 156.605H365.286V163.001H364.285V160.492H362.855L360.983 163.001H359.839L361.763 160.427C361.278 160.349 360.892 160.145 360.606 159.816C360.32 159.478 360.177 159.062 360.177 158.568ZM361.243 158.542C361.243 158.897 361.347 159.17 361.555 159.361C361.763 159.543 362.062 159.634 362.452 159.634H364.285V157.45H362.465C362.075 157.45 361.772 157.545 361.555 157.736C361.347 157.918 361.243 158.187 361.243 158.542ZM369.771 159.79C369.771 158.837 370.083 158.052 370.707 157.437C371.331 156.813 372.12 156.501 373.073 156.501C374.026 156.501 374.815 156.813 375.439 157.437C376.063 158.052 376.375 158.837 376.375 159.79C376.375 160.752 376.063 161.545 375.439 162.169C374.815 162.793 374.026 163.105 373.073 163.105C372.12 163.105 371.331 162.793 370.707 162.169C370.083 161.545 369.771 160.752 369.771 159.79ZM375.309 159.79C375.309 159.097 375.101 158.533 374.685 158.1C374.269 157.658 373.732 157.437 373.073 157.437C372.414 157.437 371.877 157.658 371.461 158.1C371.045 158.533 370.837 159.097 370.837 159.79C370.837 160.492 371.045 161.064 371.461 161.506C371.877 161.948 372.414 162.169 373.073 162.169C373.732 162.169 374.269 161.948 374.685 161.506C375.101 161.064 375.309 160.492 375.309 159.79ZM379.011 163.001H377.997V156.605H383.327V163.001H382.3V157.489H379.011V163.001ZM384.435 163.014L384.565 162.143C384.617 162.152 384.66 162.16 384.695 162.169C384.729 162.169 384.764 162.169 384.799 162.169C385.163 162.169 385.423 161.909 385.579 161.389C385.743 160.869 385.847 160.028 385.891 158.867L385.982 156.605H390.467V163.001H389.44V157.489H386.944L386.892 158.971C386.831 160.427 386.653 161.48 386.359 162.13C386.064 162.78 385.587 163.105 384.929 163.105C384.833 163.105 384.751 163.096 384.682 163.079C384.612 163.07 384.53 163.049 384.435 163.014ZM397.497 163.001H396.561L396.535 161.727C396.284 162.169 395.946 162.511 395.521 162.754C395.105 162.988 394.637 163.105 394.117 163.105C393.502 163.105 393.012 162.945 392.648 162.624C392.284 162.303 392.102 161.874 392.102 161.337C392.102 160.817 392.293 160.392 392.674 160.063C393.056 159.734 393.719 159.448 394.663 159.205L396.509 158.763C396.457 158.312 396.288 157.97 396.002 157.736C395.725 157.493 395.344 157.372 394.858 157.372C394.373 157.372 393.979 157.48 393.675 157.697C393.372 157.914 393.164 158.234 393.051 158.659L392.089 158.477C392.237 157.862 392.557 157.381 393.051 157.034C393.545 156.679 394.152 156.501 394.871 156.501C395.686 156.501 396.327 156.722 396.795 157.164C397.263 157.606 397.497 158.217 397.497 158.997V163.001ZM393.168 161.246C393.168 161.549 393.268 161.792 393.467 161.974C393.667 162.147 393.935 162.234 394.273 162.234C394.915 162.234 395.448 162.004 395.872 161.545C396.306 161.077 396.522 160.475 396.522 159.738V159.595L394.676 160.05C394.13 160.189 393.74 160.353 393.506 160.544C393.281 160.726 393.168 160.96 393.168 161.246ZM401.947 163.001H400.92V157.489H398.697V156.605H404.17V157.489H401.947V163.001ZM410.396 163.001H409.46L409.434 161.727C409.182 162.169 408.844 162.511 408.42 162.754C408.004 162.988 407.536 163.105 407.016 163.105C406.4 163.105 405.911 162.945 405.547 162.624C405.183 162.303 405.001 161.874 405.001 161.337C405.001 160.817 405.191 160.392 405.573 160.063C405.954 159.734 406.617 159.448 407.562 159.205L409.408 158.763C409.356 158.312 409.187 157.97 408.901 157.736C408.623 157.493 408.242 157.372 407.757 157.372C407.271 157.372 406.877 157.48 406.574 157.697C406.27 157.914 406.062 158.234 405.95 158.659L404.988 158.477C405.135 157.862 405.456 157.381 405.95 157.034C406.444 156.679 407.05 156.501 407.77 156.501C408.584 156.501 409.226 156.722 409.694 157.164C410.162 157.606 410.396 158.217 410.396 158.997V163.001ZM406.067 161.246C406.067 161.549 406.166 161.792 406.366 161.974C406.565 162.147 406.834 162.234 407.172 162.234C407.813 162.234 408.346 162.004 408.771 161.545C409.204 161.077 409.421 160.475 409.421 159.738V159.595L407.575 160.05C407.029 160.189 406.639 160.353 406.405 160.544C406.179 160.726 406.067 160.96 406.067 161.246ZM415.257 163.001V156.605H416.271V159.153H417.22L419.404 156.605H420.613L418.026 159.608L420.834 163.001H419.586L417.168 160.141H416.271V163.001H415.257ZM426.862 163.001H425.926L425.9 161.727C425.648 162.169 425.31 162.511 424.886 162.754C424.47 162.988 424.002 163.105 423.482 163.105C422.866 163.105 422.377 162.945 422.013 162.624C421.649 162.303 421.467 161.874 421.467 161.337C421.467 160.817 421.657 160.392 422.039 160.063C422.42 159.734 423.083 159.448 424.028 159.205L425.874 158.763C425.822 158.312 425.653 157.97 425.367 157.736C425.089 157.493 424.708 157.372 424.223 157.372C423.737 157.372 423.343 157.48 423.04 157.697C422.736 157.914 422.528 158.234 422.416 158.659L421.454 158.477C421.601 157.862 421.922 157.381 422.416 157.034C422.91 156.679 423.516 156.501 424.236 156.501C425.05 156.501 425.692 156.722 426.16 157.164C426.628 157.606 426.862 158.217 426.862 158.997V163.001ZM422.533 161.246C422.533 161.549 422.632 161.792 422.832 161.974C423.031 162.147 423.3 162.234 423.638 162.234C424.279 162.234 424.812 162.004 425.237 161.545C425.67 161.077 425.887 160.475 425.887 159.738V159.595L424.041 160.05C423.495 160.189 423.105 160.353 422.871 160.544C422.645 160.726 422.533 160.96 422.533 161.246ZM428.867 165.861V156.605H429.842L429.868 157.71C430.145 157.32 430.483 157.021 430.882 156.813C431.289 156.605 431.731 156.501 432.208 156.501C433.1 156.501 433.841 156.813 434.431 157.437C435.02 158.061 435.315 158.845 435.315 159.79C435.315 160.743 435.02 161.536 434.431 162.169C433.841 162.793 433.1 163.105 432.208 163.105C431.731 163.105 431.293 163.005 430.895 162.806C430.496 162.598 430.158 162.303 429.881 161.922V165.861H428.867ZM434.249 159.79C434.249 159.097 434.045 158.533 433.638 158.1C433.23 157.658 432.706 157.437 432.065 157.437C431.423 157.437 430.899 157.658 430.492 158.1C430.084 158.533 429.881 159.097 429.881 159.79C429.881 160.492 430.084 161.064 430.492 161.506C430.899 161.948 431.423 162.169 432.065 162.169C432.706 162.169 433.23 161.948 433.638 161.506C434.045 161.064 434.249 160.492 434.249 159.79ZM439.385 163.001H438.358V157.489H436.135V156.605H441.608V157.489H439.385V163.001ZM442.248 159.79C442.248 158.837 442.56 158.052 443.184 157.437C443.808 156.813 444.597 156.501 445.55 156.501C446.504 156.501 447.292 156.813 447.916 157.437C448.54 158.052 448.852 158.837 448.852 159.79C448.852 160.752 448.54 161.545 447.916 162.169C447.292 162.793 446.504 163.105 445.55 163.105C444.597 163.105 443.808 162.793 443.184 162.169C442.56 161.545 442.248 160.752 442.248 159.79ZM447.786 159.79C447.786 159.097 447.578 158.533 447.162 158.1C446.746 157.658 446.209 157.437 445.55 157.437C444.892 157.437 444.354 157.658 443.938 158.1C443.522 158.533 443.314 159.097 443.314 159.79C443.314 160.492 443.522 161.064 443.938 161.506C444.354 161.948 444.892 162.169 445.55 162.169C446.209 162.169 446.746 161.948 447.162 161.506C447.578 161.064 447.786 160.492 447.786 159.79ZM453.204 154.72C453.525 154.72 453.776 154.638 453.958 154.473C454.14 154.3 454.236 154.057 454.244 153.745H455.141C455.141 154.282 454.964 154.716 454.608 155.045C454.253 155.366 453.785 155.526 453.204 155.526C452.624 155.526 452.156 155.366 451.8 155.045C451.454 154.724 451.276 154.291 451.267 153.745H452.177C452.177 154.048 452.268 154.287 452.45 154.46C452.632 154.633 452.884 154.72 453.204 154.72ZM451.449 163.001H450.474V156.605H451.449V161.506L454.855 156.605H455.83V163.001H454.855V158.1L451.449 163.001Z" fill="black"/>
<path d="M37.473 61.117C36.095 61.117 34.964 60.649 34.08 59.713C33.2047 58.7683 32.767 57.5723 32.767 56.125C32.767 54.695 33.209 53.5077 34.093 52.563C34.9857 51.6183 36.1123 51.146 37.473 51.146C38.565 51.146 39.488 51.445 40.242 52.043C41.0047 52.6323 41.4943 53.4297 41.711 54.435L40.606 54.721C40.4327 53.9237 40.0687 53.2997 39.514 52.849C38.968 52.3983 38.2877 52.173 37.473 52.173C36.4157 52.173 35.5577 52.5457 34.899 53.291C34.2403 54.0277 33.911 54.9723 33.911 56.125C33.911 57.2863 34.236 58.2397 34.886 58.985C35.5447 59.7217 36.407 60.09 37.473 60.09C38.3223 60.09 39.0373 59.856 39.618 59.388C40.2073 58.9113 40.5713 58.283 40.71 57.503L41.828 57.776C41.5853 58.816 41.0783 59.635 40.307 60.233C39.5357 60.8223 38.591 61.117 37.473 61.117ZM46.0801 61.104C45.1008 61.104 44.3078 60.7963 43.7011 60.181C43.1031 59.557 42.8041 58.751 42.8041 57.763C42.8041 56.8183 43.1075 56.0383 43.7141 55.423C44.3208 54.8077 45.0878 54.5 46.0151 54.5C46.9165 54.5 47.6531 54.7817 48.2251 55.345C48.7971 55.9083 49.0831 56.632 49.0831 57.516C49.0831 57.5853 49.0745 57.685 49.0571 57.815C49.0485 57.9363 49.0441 58.01 49.0441 58.036H43.8701C43.9308 58.7033 44.1561 59.232 44.5461 59.622C44.9448 60.0033 45.4561 60.194 46.0801 60.194C46.5828 60.194 46.9988 60.0813 47.3281 59.856C47.6575 59.6307 47.8915 59.3013 48.0301 58.868L49.0181 59.05C48.8621 59.6827 48.5198 60.1853 47.9911 60.558C47.4711 60.922 46.8341 61.104 46.0801 61.104ZM46.0151 55.384C45.4778 55.384 45.0185 55.5487 44.6371 55.878C44.2558 56.1987 44.0131 56.632 43.9091 57.178H47.9911C47.9565 56.6493 47.7528 56.2203 47.3801 55.891C47.0161 55.553 46.5611 55.384 46.0151 55.384ZM51.7392 61H50.7252V54.604H54.9762V55.488H51.7392V61ZM55.7914 57.789C55.7914 56.8357 56.1034 56.0513 56.7274 55.436C57.3514 54.812 58.1401 54.5 59.0934 54.5C60.0468 54.5 60.8354 54.812 61.4594 55.436C62.0834 56.0513 62.3954 56.8357 62.3954 57.789C62.3954 58.751 62.0834 59.544 61.4594 60.168C60.8354 60.792 60.0468 61.104 59.0934 61.104C58.1401 61.104 57.3514 60.792 56.7274 60.168C56.1034 59.544 55.7914 58.751 55.7914 57.789ZM61.3294 57.789C61.3294 57.0957 61.1214 56.5323 60.7054 56.099C60.2894 55.657 59.7521 55.436 59.0934 55.436C58.4348 55.436 57.8974 55.657 57.4814 56.099C57.0654 56.5323 56.8574 57.0957 56.8574 57.789C56.8574 58.491 57.0654 59.063 57.4814 59.505C57.8974 59.947 58.4348 60.168 59.0934 60.168C59.7521 60.168 60.2894 59.947 60.7054 59.505C61.1214 59.063 61.3294 58.491 61.3294 57.789ZM64.0432 63.015H63.0682V60.116H63.6662C63.9175 59.8733 64.0952 59.5137 64.1992 59.037C64.3032 58.5603 64.3768 57.8193 64.4202 56.814L64.4982 54.604H69.0612V60.116H69.9322V63.015H68.9442V61H64.0432V63.015ZM65.4602 55.488L65.4082 56.775C65.3735 57.6417 65.2998 58.3437 65.1872 58.881C65.0832 59.4097 64.9315 59.8213 64.7322 60.116H68.0472V55.488H65.4602ZM72.331 61H71.317V54.604H72.331V57.178H75.698V54.604H76.725V61H75.698V58.075H72.331V61ZM78.52 56.567C78.52 55.9863 78.7063 55.514 79.079 55.15C79.4517 54.786 79.9327 54.604 80.522 54.604H83.629V61H82.628V58.491H81.198L79.326 61H78.182L80.106 58.426C79.6207 58.348 79.235 58.1443 78.949 57.815C78.663 57.477 78.52 57.061 78.52 56.567ZM79.586 56.541C79.586 56.8963 79.69 57.1693 79.898 57.36C80.106 57.542 80.405 57.633 80.795 57.633H82.628V55.449H80.808C80.418 55.449 80.1147 55.5443 79.898 55.735C79.69 55.917 79.586 56.1857 79.586 56.541Z" fill="black" fill-opacity="0.6"/>
<path d="M204.251 57.217C203.133 57.217 202.279 56.9613 201.69 56.45C201.101 55.93 200.806 55.176 200.806 54.188V51.25H201.911V53.941C201.911 54.7123 202.11 55.28 202.509 55.644C202.916 56.008 203.549 56.19 204.407 56.19C204.823 56.19 205.222 56.151 205.603 56.073C205.984 55.995 206.383 55.8737 206.799 55.709V51.25H207.904V61H206.799V56.723C206.314 56.8963 205.863 57.022 205.447 57.1C205.04 57.178 204.641 57.217 204.251 57.217ZM213.217 61.104C212.238 61.104 211.445 60.7963 210.838 60.181C210.24 59.557 209.941 58.751 209.941 57.763C209.941 56.8183 210.244 56.0383 210.851 55.423C211.458 54.8077 212.225 54.5 213.152 54.5C214.053 54.5 214.79 54.7817 215.362 55.345C215.934 55.9083 216.22 56.632 216.22 57.516C216.22 57.5853 216.211 57.685 216.194 57.815C216.185 57.9363 216.181 58.01 216.181 58.036H211.007C211.068 58.7033 211.293 59.232 211.683 59.622C212.082 60.0033 212.593 60.194 213.217 60.194C213.72 60.194 214.136 60.0813 214.465 59.856C214.794 59.6307 215.028 59.3013 215.167 58.868L216.155 59.05C215.999 59.6827 215.657 60.1853 215.128 60.558C214.608 60.922 213.971 61.104 213.217 61.104ZM213.152 55.384C212.615 55.384 212.155 55.5487 211.774 55.878C211.393 56.1987 211.15 56.632 211.046 57.178H215.128C215.093 56.6493 214.89 56.2203 214.517 55.891C214.153 55.553 213.698 55.384 213.152 55.384ZM217.862 63.86V54.604H218.837L218.863 55.709C219.14 55.319 219.478 55.02 219.877 54.812C220.284 54.604 220.726 54.5 221.203 54.5C222.096 54.5 222.837 54.812 223.426 55.436C224.015 56.06 224.31 56.8443 224.31 57.789C224.31 58.7423 224.015 59.5353 223.426 60.168C222.837 60.792 222.096 61.104 221.203 61.104C220.726 61.104 220.289 61.0043 219.89 60.805C219.491 60.597 219.153 60.3023 218.876 59.921V63.86H217.862ZM223.244 57.789C223.244 57.0957 223.04 56.5323 222.633 56.099C222.226 55.657 221.701 55.436 221.06 55.436C220.419 55.436 219.894 55.657 219.487 56.099C219.08 56.5323 218.876 57.0957 218.876 57.789C218.876 58.491 219.08 59.063 219.487 59.505C219.894 59.947 220.419 60.168 221.06 60.168C221.701 60.168 222.226 59.947 222.633 59.505C223.04 59.063 223.244 58.491 223.244 57.789ZM228.705 61.104C227.726 61.104 226.933 60.7963 226.326 60.181C225.728 59.557 225.429 58.751 225.429 57.763C225.429 56.8183 225.732 56.0383 226.339 55.423C226.946 54.8077 227.713 54.5 228.64 54.5C229.541 54.5 230.278 54.7817 230.85 55.345C231.422 55.9083 231.708 56.632 231.708 57.516C231.708 57.5853 231.699 57.685 231.682 57.815C231.673 57.9363 231.669 58.01 231.669 58.036H226.495C226.556 58.7033 226.781 59.232 227.171 59.622C227.57 60.0033 228.081 60.194 228.705 60.194C229.208 60.194 229.624 60.0813 229.953 59.856C230.282 59.6307 230.516 59.3013 230.655 58.868L231.643 59.05C231.487 59.6827 231.145 60.1853 230.616 60.558C230.096 60.922 229.459 61.104 228.705 61.104ZM228.64 55.384C228.103 55.384 227.643 55.5487 227.262 55.878C226.881 56.1987 226.638 56.632 226.534 57.178H230.616C230.581 56.6493 230.378 56.2203 230.005 55.891C229.641 55.553 229.186 55.384 228.64 55.384ZM238.017 59.167C238.017 59.765 237.775 60.2373 237.289 60.584C236.804 60.9307 236.158 61.104 235.352 61.104C234.642 61.104 234.052 60.961 233.584 60.675C233.116 60.3803 232.8 59.96 232.635 59.414L233.636 59.115C233.74 59.479 233.94 59.7563 234.234 59.947C234.529 60.129 234.906 60.22 235.365 60.22C235.868 60.22 236.258 60.1247 236.535 59.934C236.813 59.7433 236.951 59.4703 236.951 59.115C236.951 58.8117 236.843 58.5733 236.626 58.4C236.41 58.2267 236.119 58.14 235.755 58.14H234.611V57.269H235.729C236.067 57.269 236.34 57.1867 236.548 57.022C236.756 56.8487 236.86 56.619 236.86 56.333C236.86 56.021 236.735 55.7827 236.483 55.618C236.241 55.4533 235.89 55.371 235.43 55.371C234.971 55.371 234.603 55.462 234.325 55.644C234.048 55.826 233.862 56.0947 233.766 56.45L232.804 56.229C232.952 55.683 233.255 55.2583 233.714 54.955C234.182 54.6517 234.767 54.5 235.469 54.5C236.206 54.5 236.795 54.6603 237.237 54.981C237.679 55.3017 237.9 55.7263 237.9 56.255C237.9 56.5843 237.805 56.8703 237.614 57.113C237.424 57.3557 237.155 57.5377 236.808 57.659C237.19 57.7543 237.484 57.9363 237.692 58.205C237.909 58.465 238.017 58.7857 238.017 59.167ZM243.673 59.973H248.379V61H242.178V60.09L245.116 57.048C245.853 56.3027 246.342 55.7177 246.585 55.293C246.836 54.8597 246.962 54.4263 246.962 53.993C246.962 53.447 246.784 53.005 246.429 52.667C246.082 52.329 245.627 52.16 245.064 52.16C244.501 52.16 244.033 52.3247 243.66 52.654C243.287 52.9747 243.058 53.4297 242.971 54.019L241.905 53.798C242.052 52.9747 242.412 52.329 242.984 51.861C243.565 51.3843 244.275 51.146 245.116 51.146C246 51.146 246.715 51.406 247.261 51.926C247.807 52.446 248.08 53.1263 248.08 53.967C248.08 54.4957 247.946 55.007 247.677 55.501C247.417 55.9863 246.854 56.6753 245.987 57.568L243.673 59.973ZM253.788 61H252.774V54.604H253.788V57.178H257.155V54.604H258.182V61H257.155V58.075H253.788V61ZM263.084 61.104C262.105 61.104 261.312 60.7963 260.705 60.181C260.107 59.557 259.808 58.751 259.808 57.763C259.808 56.8183 260.111 56.0383 260.718 55.423C261.325 54.8077 262.092 54.5 263.019 54.5C263.92 54.5 264.657 54.7817 265.229 55.345C265.801 55.9083 266.087 56.632 266.087 57.516C266.087 57.5853 266.078 57.685 266.061 57.815C266.052 57.9363 266.048 58.01 266.048 58.036H260.874C260.935 58.7033 261.16 59.232 261.55 59.622C261.949 60.0033 262.46 60.194 263.084 60.194C263.587 60.194 264.003 60.0813 264.332 59.856C264.661 59.6307 264.895 59.3013 265.034 58.868L266.022 59.05C265.866 59.6827 265.524 60.1853 264.995 60.558C264.475 60.922 263.838 61.104 263.084 61.104ZM263.019 55.384C262.482 55.384 262.022 55.5487 261.641 55.878C261.26 56.1987 261.017 56.632 260.913 57.178H264.995C264.96 56.6493 264.757 56.2203 264.384 55.891C264.02 55.553 263.565 55.384 263.019 55.384ZM267.755 63.015H266.78V60.116H267.378C267.629 59.8733 267.807 59.5137 267.911 59.037C268.015 58.5603 268.089 57.8193 268.132 56.814L268.21 54.604H272.773V60.116H273.644V63.015H272.656V61H267.755V63.015ZM269.172 55.488L269.12 56.775C269.085 57.6417 269.012 58.3437 268.899 58.881C268.795 59.4097 268.643 59.8213 268.444 60.116H271.759V55.488H269.172ZM277.798 61.104C276.819 61.104 276.026 60.7963 275.419 60.181C274.821 59.557 274.522 58.751 274.522 57.763C274.522 56.8183 274.825 56.0383 275.432 55.423C276.039 54.8077 276.806 54.5 277.733 54.5C278.634 54.5 279.371 54.7817 279.943 55.345C280.515 55.9083 280.801 56.632 280.801 57.516C280.801 57.5853 280.792 57.685 280.775 57.815C280.766 57.9363 280.762 58.01 280.762 58.036H275.588C275.649 58.7033 275.874 59.232 276.264 59.622C276.663 60.0033 277.174 60.194 277.798 60.194C278.301 60.194 278.717 60.0813 279.046 59.856C279.375 59.6307 279.609 59.3013 279.748 58.868L280.736 59.05C280.58 59.6827 280.238 60.1853 279.709 60.558C279.189 60.922 278.552 61.104 277.798 61.104ZM277.733 55.384C277.196 55.384 276.736 55.5487 276.355 55.878C275.974 56.1987 275.731 56.632 275.627 57.178H279.709C279.674 56.6493 279.471 56.2203 279.098 55.891C278.734 55.553 278.279 55.384 277.733 55.384ZM281.416 61.013L281.546 60.142C281.598 60.1507 281.641 60.1593 281.676 60.168C281.711 60.168 281.745 60.168 281.78 60.168C282.144 60.168 282.404 59.908 282.56 59.388C282.725 58.868 282.829 58.0273 282.872 56.866L282.963 54.604H287.448V61H286.421V55.488H283.925L283.873 56.97C283.812 58.426 283.635 59.479 283.34 60.129C283.045 60.779 282.569 61.104 281.91 61.104C281.815 61.104 281.732 61.0953 281.663 61.078C281.594 61.0693 281.511 61.0477 281.416 61.013ZM290.553 61H289.578V54.604H290.553V59.505L293.959 54.604H294.934V61H293.959V56.099L290.553 61Z" fill="black" fill-opacity="0.6"/>
<path d="M372.251 57.217C371.133 57.217 370.279 56.9613 369.69 56.45C369.101 55.93 368.806 55.176 368.806 54.188V51.25H369.911V53.941C369.911 54.7123 370.11 55.28 370.509 55.644C370.916 56.008 371.549 56.19 372.407 56.19C372.823 56.19 373.222 56.151 373.603 56.073C373.984 55.995 374.383 55.8737 374.799 55.709V51.25H375.904V61H374.799V56.723C374.314 56.8963 373.863 57.022 373.447 57.1C373.04 57.178 372.641 57.217 372.251 57.217ZM381.217 61.104C380.238 61.104 379.445 60.7963 378.838 60.181C378.24 59.557 377.941 58.751 377.941 57.763C377.941 56.8183 378.244 56.0383 378.851 55.423C379.458 54.8077 380.225 54.5 381.152 54.5C382.053 54.5 382.79 54.7817 383.362 55.345C383.934 55.9083 384.22 56.632 384.22 57.516C384.22 57.5853 384.211 57.685 384.194 57.815C384.185 57.9363 384.181 58.01 384.181 58.036H379.007C379.068 58.7033 379.293 59.232 379.683 59.622C380.082 60.0033 380.593 60.194 381.217 60.194C381.72 60.194 382.136 60.0813 382.465 59.856C382.794 59.6307 383.028 59.3013 383.167 58.868L384.155 59.05C383.999 59.6827 383.657 60.1853 383.128 60.558C382.608 60.922 381.971 61.104 381.217 61.104ZM381.152 55.384C380.615 55.384 380.155 55.5487 379.774 55.878C379.393 56.1987 379.15 56.632 379.046 57.178H383.128C383.093 56.6493 382.89 56.2203 382.517 55.891C382.153 55.553 381.698 55.384 381.152 55.384ZM385.862 63.86V54.604H386.837L386.863 55.709C387.14 55.319 387.478 55.02 387.877 54.812C388.284 54.604 388.726 54.5 389.203 54.5C390.096 54.5 390.837 54.812 391.426 55.436C392.015 56.06 392.31 56.8443 392.31 57.789C392.31 58.7423 392.015 59.5353 391.426 60.168C390.837 60.792 390.096 61.104 389.203 61.104C388.726 61.104 388.289 61.0043 387.89 60.805C387.491 60.597 387.153 60.3023 386.876 59.921V63.86H385.862ZM391.244 57.789C391.244 57.0957 391.04 56.5323 390.633 56.099C390.226 55.657 389.701 55.436 389.06 55.436C388.419 55.436 387.894 55.657 387.487 56.099C387.08 56.5323 386.876 57.0957 386.876 57.789C386.876 58.491 387.08 59.063 387.487 59.505C387.894 59.947 388.419 60.168 389.06 60.168C389.701 60.168 390.226 59.947 390.633 59.505C391.04 59.063 391.244 58.491 391.244 57.789ZM396.705 61.104C395.726 61.104 394.933 60.7963 394.326 60.181C393.728 59.557 393.429 58.751 393.429 57.763C393.429 56.8183 393.732 56.0383 394.339 55.423C394.946 54.8077 395.713 54.5 396.64 54.5C397.541 54.5 398.278 54.7817 398.85 55.345C399.422 55.9083 399.708 56.632 399.708 57.516C399.708 57.5853 399.699 57.685 399.682 57.815C399.673 57.9363 399.669 58.01 399.669 58.036H394.495C394.556 58.7033 394.781 59.232 395.171 59.622C395.57 60.0033 396.081 60.194 396.705 60.194C397.208 60.194 397.624 60.0813 397.953 59.856C398.282 59.6307 398.516 59.3013 398.655 58.868L399.643 59.05C399.487 59.6827 399.145 60.1853 398.616 60.558C398.096 60.922 397.459 61.104 396.705 61.104ZM396.64 55.384C396.103 55.384 395.643 55.5487 395.262 55.878C394.881 56.1987 394.638 56.632 394.534 57.178H398.616C398.581 56.6493 398.378 56.2203 398.005 55.891C397.641 55.553 397.186 55.384 396.64 55.384ZM406.017 59.167C406.017 59.765 405.775 60.2373 405.289 60.584C404.804 60.9307 404.158 61.104 403.352 61.104C402.642 61.104 402.052 60.961 401.584 60.675C401.116 60.3803 400.8 59.96 400.635 59.414L401.636 59.115C401.74 59.479 401.94 59.7563 402.234 59.947C402.529 60.129 402.906 60.22 403.365 60.22C403.868 60.22 404.258 60.1247 404.535 59.934C404.813 59.7433 404.951 59.4703 404.951 59.115C404.951 58.8117 404.843 58.5733 404.626 58.4C404.41 58.2267 404.119 58.14 403.755 58.14H402.611V57.269H403.729C404.067 57.269 404.34 57.1867 404.548 57.022C404.756 56.8487 404.86 56.619 404.86 56.333C404.86 56.021 404.735 55.7827 404.483 55.618C404.241 55.4533 403.89 55.371 403.43 55.371C402.971 55.371 402.603 55.462 402.325 55.644C402.048 55.826 401.862 56.0947 401.766 56.45L400.804 56.229C400.952 55.683 401.255 55.2583 401.714 54.955C402.182 54.6517 402.767 54.5 403.469 54.5C404.206 54.5 404.795 54.6603 405.237 54.981C405.679 55.3017 405.9 55.7263 405.9 56.255C405.9 56.5843 405.805 56.8703 405.614 57.113C405.424 57.3557 405.155 57.5377 404.808 57.659C405.19 57.7543 405.484 57.9363 405.692 58.205C405.909 58.465 406.017 58.7857 406.017 59.167ZM415.638 61H414.546V58.647H409.801V57.698L414.208 51.25H415.638V57.646H416.977V58.647H415.638V61ZM414.546 52.446L410.958 57.646H414.546V52.446ZM422.245 61H421.231V54.604H422.245V57.178H425.612V54.604H426.639V61H425.612V58.075H422.245V61ZM431.541 61.104C430.562 61.104 429.769 60.7963 429.162 60.181C428.564 59.557 428.265 58.751 428.265 57.763C428.265 56.8183 428.568 56.0383 429.175 55.423C429.782 54.8077 430.549 54.5 431.476 54.5C432.377 54.5 433.114 54.7817 433.686 55.345C434.258 55.9083 434.544 56.632 434.544 57.516C434.544 57.5853 434.535 57.685 434.518 57.815C434.509 57.9363 434.505 58.01 434.505 58.036H429.331C429.392 58.7033 429.617 59.232 430.007 59.622C430.406 60.0033 430.917 60.194 431.541 60.194C432.044 60.194 432.46 60.0813 432.789 59.856C433.118 59.6307 433.352 59.3013 433.491 58.868L434.479 59.05C434.323 59.6827 433.981 60.1853 433.452 60.558C432.932 60.922 432.295 61.104 431.541 61.104ZM431.476 55.384C430.939 55.384 430.479 55.5487 430.098 55.878C429.717 56.1987 429.474 56.632 429.37 57.178H433.452C433.417 56.6493 433.214 56.2203 432.841 55.891C432.477 55.553 432.022 55.384 431.476 55.384ZM436.212 63.015H435.237V60.116H435.835C436.086 59.8733 436.264 59.5137 436.368 59.037C436.472 58.5603 436.546 57.8193 436.589 56.814L436.667 54.604H441.23V60.116H442.101V63.015H441.113V61H436.212V63.015ZM437.629 55.488L437.577 56.775C437.542 57.6417 437.469 58.3437 437.356 58.881C437.252 59.4097 437.1 59.8213 436.901 60.116H440.216V55.488H437.629ZM446.255 61.104C445.276 61.104 444.483 60.7963 443.876 60.181C443.278 59.557 442.979 58.751 442.979 57.763C442.979 56.8183 443.282 56.0383 443.889 55.423C444.496 54.8077 445.263 54.5 446.19 54.5C447.091 54.5 447.828 54.7817 448.4 55.345C448.972 55.9083 449.258 56.632 449.258 57.516C449.258 57.5853 449.249 57.685 449.232 57.815C449.223 57.9363 449.219 58.01 449.219 58.036H444.045C444.106 58.7033 444.331 59.232 444.721 59.622C445.12 60.0033 445.631 60.194 446.255 60.194C446.758 60.194 447.174 60.0813 447.503 59.856C447.832 59.6307 448.066 59.3013 448.205 58.868L449.193 59.05C449.037 59.6827 448.695 60.1853 448.166 60.558C447.646 60.922 447.009 61.104 446.255 61.104ZM446.19 55.384C445.653 55.384 445.193 55.5487 444.812 55.878C444.431 56.1987 444.188 56.632 444.084 57.178H448.166C448.131 56.6493 447.928 56.2203 447.555 55.891C447.191 55.553 446.736 55.384 446.19 55.384ZM449.873 61.013L450.003 60.142C450.055 60.1507 450.098 60.1593 450.133 60.168C450.168 60.168 450.202 60.168 450.237 60.168C450.601 60.168 450.861 59.908 451.017 59.388C451.182 58.868 451.286 58.0273 451.329 56.866L451.42 54.604H455.905V61H454.878V55.488H452.382L452.33 56.97C452.269 58.426 452.092 59.479 451.797 60.129C451.502 60.779 451.026 61.104 450.367 61.104C450.272 61.104 450.189 61.0953 450.12 61.078C450.051 61.0693 449.968 61.0477 449.873 61.013ZM459.01 61H458.035V54.604H459.01V59.505L462.416 54.604H463.391V61H462.416V56.099L459.01 61Z" fill="black" fill-opacity="0.6"/>
<path d="M540.251 57.217C539.133 57.217 538.279 56.9613 537.69 56.45C537.101 55.93 536.806 55.176 536.806 54.188V51.25H537.911V53.941C537.911 54.7123 538.11 55.28 538.509 55.644C538.916 56.008 539.549 56.19 540.407 56.19C540.823 56.19 541.222 56.151 541.603 56.073C541.984 55.995 542.383 55.8737 542.799 55.709V51.25H543.904V61H542.799V56.723C542.314 56.8963 541.863 57.022 541.447 57.1C541.04 57.178 540.641 57.217 540.251 57.217ZM549.217 61.104C548.238 61.104 547.445 60.7963 546.838 60.181C546.24 59.557 545.941 58.751 545.941 57.763C545.941 56.8183 546.244 56.0383 546.851 55.423C547.458 54.8077 548.225 54.5 549.152 54.5C550.053 54.5 550.79 54.7817 551.362 55.345C551.934 55.9083 552.22 56.632 552.22 57.516C552.22 57.5853 552.211 57.685 552.194 57.815C552.185 57.9363 552.181 58.01 552.181 58.036H547.007C547.068 58.7033 547.293 59.232 547.683 59.622C548.082 60.0033 548.593 60.194 549.217 60.194C549.72 60.194 550.136 60.0813 550.465 59.856C550.794 59.6307 551.028 59.3013 551.167 58.868L552.155 59.05C551.999 59.6827 551.657 60.1853 551.128 60.558C550.608 60.922 549.971 61.104 549.217 61.104ZM549.152 55.384C548.615 55.384 548.155 55.5487 547.774 55.878C547.393 56.1987 547.15 56.632 547.046 57.178H551.128C551.093 56.6493 550.89 56.2203 550.517 55.891C550.153 55.553 549.698 55.384 549.152 55.384ZM553.862 63.86V54.604H554.837L554.863 55.709C555.14 55.319 555.478 55.02 555.877 54.812C556.284 54.604 556.726 54.5 557.203 54.5C558.096 54.5 558.837 54.812 559.426 55.436C560.015 56.06 560.31 56.8443 560.31 57.789C560.31 58.7423 560.015 59.5353 559.426 60.168C558.837 60.792 558.096 61.104 557.203 61.104C556.726 61.104 556.289 61.0043 555.89 60.805C555.491 60.597 555.153 60.3023 554.876 59.921V63.86H553.862ZM559.244 57.789C559.244 57.0957 559.04 56.5323 558.633 56.099C558.226 55.657 557.701 55.436 557.06 55.436C556.419 55.436 555.894 55.657 555.487 56.099C555.08 56.5323 554.876 57.0957 554.876 57.789C554.876 58.491 555.08 59.063 555.487 59.505C555.894 59.947 556.419 60.168 557.06 60.168C557.701 60.168 558.226 59.947 558.633 59.505C559.04 59.063 559.244 58.491 559.244 57.789ZM564.705 61.104C563.726 61.104 562.933 60.7963 562.326 60.181C561.728 59.557 561.429 58.751 561.429 57.763C561.429 56.8183 561.732 56.0383 562.339 55.423C562.946 54.8077 563.713 54.5 564.64 54.5C565.541 54.5 566.278 54.7817 566.85 55.345C567.422 55.9083 567.708 56.632 567.708 57.516C567.708 57.5853 567.699 57.685 567.682 57.815C567.673 57.9363 567.669 58.01 567.669 58.036H562.495C562.556 58.7033 562.781 59.232 563.171 59.622C563.57 60.0033 564.081 60.194 564.705 60.194C565.208 60.194 565.624 60.0813 565.953 59.856C566.282 59.6307 566.516 59.3013 566.655 58.868L567.643 59.05C567.487 59.6827 567.145 60.1853 566.616 60.558C566.096 60.922 565.459 61.104 564.705 61.104ZM564.64 55.384C564.103 55.384 563.643 55.5487 563.262 55.878C562.881 56.1987 562.638 56.632 562.534 57.178H566.616C566.581 56.6493 566.378 56.2203 566.005 55.891C565.641 55.553 565.186 55.384 564.64 55.384ZM574.017 59.167C574.017 59.765 573.775 60.2373 573.289 60.584C572.804 60.9307 572.158 61.104 571.352 61.104C570.642 61.104 570.052 60.961 569.584 60.675C569.116 60.3803 568.8 59.96 568.635 59.414L569.636 59.115C569.74 59.479 569.94 59.7563 570.234 59.947C570.529 60.129 570.906 60.22 571.365 60.22C571.868 60.22 572.258 60.1247 572.535 59.934C572.813 59.7433 572.951 59.4703 572.951 59.115C572.951 58.8117 572.843 58.5733 572.626 58.4C572.41 58.2267 572.119 58.14 571.755 58.14H570.611V57.269H571.729C572.067 57.269 572.34 57.1867 572.548 57.022C572.756 56.8487 572.86 56.619 572.86 56.333C572.86 56.021 572.735 55.7827 572.483 55.618C572.241 55.4533 571.89 55.371 571.43 55.371C570.971 55.371 570.603 55.462 570.325 55.644C570.048 55.826 569.862 56.0947 569.766 56.45L568.804 56.229C568.952 55.683 569.255 55.2583 569.714 54.955C570.182 54.6517 570.767 54.5 571.469 54.5C572.206 54.5 572.795 54.6603 573.237 54.981C573.679 55.3017 573.9 55.7263 573.9 56.255C573.9 56.5843 573.805 56.8703 573.614 57.113C573.424 57.3557 573.155 57.5377 572.808 57.659C573.19 57.7543 573.484 57.9363 573.692 58.205C573.909 58.465 574.017 58.7857 574.017 59.167ZM584.639 57.893C584.639 58.8377 584.323 59.609 583.69 60.207C583.057 60.805 582.251 61.104 581.272 61.104C580.319 61.104 579.534 60.818 578.919 60.246C578.312 59.674 578.009 58.9373 578.009 58.036C578.009 57.6373 578.07 57.243 578.191 56.853C578.321 56.463 578.512 56.0817 578.763 55.709L581.701 51.25H582.949L580.453 54.994C580.618 54.942 580.787 54.903 580.96 54.877C581.133 54.8423 581.302 54.825 581.467 54.825C582.394 54.825 583.153 55.111 583.742 55.683C584.34 56.255 584.639 56.9917 584.639 57.893ZM579.127 57.971C579.127 58.5863 579.326 59.0933 579.725 59.492C580.132 59.882 580.652 60.077 581.285 60.077C581.935 60.077 582.468 59.8733 582.884 59.466C583.3 59.0587 583.508 58.5343 583.508 57.893C583.508 57.269 583.3 56.7577 582.884 56.359C582.477 55.9603 581.948 55.761 581.298 55.761C580.995 55.761 580.709 55.813 580.44 55.917C580.171 56.021 579.937 56.1727 579.738 56.372C579.539 56.58 579.387 56.8183 579.283 57.087C579.179 57.3557 579.127 57.6503 579.127 57.971ZM590.067 61H589.053V54.604H590.067V57.178H593.434V54.604H594.461V61H593.434V58.075H590.067V61ZM599.363 61.104C598.384 61.104 597.591 60.7963 596.984 60.181C596.386 59.557 596.087 58.751 596.087 57.763C596.087 56.8183 596.391 56.0383 596.997 55.423C597.604 54.8077 598.371 54.5 599.298 54.5C600.2 54.5 600.936 54.7817 601.508 55.345C602.08 55.9083 602.366 56.632 602.366 57.516C602.366 57.5853 602.358 57.685 602.34 57.815C602.332 57.9363 602.327 58.01 602.327 58.036H597.153C597.214 58.7033 597.439 59.232 597.829 59.622C598.228 60.0033 598.739 60.194 599.363 60.194C599.866 60.194 600.282 60.0813 600.611 59.856C600.941 59.6307 601.175 59.3013 601.313 58.868L602.301 59.05C602.145 59.6827 601.803 60.1853 601.274 60.558C600.754 60.922 600.117 61.104 599.363 61.104ZM599.298 55.384C598.761 55.384 598.302 55.5487 597.92 55.878C597.539 56.1987 597.296 56.632 597.192 57.178H601.274C601.24 56.6493 601.036 56.2203 600.663 55.891C600.299 55.553 599.844 55.384 599.298 55.384ZM604.034 63.015H603.059V60.116H603.657C603.909 59.8733 604.086 59.5137 604.19 59.037C604.294 58.5603 604.368 57.8193 604.411 56.814L604.489 54.604H609.052V60.116H609.923V63.015H608.935V61H604.034V63.015ZM605.451 55.488L605.399 56.775C605.365 57.6417 605.291 58.3437 605.178 58.881C605.074 59.4097 604.923 59.8213 604.723 60.116H608.038V55.488H605.451ZM614.077 61.104C613.098 61.104 612.305 60.7963 611.698 60.181C611.1 59.557 610.801 58.751 610.801 57.763C610.801 56.8183 611.105 56.0383 611.711 55.423C612.318 54.8077 613.085 54.5 614.012 54.5C614.914 54.5 615.65 54.7817 616.222 55.345C616.794 55.9083 617.08 56.632 617.08 57.516C617.08 57.5853 617.072 57.685 617.054 57.815C617.046 57.9363 617.041 58.01 617.041 58.036H611.867C611.928 58.7033 612.153 59.232 612.543 59.622C612.942 60.0033 613.453 60.194 614.077 60.194C614.58 60.194 614.996 60.0813 615.325 59.856C615.655 59.6307 615.889 59.3013 616.027 58.868L617.015 59.05C616.859 59.6827 616.517 60.1853 615.988 60.558C615.468 60.922 614.831 61.104 614.077 61.104ZM614.012 55.384C613.475 55.384 613.016 55.5487 612.634 55.878C612.253 56.1987 612.01 56.632 611.906 57.178H615.988C615.954 56.6493 615.75 56.2203 615.377 55.891C615.013 55.553 614.558 55.384 614.012 55.384ZM617.695 61.013L617.825 60.142C617.877 60.1507 617.921 60.1593 617.955 60.168C617.99 60.168 618.025 60.168 618.059 60.168C618.423 60.168 618.683 59.908 618.839 59.388C619.004 58.868 619.108 58.0273 619.151 56.866L619.242 54.604H623.727V61H622.7V55.488H620.204L620.152 56.97C620.092 58.426 619.914 59.479 619.619 60.129C619.325 60.779 618.848 61.104 618.189 61.104C618.094 61.104 618.012 61.0953 617.942 61.078C617.873 61.0693 617.791 61.0477 617.695 61.013ZM628.587 61H625.857V54.604H626.871V56.749H628.587C629.263 56.749 629.805 56.944 630.212 57.334C630.628 57.724 630.836 58.2397 630.836 58.881C630.836 59.5137 630.628 60.025 630.212 60.415C629.805 60.805 629.263 61 628.587 61ZM629.77 58.881C629.77 58.4737 629.653 58.166 629.419 57.958C629.194 57.75 628.856 57.646 628.405 57.646H626.871V60.116H628.405C628.847 60.116 629.185 60.012 629.419 59.804C629.653 59.5873 629.77 59.2797 629.77 58.881Z" fill="black" fill-opacity="0.6"/>
<rect width="138" height="1" transform="matrix(1 0 0 -1 56 92.001)" fill="#C7C9CC"/>
<rect width="138" height="1" transform="matrix(1 0 0 -1 224 92.001)" fill="#C7C9CC"/>
<rect width="138" height="1" transform="matrix(1 0 0 -1 392 92.001)" fill="#C7C9CC"/>
<circle cx="41" cy="91.001" r="8.25" stroke="#6FADAA" stroke-width="1.5"/>
<circle cx="41" cy="91.001" r="8.25" stroke="#6FADAA" stroke-width="1.5"/>
<rect x="32" y="91.001" width="18" height="9" fill="#F6F7F8"/>
<rect x="32" y="82.001" width="9" height="18" fill="#F6F7F8"/>
<circle cx="41" cy="91.001" r="4" fill="#242424"/>
<circle cx="209" cy="91.001" r="8.25" stroke="#6FADAA" stroke-width="1.5"/>
<rect x="200" y="82.001" width="9" height="18" fill="#F6F7F8"/>
<circle cx="209" cy="91.001" r="4" fill="#242424"/>
<circle cx="377" cy="91.001" r="8.25" stroke="#6FADAA" stroke-width="1.5"/>
<rect x="368" y="82.001" width="9" height="9" fill="#F6F7F8"/>
<circle cx="377" cy="91.001" r="4" fill="#242424"/>
<circle cx="545" cy="91.001" r="8.25" stroke="#6FADAA" stroke-width="1.5"/>
<path fill-rule="evenodd" clip-rule="evenodd" d="M544.114 92.175L542.331 90.6894C542.001 90.4143 541.496 90.4421 541.202 90.7517C540.909 91.0613 540.938 91.5354 541.269 91.8106L543.669 93.8105C544.006 94.092 544.525 94.0555 544.815 93.7301L548.815 89.2301C549.097 88.9119 549.052 88.439 548.712 88.1739C548.373 87.9087 547.868 87.9517 547.585 88.2699L544.114 92.175Z" fill="#6FADAA"/>
</svg>
