<svg viewBox="0 0 520 192" fill="none" xmlns="http://www.w3.org/2000/svg" class="digi-dolyame-modal__body-image"><path fill="#F6F7F8" d="M0 .001h520v192H0z"/><path d="M34.587 61h-1.105v-9.75h7.696V61h-1.105v-8.736h-5.486V61Zm8.103.013.13-.871c.052.009.096.017.13.026h.104c.364 0 .624-.26.78-.78.165-.52.269-1.36.312-2.522l.091-2.262h4.485V61h-1.027v-5.512H45.2l-.052 1.482c-.06 1.456-.238 2.509-.533 3.159-.294.65-.771.975-1.43.975a1.03 1.03 0 0 1-.247-.026 1.165 1.165 0 0 1-.247-.065ZM55.753 61h-.936l-.026-1.274c-.251.442-.59.784-1.014 1.027a2.814 2.814 0 0 1-1.404.351c-.615 0-1.105-.16-1.469-.481-.364-.32-.546-.75-.546-1.287 0-.52.19-.945.572-1.274.382-.33 1.044-.615 1.99-.858l1.845-.442c-.052-.45-.22-.793-.507-1.027-.277-.243-.659-.364-1.144-.364-.485 0-.88.108-1.183.325-.303.217-.511.537-.624.962l-.962-.182c.148-.615.468-1.096.962-1.443.494-.355 1.1-.533 1.82-.533.815 0 1.456.221 1.924.663.468.442.702 1.053.702 1.833V61Zm-4.329-1.755c0 .303.1.546.3.728.199.173.467.26.805.26.641 0 1.174-.23 1.6-.689.433-.468.65-1.07.65-1.807v-.143l-1.847.455c-.546.139-.936.303-1.17.494a.862.862 0 0 0-.338.702ZM60.202 61h-1.027v-5.512h-2.223v-.884h5.473v.884h-2.223V61Zm6.14.104c-.98 0-1.772-.308-2.38-.923-.597-.624-.896-1.43-.896-2.418 0-.945.303-1.725.91-2.34.606-.615 1.374-.923 2.3-.923.902 0 1.639.282 2.21.845.573.563.859 1.287.859 2.171 0 .07-.009.169-.026.299a4.893 4.893 0 0 0-.013.221h-5.174c.06.667.286 1.196.676 1.586.398.381.91.572 1.534.572.502 0 .918-.113 1.248-.338.33-.225.563-.555.702-.988l.988.182a2.527 2.527 0 0 1-1.027 1.508c-.52.364-1.157.546-1.911.546Zm-.065-5.72c-.537 0-.997.165-1.378.494-.382.32-.624.754-.728 1.3h4.082c-.035-.529-.239-.958-.611-1.287-.364-.338-.82-.507-1.365-.507Zm3.802-.78h1.157l1.807 2.587h.845v-2.587h.975v2.587h.832l1.833-2.587h1.144l-2.197 2.99L78.841 61h-1.17l-2.015-2.899h-.793V61h-.975v-2.899h-.806L71.054 61h-1.131l2.34-3.341-2.184-3.055Zm15.495 6.5c-.927 0-1.699-.316-2.314-.949-.607-.633-.91-1.43-.91-2.392 0-.936.303-1.712.91-2.327.615-.624 1.387-.936 2.314-.936.763 0 1.404.204 1.924.611.529.399.871.945 1.027 1.638l-1.04.182c-.113-.468-.338-.832-.676-1.092-.338-.269-.75-.403-1.235-.403-.633 0-1.153.217-1.56.65-.399.433-.598.992-.598 1.677 0 .71.2 1.291.598 1.742.407.442.927.663 1.56.663.511 0 .94-.139 1.287-.416.347-.277.572-.663.676-1.157l1.027.169a2.657 2.657 0 0 1-1.014 1.69c-.546.433-1.205.65-1.976.65Zm7.212 0c-.98 0-1.772-.308-2.379-.923-.598-.624-.897-1.43-.897-2.418 0-.945.303-1.725.91-2.34.607-.615 1.374-.923 2.301-.923.901 0 1.638.282 2.21.845.572.563.858 1.287.858 2.171 0 .07-.008.169-.026.299a4.734 4.734 0 0 0-.013.221h-5.174c.06.667.286 1.196.676 1.586.399.381.91.572 1.534.572.503 0 .919-.113 1.248-.338.33-.225.563-.555.702-.988l.988.182a2.528 2.528 0 0 1-1.027 1.508c-.52.364-1.157.546-1.91.546Zm-.065-5.72c-.537 0-.996.165-1.378.494-.381.32-.624.754-.728 1.3h4.082c-.035-.529-.238-.958-.61-1.287-.365-.338-.82-.507-1.366-.507ZM98.445 61h-1.014v-6.396h4.251v.884h-3.237V61Zm4.052-3.211c0-.953.312-1.738.936-2.353.624-.624 1.413-.936 2.366-.936.954 0 1.742.312 2.366.936.624.615.936 1.4.936 2.353 0 .962-.312 1.755-.936 2.379-.624.624-1.412.936-2.366.936-.953 0-1.742-.312-2.366-.936-.624-.624-.936-1.417-.936-2.379Zm5.538 0c0-.693-.208-1.257-.624-1.69-.416-.442-.953-.663-1.612-.663-.658 0-1.196.221-1.612.663-.416.433-.624.997-.624 1.69 0 .702.208 1.274.624 1.716.416.442.954.663 1.612.663.659 0 1.196-.221 1.612-.663.416-.442.624-1.014.624-1.716Zm2.714 5.226h-.975v-2.899h.598c.252-.243.429-.602.533-1.079.104-.477.178-1.218.221-2.223l.078-2.21h4.563v5.512h.871v2.899h-.988V61h-4.901v2.015Zm1.417-7.527-.052 1.287c-.034.867-.108 1.569-.221 2.106-.104.529-.255.94-.455 1.235h3.315v-4.628h-2.587ZM119.037 61h-1.014v-6.396h1.014v2.574h3.367v-2.574h1.027V61h-1.027v-2.925h-3.367V61Zm6.189-4.433c0-.58.186-1.053.559-1.417.373-.364.854-.546 1.443-.546h3.107V61h-1.001v-2.509h-1.43L126.032 61h-1.144l1.924-2.574c-.485-.078-.871-.282-1.157-.611-.286-.338-.429-.754-.429-1.248Zm1.066-.026c0 .355.104.628.312.819.208.182.507.273.897.273h1.833v-2.184h-1.82c-.39 0-.693.095-.91.286-.208.182-.312.45-.312.806Z" fill="#000" fill-opacity=".6"/><path d="M68.135 37.425h4.98V39H65.81v-1.35l2.775-2.79c1-.98 1.67-1.735 2.01-2.265.35-.53.525-1.055.525-1.575 0-.57-.175-1.025-.525-1.365-.34-.35-.795-.525-1.365-.525s-1.05.175-1.44.525c-.38.34-.61.815-.69 1.425l-1.62-.315c.17-.98.595-1.75 1.275-2.31.69-.56 1.54-.84 2.55-.84 1.05 0 1.895.31 2.535.93.65.61.975 1.42.975 2.43 0 .66-.19 1.305-.57 1.935-.37.62-1.15 1.525-2.34 2.715l-1.77 1.8Zm10.35-5.76c1.08 0 1.955.34 2.625 1.02.68.67 1.02 1.545 1.02 2.625 0 1.13-.37 2.05-1.11 2.76-.73.71-1.69 1.065-2.88 1.065-1.03 0-1.895-.255-2.595-.765-.69-.52-1.12-1.245-1.29-2.175l1.65-.435c.09.59.335 1.045.735 1.365.4.32.9.48 1.5.48.69 0 1.245-.205 1.665-.615.42-.41.63-.955.63-1.635 0-.67-.21-1.215-.63-1.635-.41-.42-.945-.63-1.605-.63-.42 0-.8.08-1.14.24-.33.15-.585.36-.765.63l-1.365-.39.945-5.82h5.775v1.485h-4.44l-.48 2.85a3.71 3.71 0 0 1 1.755-.42Zm10.928-1.275c0 .81-.275 1.48-.825 2.01-.54.52-1.23.78-2.07.78-.84 0-1.535-.265-2.085-.795s-.825-1.195-.825-1.995.275-1.46.825-1.98c.55-.53 1.245-.795 2.085-.795.84 0 1.53.26 2.07.78.55.52.825 1.185.825 1.995Zm-2.895 1.56c.44 0 .805-.145 1.095-.435.3-.3.45-.675.45-1.125 0-.45-.15-.82-.45-1.11-.29-.3-.655-.45-1.095-.45-.45 0-.825.15-1.125.45-.29.29-.435.66-.435 1.11 0 .45.145.825.435 1.125.3.29.675.435 1.125.435Zm9.765 4.395c0 .81-.275 1.48-.825 2.01-.54.52-1.23.78-2.07.78-.84 0-1.535-.265-2.085-.795s-.825-1.195-.825-1.995.275-1.46.825-1.98c.55-.53 1.245-.795 2.085-.795.84 0 1.53.26 2.07.78.55.52.825 1.185.825 1.995Zm-2.895 1.56c.44 0 .805-.145 1.095-.435.3-.3.45-.675.45-1.125 0-.45-.15-.82-.45-1.11-.29-.3-.655-.45-1.095-.45-.45 0-.825.15-1.125.45-.29.29-.435.66-.435 1.11 0 .45.145.825.435 1.125.3.29.675.435 1.125.435Zm1.215-9.72-8.34 11.085-.975-.705 8.355-11.085.96.705Z" fill="#000"/><path d="M158.251 57.217c-1.118 0-1.972-.256-2.561-.767-.589-.52-.884-1.274-.884-2.262V51.25h1.105v2.691c0 .771.199 1.339.598 1.703.407.364 1.04.546 1.898.546.416 0 .815-.039 1.196-.117.381-.078.78-.2 1.196-.364V51.25h1.105V61h-1.105v-4.277a8.955 8.955 0 0 1-1.352.377 6.349 6.349 0 0 1-1.196.117Zm8.966 3.887c-.979 0-1.772-.308-2.379-.923-.598-.624-.897-1.43-.897-2.418 0-.945.303-1.725.91-2.34.607-.615 1.374-.923 2.301-.923.901 0 1.638.282 2.21.845.572.563.858 1.287.858 2.171 0 .07-.009.169-.026.299a4.316 4.316 0 0 0-.013.221h-5.174c.061.667.286 1.196.676 1.586.399.381.91.572 1.534.572.503 0 .919-.113 1.248-.338.329-.225.563-.555.702-.988l.988.182a2.526 2.526 0 0 1-1.027 1.508c-.52.364-1.157.546-1.911.546Zm-.065-5.72c-.537 0-.997.165-1.378.494-.381.32-.624.754-.728 1.3h4.082c-.035-.529-.238-.958-.611-1.287-.364-.338-.819-.507-1.365-.507Zm4.71 8.476v-9.256h.975l.026 1.105c.277-.39.615-.689 1.014-.897a2.871 2.871 0 0 1 1.326-.312c.893 0 1.634.312 2.223.936.589.624.884 1.408.884 2.353 0 .953-.295 1.746-.884 2.379-.589.624-1.33.936-2.223.936-.477 0-.914-.1-1.313-.299a2.9 2.9 0 0 1-1.014-.884v3.939h-1.014Zm5.382-6.071c0-.693-.204-1.257-.611-1.69-.407-.442-.932-.663-1.573-.663-.641 0-1.166.221-1.573.663-.407.433-.611.997-.611 1.69 0 .702.204 1.274.611 1.716.407.442.932.663 1.573.663.641 0 1.166-.221 1.573-.663.407-.442.611-1.014.611-1.716Zm5.461 3.315c-.979 0-1.772-.308-2.379-.923-.598-.624-.897-1.43-.897-2.418 0-.945.303-1.725.91-2.34.607-.615 1.374-.923 2.301-.923.901 0 1.638.282 2.21.845.572.563.858 1.287.858 2.171 0 .07-.009.169-.026.299a4.316 4.316 0 0 0-.013.221h-5.174c.061.667.286 1.196.676 1.586.399.381.91.572 1.534.572.503 0 .919-.113 1.248-.338.329-.225.563-.555.702-.988l.988.182a2.526 2.526 0 0 1-1.027 1.508c-.52.364-1.157.546-1.911.546Zm-.065-5.72c-.537 0-.997.165-1.378.494-.381.32-.624.754-.728 1.3h4.082c-.035-.529-.238-.958-.611-1.287-.364-.338-.819-.507-1.365-.507Zm9.377 3.783c0 .598-.242 1.07-.728 1.417-.485.347-1.131.52-1.937.52-.71 0-1.3-.143-1.768-.429a2.185 2.185 0 0 1-.949-1.261l1.001-.299c.104.364.304.641.598.832.295.182.672.273 1.131.273.503 0 .893-.095 1.17-.286.278-.19.416-.464.416-.819 0-.303-.108-.542-.325-.715-.216-.173-.507-.26-.871-.26h-1.144v-.871h1.118c.338 0 .611-.082.819-.247a.852.852 0 0 0 .312-.689.801.801 0 0 0-.377-.715c-.242-.165-.593-.247-1.053-.247-.459 0-.827.091-1.105.273-.277.182-.463.45-.559.806l-.962-.221c.148-.546.451-.97.91-1.274.468-.303 1.053-.455 1.755-.455.737 0 1.326.16 1.768.481.442.32.663.745.663 1.274 0 .33-.095.615-.286.858-.19.243-.459.425-.806.546.382.095.676.277.884.546.217.26.325.58.325.962Zm5.656.806h4.706V61h-6.201v-.91l2.938-3.042c.737-.745 1.226-1.33 1.469-1.755.251-.433.377-.867.377-1.3 0-.546-.178-.988-.533-1.326-.347-.338-.802-.507-1.365-.507s-1.031.165-1.404.494c-.373.32-.602.776-.689 1.365l-1.066-.221c.147-.823.507-1.469 1.079-1.937.581-.477 1.291-.715 2.132-.715.884 0 1.599.26 2.145.78s.819 1.2.819 2.041c0 .529-.134 1.04-.403 1.534-.26.485-.823 1.174-1.69 2.067l-2.314 2.405ZM207.788 61h-1.014v-6.396h1.014v2.574h3.367v-2.574h1.027V61h-1.027v-2.925h-3.367V61Zm9.296.104c-.979 0-1.772-.308-2.379-.923-.598-.624-.897-1.43-.897-2.418 0-.945.303-1.725.91-2.34.607-.615 1.374-.923 2.301-.923.901 0 1.638.282 2.21.845.572.563.858 1.287.858 2.171 0 .07-.009.169-.026.299a4.316 4.316 0 0 0-.013.221h-5.174c.061.667.286 1.196.676 1.586.399.381.91.572 1.534.572.503 0 .919-.113 1.248-.338.329-.225.563-.555.702-.988l.988.182a2.526 2.526 0 0 1-1.027 1.508c-.52.364-1.157.546-1.911.546Zm-.065-5.72c-.537 0-.997.165-1.378.494-.381.32-.624.754-.728 1.3h4.082c-.035-.529-.238-.958-.611-1.287-.364-.338-.819-.507-1.365-.507Zm4.736 7.631h-.975v-2.899h.598c.251-.243.429-.602.533-1.079.104-.477.178-1.218.221-2.223l.078-2.21h4.563v5.512h.871v2.899h-.988V61h-4.901v2.015Zm1.417-7.527-.052 1.287c-.035.867-.108 1.569-.221 2.106-.104.529-.256.94-.455 1.235h3.315v-4.628h-2.587Zm8.626 5.616c-.979 0-1.772-.308-2.379-.923-.598-.624-.897-1.43-.897-2.418 0-.945.303-1.725.91-2.34.607-.615 1.374-.923 2.301-.923.901 0 1.638.282 2.21.845.572.563.858 1.287.858 2.171 0 .07-.009.169-.026.299a4.316 4.316 0 0 0-.013.221h-5.174c.061.667.286 1.196.676 1.586.399.381.91.572 1.534.572.503 0 .919-.113 1.248-.338.329-.225.563-.555.702-.988l.988.182a2.526 2.526 0 0 1-1.027 1.508c-.52.364-1.157.546-1.911.546Zm-.065-5.72c-.537 0-.997.165-1.378.494-.381.32-.624.754-.728 1.3h4.082c-.035-.529-.238-.958-.611-1.287-.364-.338-.819-.507-1.365-.507Zm3.683 5.629.13-.871c.052.009.095.017.13.026h.104c.364 0 .624-.26.78-.78.165-.52.269-1.36.312-2.522l.091-2.262h4.485V61h-1.027v-5.512h-2.496l-.052 1.482c-.061 1.456-.238 2.509-.533 3.159-.295.65-.771.975-1.43.975a1.03 1.03 0 0 1-.247-.026 1.167 1.167 0 0 1-.247-.065Zm9.137-.013h-.975v-6.396h.975v4.901l3.406-4.901h.975V61h-.975v-4.901L244.553 61Z" fill="#000" fill-opacity=".6"/><path d="M189.135 37.425h4.98V39h-7.305v-1.35l2.775-2.79c1-.98 1.67-1.735 2.01-2.265.35-.53.525-1.055.525-1.575 0-.57-.175-1.025-.525-1.365-.34-.35-.795-.525-1.365-.525s-1.05.175-1.44.525c-.38.34-.61.815-.69 1.425l-1.62-.315c.17-.98.595-1.75 1.275-2.31.69-.56 1.54-.84 2.55-.84 1.05 0 1.895.31 2.535.93.65.61.975 1.42.975 2.43 0 .66-.19 1.305-.57 1.935-.37.62-1.15 1.525-2.34 2.715l-1.77 1.8Zm10.35-5.76c1.08 0 1.955.34 2.625 1.02.68.67 1.02 1.545 1.02 2.625 0 1.13-.37 2.05-1.11 2.76-.73.71-1.69 1.065-2.88 1.065-1.03 0-1.895-.255-2.595-.765-.69-.52-1.12-1.245-1.29-2.175l1.65-.435c.09.59.335 1.045.735 1.365.4.32.9.48 1.5.48.69 0 1.245-.205 1.665-.615.42-.41.63-.955.63-1.635 0-.67-.21-1.215-.63-1.635-.41-.42-.945-.63-1.605-.63-.42 0-.8.08-1.14.24-.33.15-.585.36-.765.63l-1.365-.39.945-5.82h5.775v1.485h-4.44l-.48 2.85a3.71 3.71 0 0 1 1.755-.42Zm10.928-1.275c0 .81-.275 1.48-.825 2.01-.54.52-1.23.78-2.07.78-.84 0-1.535-.265-2.085-.795s-.825-1.195-.825-1.995.275-1.46.825-1.98c.55-.53 1.245-.795 2.085-.795.84 0 1.53.26 2.07.78.55.52.825 1.185.825 1.995Zm-2.895 1.56c.44 0 .805-.145 1.095-.435.3-.3.45-.675.45-1.125 0-.45-.15-.82-.45-1.11-.29-.3-.655-.45-1.095-.45-.45 0-.825.15-1.125.45-.29.29-.435.66-.435 1.11 0 .45.145.825.435 1.125.3.29.675.435 1.125.435Zm9.765 4.395c0 .81-.275 1.48-.825 2.01-.54.52-1.23.78-2.07.78-.84 0-1.535-.265-2.085-.795s-.825-1.195-.825-1.995.275-1.46.825-1.98c.55-.53 1.245-.795 2.085-.795.84 0 1.53.26 2.07.78.55.52.825 1.185.825 1.995Zm-2.895 1.56c.44 0 .805-.145 1.095-.435.3-.3.45-.675.45-1.125 0-.45-.15-.82-.45-1.11-.29-.3-.655-.45-1.095-.45-.45 0-.825.15-1.125.45-.29.29-.435.66-.435 1.11 0 .45.145.825.435 1.125.3.29.675.435 1.125.435Zm1.215-9.72-8.34 11.085-.975-.705 8.355-11.085.96.705Z" fill="#000"/><path d="M277.251 57.217c-1.118 0-1.972-.256-2.561-.767-.589-.52-.884-1.274-.884-2.262V51.25h1.105v2.691c0 .771.199 1.339.598 1.703.407.364 1.04.546 1.898.546.416 0 .815-.039 1.196-.117.381-.078.78-.2 1.196-.364V51.25h1.105V61h-1.105v-4.277a8.955 8.955 0 0 1-1.352.377 6.349 6.349 0 0 1-1.196.117Zm8.966 3.887c-.979 0-1.772-.308-2.379-.923-.598-.624-.897-1.43-.897-2.418 0-.945.303-1.725.91-2.34.607-.615 1.374-.923 2.301-.923.901 0 1.638.282 2.21.845.572.563.858 1.287.858 2.171 0 .07-.009.169-.026.299a4.316 4.316 0 0 0-.013.221h-5.174c.061.667.286 1.196.676 1.586.399.381.91.572 1.534.572.503 0 .919-.113 1.248-.338.329-.225.563-.555.702-.988l.988.182a2.526 2.526 0 0 1-1.027 1.508c-.52.364-1.157.546-1.911.546Zm-.065-5.72c-.537 0-.997.165-1.378.494-.381.32-.624.754-.728 1.3h4.082c-.035-.529-.238-.958-.611-1.287-.364-.338-.819-.507-1.365-.507Zm4.71 8.476v-9.256h.975l.026 1.105c.277-.39.615-.689 1.014-.897a2.871 2.871 0 0 1 1.326-.312c.893 0 1.634.312 2.223.936.589.624.884 1.408.884 2.353 0 .953-.295 1.746-.884 2.379-.589.624-1.33.936-2.223.936-.477 0-.914-.1-1.313-.299a2.9 2.9 0 0 1-1.014-.884v3.939h-1.014Zm5.382-6.071c0-.693-.204-1.257-.611-1.69-.407-.442-.932-.663-1.573-.663-.641 0-1.166.221-1.573.663-.407.433-.611.997-.611 1.69 0 .702.204 1.274.611 1.716.407.442.932.663 1.573.663.641 0 1.166-.221 1.573-.663.407-.442.611-1.014.611-1.716Zm5.461 3.315c-.979 0-1.772-.308-2.379-.923-.598-.624-.897-1.43-.897-2.418 0-.945.303-1.725.91-2.34.607-.615 1.374-.923 2.301-.923.901 0 1.638.282 2.21.845.572.563.858 1.287.858 2.171 0 .07-.009.169-.026.299a4.316 4.316 0 0 0-.013.221h-5.174c.061.667.286 1.196.676 1.586.399.381.91.572 1.534.572.503 0 .919-.113 1.248-.338.329-.225.563-.555.702-.988l.988.182a2.526 2.526 0 0 1-1.027 1.508c-.52.364-1.157.546-1.911.546Zm-.065-5.72c-.537 0-.997.165-1.378.494-.381.32-.624.754-.728 1.3h4.082c-.035-.529-.238-.958-.611-1.287-.364-.338-.819-.507-1.365-.507Zm9.377 3.783c0 .598-.242 1.07-.728 1.417-.485.347-1.131.52-1.937.52-.71 0-1.3-.143-1.768-.429a2.185 2.185 0 0 1-.949-1.261l1.001-.299c.104.364.304.641.598.832.295.182.672.273 1.131.273.503 0 .893-.095 1.17-.286.278-.19.416-.464.416-.819 0-.303-.108-.542-.325-.715-.216-.173-.507-.26-.871-.26h-1.144v-.871h1.118c.338 0 .611-.082.819-.247a.852.852 0 0 0 .312-.689.801.801 0 0 0-.377-.715c-.242-.165-.593-.247-1.053-.247-.459 0-.827.091-1.105.273-.277.182-.463.45-.559.806l-.962-.221c.148-.546.451-.97.91-1.274.468-.303 1.053-.455 1.755-.455.737 0 1.326.16 1.768.481.442.32.663.745.663 1.274 0 .33-.095.615-.286.858-.19.243-.459.425-.806.546.382.095.676.277.884.546.217.26.325.58.325.962ZM320.638 61h-1.092v-2.353h-4.745v-.949l4.407-6.448h1.43v6.396h1.339v1.001h-1.339V61Zm-1.092-8.554-3.588 5.2h3.588v-5.2ZM327.245 61h-1.014v-6.396h1.014v2.574h3.367v-2.574h1.027V61h-1.027v-2.925h-3.367V61Zm9.296.104c-.979 0-1.772-.308-2.379-.923-.598-.624-.897-1.43-.897-2.418 0-.945.303-1.725.91-2.34.607-.615 1.374-.923 2.301-.923.901 0 1.638.282 2.21.845.572.563.858 1.287.858 2.171 0 .07-.009.169-.026.299a4.316 4.316 0 0 0-.013.221h-5.174c.061.667.286 1.196.676 1.586.399.381.91.572 1.534.572.503 0 .919-.113 1.248-.338.329-.225.563-.555.702-.988l.988.182a2.526 2.526 0 0 1-1.027 1.508c-.52.364-1.157.546-1.911.546Zm-.065-5.72c-.537 0-.997.165-1.378.494-.381.32-.624.754-.728 1.3h4.082c-.035-.529-.238-.958-.611-1.287-.364-.338-.819-.507-1.365-.507Zm4.736 7.631h-.975v-2.899h.598c.251-.243.429-.602.533-1.079.104-.477.178-1.218.221-2.223l.078-2.21h4.563v5.512h.871v2.899h-.988V61h-4.901v2.015Zm1.417-7.527-.052 1.287c-.035.867-.108 1.569-.221 2.106-.104.529-.256.94-.455 1.235h3.315v-4.628h-2.587Zm8.626 5.616c-.979 0-1.772-.308-2.379-.923-.598-.624-.897-1.43-.897-2.418 0-.945.303-1.725.91-2.34.607-.615 1.374-.923 2.301-.923.901 0 1.638.282 2.21.845.572.563.858 1.287.858 2.171 0 .07-.009.169-.026.299a4.316 4.316 0 0 0-.013.221h-5.174c.061.667.286 1.196.676 1.586.399.381.91.572 1.534.572.503 0 .919-.113 1.248-.338.329-.225.563-.555.702-.988l.988.182a2.526 2.526 0 0 1-1.027 1.508c-.52.364-1.157.546-1.911.546Zm-.065-5.72c-.537 0-.997.165-1.378.494-.381.32-.624.754-.728 1.3h4.082c-.035-.529-.238-.958-.611-1.287-.364-.338-.819-.507-1.365-.507Zm3.683 5.629.13-.871c.052.009.095.017.13.026h.104c.364 0 .624-.26.78-.78.165-.52.269-1.36.312-2.522l.091-2.262h4.485V61h-1.027v-5.512h-2.496l-.052 1.482c-.061 1.456-.238 2.509-.533 3.159-.295.65-.771.975-1.43.975a1.03 1.03 0 0 1-.247-.026 1.167 1.167 0 0 1-.247-.065ZM364.01 61h-.975v-6.396h.975v4.901l3.406-4.901h.975V61h-.975v-4.901L364.01 61Z" fill="#000" fill-opacity=".6"/><path d="M308.135 37.425h4.98V39h-7.305v-1.35l2.775-2.79c1-.98 1.67-1.735 2.01-2.265.35-.53.525-1.055.525-1.575 0-.57-.175-1.025-.525-1.365-.34-.35-.795-.525-1.365-.525s-1.05.175-1.44.525c-.38.34-.61.815-.69 1.425l-1.62-.315c.17-.98.595-1.75 1.275-2.31.69-.56 1.54-.84 2.55-.84 1.05 0 1.895.31 2.535.93.65.61.975 1.42.975 2.43 0 .66-.19 1.305-.57 1.935-.37.62-1.15 1.525-2.34 2.715l-1.77 1.8Zm10.35-5.76c1.08 0 1.955.34 2.625 1.02.68.67 1.02 1.545 1.02 2.625 0 1.13-.37 2.05-1.11 2.76-.73.71-1.69 1.065-2.88 1.065-1.03 0-1.895-.255-2.595-.765-.69-.52-1.12-1.245-1.29-2.175l1.65-.435c.09.59.335 1.045.735 1.365.4.32.9.48 1.5.48.69 0 1.245-.205 1.665-.615.42-.41.63-.955.63-1.635 0-.67-.21-1.215-.63-1.635-.41-.42-.945-.63-1.605-.63-.42 0-.8.08-1.14.24-.33.15-.585.36-.765.63l-1.365-.39.945-5.82h5.775v1.485h-4.44l-.48 2.85a3.71 3.71 0 0 1 1.755-.42Zm10.928-1.275c0 .81-.275 1.48-.825 2.01-.54.52-1.23.78-2.07.78-.84 0-1.535-.265-2.085-.795s-.825-1.195-.825-1.995.275-1.46.825-1.98c.55-.53 1.245-.795 2.085-.795.84 0 1.53.26 2.07.78.55.52.825 1.185.825 1.995Zm-2.895 1.56c.44 0 .805-.145 1.095-.435.3-.3.45-.675.45-1.125 0-.45-.15-.82-.45-1.11-.29-.3-.655-.45-1.095-.45-.45 0-.825.15-1.125.45-.29.29-.435.66-.435 1.11 0 .45.145.825.435 1.125.3.29.675.435 1.125.435Zm9.765 4.395c0 .81-.275 1.48-.825 2.01-.54.52-1.23.78-2.07.78-.84 0-1.535-.265-2.085-.795s-.825-1.195-.825-1.995.275-1.46.825-1.98c.55-.53 1.245-.795 2.085-.795.84 0 1.53.26 2.07.78.55.52.825 1.185.825 1.995Zm-2.895 1.56c.44 0 .805-.145 1.095-.435.3-.3.45-.675.45-1.125 0-.45-.15-.82-.45-1.11-.29-.3-.655-.45-1.095-.45-.45 0-.825.15-1.125.45-.29.29-.435.66-.435 1.11 0 .45.145.825.435 1.125.3.29.675.435 1.125.435Zm1.215-9.72-8.34 11.085-.975-.705 8.355-11.085.96.705Z" fill="#000"/><path d="M396.251 57.217c-1.118 0-1.972-.256-2.561-.767-.589-.52-.884-1.274-.884-2.262V51.25h1.105v2.691c0 .771.199 1.339.598 1.703.407.364 1.04.546 1.898.546.416 0 .815-.039 1.196-.117.381-.078.78-.2 1.196-.364V51.25h1.105V61h-1.105v-4.277a8.955 8.955 0 0 1-1.352.377 6.349 6.349 0 0 1-1.196.117Zm8.966 3.887c-.979 0-1.772-.308-2.379-.923-.598-.624-.897-1.43-.897-2.418 0-.945.303-1.725.91-2.34.607-.615 1.374-.923 2.301-.923.901 0 1.638.282 2.21.845.572.563.858 1.287.858 2.171 0 .07-.009.169-.026.299a4.316 4.316 0 0 0-.013.221h-5.174c.061.667.286 1.196.676 1.586.399.381.91.572 1.534.572.503 0 .919-.113 1.248-.338.329-.225.563-.555.702-.988l.988.182a2.526 2.526 0 0 1-1.027 1.508c-.52.364-1.157.546-1.911.546Zm-.065-5.72c-.537 0-.997.165-1.378.494-.381.32-.624.754-.728 1.3h4.082c-.035-.529-.238-.958-.611-1.287-.364-.338-.819-.507-1.365-.507Zm4.71 8.476v-9.256h.975l.026 1.105c.277-.39.615-.689 1.014-.897a2.871 2.871 0 0 1 1.326-.312c.893 0 1.634.312 2.223.936.589.624.884 1.408.884 2.353 0 .953-.295 1.746-.884 2.379-.589.624-1.33.936-2.223.936-.477 0-.914-.1-1.313-.299a2.9 2.9 0 0 1-1.014-.884v3.939h-1.014Zm5.382-6.071c0-.693-.204-1.257-.611-1.69-.407-.442-.932-.663-1.573-.663-.641 0-1.166.221-1.573.663-.407.433-.611.997-.611 1.69 0 .702.204 1.274.611 1.716.407.442.932.663 1.573.663.641 0 1.166-.221 1.573-.663.407-.442.611-1.014.611-1.716Zm5.461 3.315c-.979 0-1.772-.308-2.379-.923-.598-.624-.897-1.43-.897-2.418 0-.945.303-1.725.91-2.34.607-.615 1.374-.923 2.301-.923.901 0 1.638.282 2.21.845.572.563.858 1.287.858 2.171 0 .07-.009.169-.026.299a4.316 4.316 0 0 0-.013.221h-5.174c.061.667.286 1.196.676 1.586.399.381.91.572 1.534.572.503 0 .919-.113 1.248-.338.329-.225.563-.555.702-.988l.988.182a2.526 2.526 0 0 1-1.027 1.508c-.52.364-1.157.546-1.911.546Zm-.065-5.72c-.537 0-.997.165-1.378.494-.381.32-.624.754-.728 1.3h4.082c-.035-.529-.238-.958-.611-1.287-.364-.338-.819-.507-1.365-.507Zm9.377 3.783c0 .598-.242 1.07-.728 1.417-.485.347-1.131.52-1.937.52-.71 0-1.3-.143-1.768-.429a2.185 2.185 0 0 1-.949-1.261l1.001-.299c.104.364.304.641.598.832.295.182.672.273 1.131.273.503 0 .893-.095 1.17-.286.278-.19.416-.464.416-.819 0-.303-.108-.542-.325-.715-.216-.173-.507-.26-.871-.26h-1.144v-.871h1.118c.338 0 .611-.082.819-.247a.852.852 0 0 0 .312-.689.801.801 0 0 0-.377-.715c-.242-.165-.593-.247-1.053-.247-.459 0-.827.091-1.105.273-.277.182-.463.45-.559.806l-.962-.221c.148-.546.451-.97.91-1.274.468-.303 1.053-.455 1.755-.455.737 0 1.326.16 1.768.481.442.32.663.745.663 1.274 0 .33-.095.615-.286.858-.19.243-.459.425-.806.546.382.095.676.277.884.546.217.26.325.58.325.962Zm10.622-1.274c0 .945-.316 1.716-.949 2.314-.633.598-1.439.897-2.418.897-.953 0-1.738-.286-2.353-.858-.607-.572-.91-1.309-.91-2.21 0-.399.061-.793.182-1.183.13-.39.321-.771.572-1.144l2.938-4.459h1.248l-2.496 3.744c.165-.052.334-.091.507-.117.173-.035.342-.052.507-.052.927 0 1.686.286 2.275.858.598.572.897 1.309.897 2.21Zm-5.512.078c0 .615.199 1.122.598 1.521.407.39.927.585 1.56.585.65 0 1.183-.204 1.599-.611.416-.407.624-.932.624-1.573 0-.624-.208-1.135-.624-1.534-.407-.399-.936-.598-1.586-.598-.303 0-.589.052-.858.156a1.998 1.998 0 0 0-.702.455 2.145 2.145 0 0 0-.455.715 2.429 2.429 0 0 0-.156.884ZM446.067 61h-1.014v-6.396h1.014v2.574h3.367v-2.574h1.027V61h-1.027v-2.925h-3.367V61Zm9.296.104c-.979 0-1.772-.308-2.379-.923-.598-.624-.897-1.43-.897-2.418 0-.945.304-1.725.91-2.34.607-.615 1.374-.923 2.301-.923.902 0 1.638.282 2.21.845.572.563.858 1.287.858 2.171 0 .07-.008.169-.026.299-.008.121-.013.195-.013.221h-5.174c.061.667.286 1.196.676 1.586.399.381.91.572 1.534.572.503 0 .919-.113 1.248-.338.33-.225.564-.555.702-.988l.988.182a2.526 2.526 0 0 1-1.027 1.508c-.52.364-1.157.546-1.911.546Zm-.065-5.72c-.537 0-.996.165-1.378.494-.381.32-.624.754-.728 1.3h4.082c-.034-.529-.238-.958-.611-1.287-.364-.338-.819-.507-1.365-.507Zm4.736 7.631h-.975v-2.899h.598c.252-.243.429-.602.533-1.079.104-.477.178-1.218.221-2.223l.078-2.21h4.563v5.512h.871v2.899h-.988V61h-4.901v2.015Zm1.417-7.527-.052 1.287c-.034.867-.108 1.569-.221 2.106-.104.529-.255.94-.455 1.235h3.315v-4.628h-2.587Zm8.626 5.616c-.979 0-1.772-.308-2.379-.923-.598-.624-.897-1.43-.897-2.418 0-.945.304-1.725.91-2.34.607-.615 1.374-.923 2.301-.923.902 0 1.638.282 2.21.845.572.563.858 1.287.858 2.171 0 .07-.008.169-.026.299-.008.121-.013.195-.013.221h-5.174c.061.667.286 1.196.676 1.586.399.381.91.572 1.534.572.503 0 .919-.113 1.248-.338.33-.225.564-.555.702-.988l.988.182a2.526 2.526 0 0 1-1.027 1.508c-.52.364-1.157.546-1.911.546Zm-.065-5.72c-.537 0-.996.165-1.378.494-.381.32-.624.754-.728 1.3h4.082c-.034-.529-.238-.958-.611-1.287-.364-.338-.819-.507-1.365-.507Zm3.683 5.629.13-.871c.052.009.096.017.13.026h.104c.364 0 .624-.26.78-.78.165-.52.269-1.36.312-2.522l.091-2.262h4.485V61H478.7v-5.512h-2.496l-.052 1.482c-.06 1.456-.238 2.509-.533 3.159-.294.65-.771.975-1.43.975-.095 0-.177-.009-.247-.026a1.183 1.183 0 0 1-.247-.065ZM484.587 61h-2.73v-6.396h1.014v2.145h1.716c.676 0 1.218.195 1.625.585.416.39.624.906.624 1.547 0 .633-.208 1.144-.624 1.534-.407.39-.949.585-1.625.585Zm1.183-2.119c0-.407-.117-.715-.351-.923-.225-.208-.563-.312-1.014-.312h-1.534v2.47h1.534c.442 0 .78-.104 1.014-.312.234-.217.351-.524.351-.923Z" fill="#000" fill-opacity=".6"/><path d="M426.135 37.425h4.98V39h-7.305v-1.35l2.775-2.79c1-.98 1.67-1.735 2.01-2.265.35-.53.525-1.055.525-1.575 0-.57-.175-1.025-.525-1.365-.34-.35-.795-.525-1.365-.525s-1.05.175-1.44.525c-.38.34-.61.815-.69 1.425l-1.62-.315c.17-.98.595-1.75 1.275-2.31.69-.56 1.54-.84 2.55-.84 1.05 0 1.895.31 2.535.93.65.61.975 1.42.975 2.43 0 .66-.19 1.305-.57 1.935-.37.62-1.15 1.525-2.34 2.715l-1.77 1.8Zm10.35-5.76c1.08 0 1.955.34 2.625 1.02.68.67 1.02 1.545 1.02 2.625 0 1.13-.37 2.05-1.11 2.76-.73.71-1.69 1.065-2.88 1.065-1.03 0-1.895-.255-2.595-.765-.69-.52-1.12-1.245-1.29-2.175l1.65-.435c.09.59.335 1.045.735 1.365.4.32.9.48 1.5.48.69 0 1.245-.205 1.665-.615.42-.41.63-.955.63-1.635 0-.67-.21-1.215-.63-1.635-.41-.42-.945-.63-1.605-.63-.42 0-.8.08-1.14.24-.33.15-.585.36-.765.63l-1.365-.39.945-5.82h5.775v1.485h-4.44l-.48 2.85a3.71 3.71 0 0 1 1.755-.42Zm10.928-1.275c0 .81-.275 1.48-.825 2.01-.54.52-1.23.78-2.07.78-.84 0-1.535-.265-2.085-.795s-.825-1.195-.825-1.995.275-1.46.825-1.98c.55-.53 1.245-.795 2.085-.795.84 0 1.53.26 2.07.78.55.52.825 1.185.825 1.995Zm-2.895 1.56c.44 0 .805-.145 1.095-.435.3-.3.45-.675.45-1.125 0-.45-.15-.82-.45-1.11-.29-.3-.655-.45-1.095-.45-.45 0-.825.15-1.125.45-.29.29-.435.66-.435 1.11 0 .45.145.825.435 1.125.3.29.675.435 1.125.435Zm9.765 4.395c0 .81-.275 1.48-.825 2.01-.54.52-1.23.78-2.07.78-.84 0-1.535-.265-2.085-.795s-.825-1.195-.825-1.995.275-1.46.825-1.98c.55-.53 1.245-.795 2.085-.795.84 0 1.53.26 2.07.78.55.52.825 1.185.825 1.995Zm-2.895 1.56c.44 0 .805-.145 1.095-.435.3-.3.45-.675.45-1.125 0-.45-.15-.82-.45-1.11-.29-.3-.655-.45-1.095-.45-.45 0-.825.15-1.125.45-.29.29-.435.66-.435 1.11 0 .45.145.825.435 1.125.3.29.675.435 1.125.435Zm1.215-9.72-8.34 11.085-.975-.705 8.355-11.085.96.705Z" fill="#000"/><path fill="#C7C9CC" d="M97 92h90v-1H97zM217 92h89v-1h-89zM336 92.001h89v-1h-89z"/><circle cx="82" cy="91.001" r="8.25" stroke="#6FADAA" stroke-width="1.5"/><circle cx="82" cy="91.001" r="8.25" stroke="#6FADAA" stroke-width="1.5"/><path fill="#F6F7F8" d="M73 91.001h18v9H73z"/><path fill="#F6F7F8" d="M73 82.001h9v18h-9z"/><circle cx="82" cy="91.001" r="4" fill="#242424"/><circle cx="202" cy="91.001" r="8.25" stroke="#6FADAA" stroke-width="1.5"/><path fill="#F6F7F8" d="M193 82.001h9v18h-9z"/><circle cx="202" cy="91.001" r="4" fill="#242424"/><circle cx="321" cy="91.001" r="8.25" stroke="#6FADAA" stroke-width="1.5"/><path fill="#F6F7F8" d="M312 82.001h9v9h-9z"/><circle cx="321" cy="91.001" r="4" fill="#242424"/><circle cx="440" cy="91.001" r="8.25" stroke="#6FADAA" stroke-width="1.5"/><path fill-rule="evenodd" clip-rule="evenodd" d="m439.114 92.175-1.783-1.486a.837.837 0 0 0-1.129.063.718.718 0 0 0 .067 1.059l2.4 2a.837.837 0 0 0 1.146-.08l4-4.5a.718.718 0 0 0-.103-1.057.838.838 0 0 0-1.127.096l-3.471 3.905ZM50.893 131.568l-2.229-1.981a1 1 0 1 0-1.328 1.495l3 2.666a1 1 0 0 0 1.432-.107l5-6a1 1 0 1 0-1.536-1.28l-4.34 5.207Z" fill="#6FADAA"/><path d="M74.512 135.105c-1.387 0-2.526-.468-3.419-1.404-.884-.936-1.326-2.128-1.326-3.575 0-1.456.442-2.648 1.326-3.575.884-.936 2.024-1.404 3.419-1.404s2.535.468 3.419 1.404c.884.927 1.326 2.119 1.326 3.575s-.442 2.652-1.326 3.588c-.884.927-2.024 1.391-3.419 1.391Zm0-1.027c1.075 0 1.941-.364 2.6-1.092.667-.728 1.001-1.681 1.001-2.86 0-1.179-.334-2.132-1.001-2.86-.659-.728-1.525-1.092-2.6-1.092-1.083 0-1.954.364-2.613 1.092-.659.728-.988 1.681-.988 2.86 0 1.179.33 2.132.988 2.86.659.728 1.53 1.092 2.613 1.092Zm7.588.923h-1.014v-6.396h5.33v6.396h-1.028v-5.512H82.1v5.512Zm5.423.013.13-.871c.052.009.096.017.13.026h.104c.364 0 .624-.26.78-.78.165-.52.269-1.361.312-2.522l.091-2.262h4.485v6.396h-1.027v-5.512h-2.496l-.052 1.482c-.06 1.456-.238 2.509-.533 3.159-.294.65-.771.975-1.43.975-.095 0-.177-.009-.247-.026a1.165 1.165 0 0 1-.247-.065Zm13.063-.013h-.936l-.026-1.274c-.251.442-.59.784-1.014 1.027a2.814 2.814 0 0 1-1.404.351c-.615 0-1.105-.16-1.469-.481-.364-.321-.546-.75-.546-1.287 0-.52.19-.945.572-1.274.381-.329 1.044-.615 1.99-.858l1.845-.442c-.052-.451-.22-.793-.507-1.027-.277-.243-.658-.364-1.144-.364-.485 0-.88.108-1.183.325-.303.217-.511.537-.624.962l-.962-.182c.148-.615.468-1.096.962-1.443.494-.355 1.1-.533 1.82-.533.815 0 1.456.221 1.924.663.468.442.702 1.053.702 1.833v4.004Zm-4.329-1.755c0 .303.1.546.3.728.198.173.467.26.805.26.642 0 1.175-.23 1.6-.689.432-.468.65-1.07.65-1.807v-.143l-1.847.455c-.546.139-.936.303-1.17.494a.862.862 0 0 0-.338.702Zm8.272-.624c-.806 0-1.417-.182-1.833-.546-.416-.373-.624-.919-.624-1.638v-1.833h1.014v1.703c0 .468.135.823.403 1.066.278.234.681.351 1.209.351.252 0 .486-.017.702-.052.226-.035.481-.091.767-.169v-2.899h1.027v6.396h-1.027v-2.626a8.508 8.508 0 0 1-.845.195 5.741 5.741 0 0 1-.793.052Zm5.779 2.379h-.975v-6.396h.975v4.901l3.406-4.901h.975v6.396h-.975V130.1l-3.406 4.901Zm9.531 0h-3.016v-6.396h2.886c.581 0 1.044.147 1.391.442.347.295.52.693.52 1.196 0 .329-.082.615-.247.858a1.412 1.412 0 0 1-.689.546c.39.095.689.282.897.559.217.269.325.602.325 1.001 0 .537-.195.971-.585 1.3-.381.329-.875.494-1.482.494Zm.78-4.641c0-.303-.091-.529-.273-.676-.173-.156-.433-.234-.78-.234h-1.742v1.846h1.807c.321 0 .563-.078.728-.234.173-.165.26-.399.26-.702Zm-2.795 3.783h1.781c.407 0 .715-.087.923-.26.217-.173.325-.425.325-.754s-.1-.576-.299-.741c-.199-.173-.485-.26-.858-.26h-1.872v2.015Zm10.628.858h-.936l-.026-1.274a2.683 2.683 0 0 1-1.014 1.027 2.814 2.814 0 0 1-1.404.351c-.615 0-1.105-.16-1.469-.481-.364-.321-.546-.75-.546-1.287 0-.52.191-.945.572-1.274.382-.329 1.045-.615 1.989-.858l1.846-.442c-.052-.451-.221-.793-.507-1.027-.277-.243-.658-.364-1.144-.364-.485 0-.879.108-1.183.325-.303.217-.511.537-.624.962l-.962-.182c.148-.615.468-1.096.962-1.443.494-.355 1.101-.533 1.82-.533.815 0 1.456.221 1.924.663.468.442.702 1.053.702 1.833v4.004Zm-4.329-1.755c0 .303.1.546.299.728.2.173.468.26.806.26.642 0 1.175-.23 1.599-.689.434-.468.65-1.07.65-1.807v-.143l-1.846.455c-.546.139-.936.303-1.17.494a.863.863 0 0 0-.338.702Zm9.065-6.526c.32 0 .572-.082.754-.247.182-.173.277-.416.286-.728h.897c0 .537-.178.971-.533 1.3-.356.321-.824.481-1.404.481-.581 0-1.049-.16-1.404-.481-.347-.321-.525-.754-.533-1.3h.91c0 .303.091.542.273.715.182.173.433.26.754.26Zm-1.755 8.281h-.975v-6.396h.975v4.901l3.406-4.901h.975v6.396h-.975V130.1l-3.406 4.901Zm8.959 0h-1.027v-5.512h-2.223v-.884h5.473v.884h-2.223v5.512Zm6.139.104c-.979 0-1.772-.308-2.379-.923-.598-.624-.897-1.43-.897-2.418 0-.945.304-1.725.91-2.34.607-.615 1.374-.923 2.301-.923.902 0 1.638.282 2.21.845.572.563.858 1.287.858 2.171 0 .069-.008.169-.026.299-.008.121-.013.195-.013.221h-5.174c.061.667.286 1.196.676 1.586.399.381.91.572 1.534.572.503 0 .919-.113 1.248-.338.33-.225.564-.555.702-.988l.988.182a2.526 2.526 0 0 1-1.027 1.508c-.52.364-1.157.546-1.911.546Zm-.065-5.72c-.537 0-.996.165-1.378.494-.381.321-.624.754-.728 1.3h4.082c-.034-.529-.238-.958-.611-1.287-.364-.338-.819-.507-1.365-.507Zm8.581 5.616h-1.014v-6.396h5.33v6.396h-1.027v-5.512h-3.289v5.512Zm5.944-3.211c0-.953.312-1.738.936-2.353.624-.624 1.412-.936 2.366-.936.953 0 1.742.312 2.366.936.624.615.936 1.4.936 2.353 0 .962-.312 1.755-.936 2.379-.624.624-1.413.936-2.366.936-.954 0-1.742-.312-2.366-.936-.624-.624-.936-1.417-.936-2.379Zm5.538 0c0-.693-.208-1.257-.624-1.69-.416-.442-.954-.663-1.612-.663-.659 0-1.196.221-1.612.663-.416.433-.624.997-.624 1.69 0 .702.208 1.274.624 1.716.416.442.953.663 1.612.663.658 0 1.196-.221 1.612-.663.416-.442.624-1.014.624-1.716Zm2.687 3.211v-6.396h1.014v2.548h.949l2.184-2.548h1.209l-2.587 3.003 2.808 3.393h-1.248l-2.418-2.86h-.897v2.86h-1.014Zm8.65-.052-2.782-6.344h1.144l2.21 5.044 1.976-5.044h1.079l-3.731 9.256h-1.066l1.17-2.912Zm5.821.052h-1.014v-6.396h5.33v6.396h-1.027v-5.512h-3.289v5.512Zm6.451 0v-6.396h1.014v2.548h.949l2.184-2.548h1.209l-2.587 3.003 2.808 3.393h-1.248l-2.418-2.86h-.897v2.86h-1.014Zm7.678 0h-.975v-6.396h.975v4.901l3.406-4.901h.975v6.396h-.975V130.1l-3.406 4.901Zm11.348-2.379c-.806 0-1.417-.182-1.833-.546-.416-.373-.624-.919-.624-1.638v-1.833h1.014v1.703c0 .468.134.823.403 1.066.277.234.68.351 1.209.351.251 0 .485-.017.702-.052.225-.035.481-.091.767-.169v-2.899h1.027v6.396h-1.027v-2.626a8.572 8.572 0 0 1-.845.195 5.752 5.752 0 0 1-.793.052Zm9.704 2.379h-.936l-.026-1.274a2.683 2.683 0 0 1-1.014 1.027 2.814 2.814 0 0 1-1.404.351c-.615 0-1.105-.16-1.469-.481-.364-.321-.546-.75-.546-1.287 0-.52.191-.945.572-1.274.382-.329 1.045-.615 1.989-.858l1.846-.442c-.052-.451-.221-.793-.507-1.027-.277-.243-.658-.364-1.144-.364-.485 0-.879.108-1.183.325-.303.217-.511.537-.624.962l-.962-.182c.148-.615.468-1.096.962-1.443.494-.355 1.101-.533 1.82-.533.815 0 1.456.221 1.924.663.468.442.702 1.053.702 1.833v4.004Zm-4.329-1.755c0 .303.1.546.299.728.2.173.468.26.806.26.642 0 1.175-.23 1.599-.689.434-.468.65-1.07.65-1.807v-.143l-1.846.455c-.546.139-.936.303-1.17.494a.863.863 0 0 0-.338.702Zm9.052 1.859c-.928 0-1.699-.316-2.314-.949-.607-.633-.91-1.43-.91-2.392 0-.936.303-1.712.91-2.327.615-.624 1.386-.936 2.314-.936.762 0 1.404.204 1.924.611.528.399.871.945 1.027 1.638l-1.04.182c-.113-.468-.338-.832-.676-1.092-.338-.269-.75-.403-1.235-.403-.633 0-1.153.217-1.56.65-.399.433-.598.992-.598 1.677 0 .711.199 1.291.598 1.742.407.442.927.663 1.56.663.511 0 .94-.139 1.287-.416.346-.277.572-.663.676-1.157l1.027.169a2.662 2.662 0 0 1-1.014 1.69c-.546.433-1.205.65-1.976.65Zm6.887-.104h-1.027v-5.512h-2.223v-.884h5.473v.884h-2.223v5.512Zm3.21-4.433c0-.581.186-1.053.559-1.417.373-.364.854-.546 1.443-.546h3.107v6.396h-1.001v-2.509h-1.43l-1.872 2.509h-1.144l1.924-2.574c-.485-.078-.871-.282-1.157-.611-.286-.338-.429-.754-.429-1.248Zm1.066-.026c0 .355.104.628.312.819.208.182.507.273.897.273h1.833v-2.184h-1.82c-.39 0-.693.095-.91.286-.208.182-.312.451-.312.806Zm7.153 4.459h-.975v-6.396h1.053l2.275 2.99 2.288-2.99h1.053v6.396h-.975v-5.044l-2.275 2.977h-.234l-2.21-2.925v4.992Zm8.798 0h-.975v-6.396h.975v4.901l3.406-4.901h.975v6.396h-.975V130.1l-3.406 4.901Zm8.566-3.328v-.975h12.48v.975h-12.48Zm17.676 3.328h-1.014v-6.396h5.33v6.396h-1.027v-5.512h-3.289v5.512Zm5.944-3.211c0-.953.312-1.738.936-2.353.624-.624 1.413-.936 2.366-.936.953 0 1.742.312 2.366.936.624.615.936 1.4.936 2.353 0 .962-.312 1.755-.936 2.379-.624.624-1.413.936-2.366.936-.953 0-1.742-.312-2.366-.936-.624-.624-.936-1.417-.936-2.379Zm5.538 0c0-.693-.208-1.257-.624-1.69-.416-.442-.953-.663-1.612-.663-.659 0-1.196.221-1.612.663-.416.433-.624.997-.624 1.69 0 .702.208 1.274.624 1.716.416.442.953.663 1.612.663.659 0 1.196-.221 1.612-.663.416-.442.624-1.014.624-1.716Zm6.688 2.184h4.706v1.027h-6.201v-.91l2.938-3.042c.737-.745 1.227-1.33 1.469-1.755.252-.433.377-.867.377-1.3 0-.546-.177-.988-.533-1.326-.346-.338-.801-.507-1.365-.507-.563 0-1.031.165-1.404.494-.372.321-.602.776-.689 1.365l-1.066-.221c.148-.823.507-1.469 1.079-1.937.581-.477 1.292-.715 2.132-.715.884 0 1.599.26 2.145.78s.819 1.2.819 2.041c0 .529-.134 1.04-.403 1.534-.26.485-.823 1.174-1.69 2.067l-2.314 2.405Zm9.209-5.317c.927 0 1.686.299 2.275.897.598.598.897 1.361.897 2.288 0 .962-.316 1.746-.949 2.353-.633.607-1.456.91-2.47.91-.867 0-1.59-.217-2.171-.65-.572-.433-.949-1.049-1.131-1.846l1.079-.312c.139.581.403 1.027.793 1.339.39.303.875.455 1.456.455.667 0 1.209-.204 1.625-.611.425-.416.637-.958.637-1.625 0-.659-.204-1.196-.611-1.612-.407-.416-.932-.624-1.573-.624a2.85 2.85 0 0 0-1.118.208 1.83 1.83 0 0 0-.767.598l-.871-.273.832-4.901h4.849v.988h-3.978l-.507 2.873a3.314 3.314 0 0 1 1.703-.455Zm9.121-1.183c0 .676-.225 1.235-.676 1.677-.451.442-1.018.663-1.703.663-.693 0-1.265-.221-1.716-.663-.451-.442-.676-1.001-.676-1.677 0-.676.225-1.231.676-1.664.451-.442 1.023-.663 1.716-.663.685 0 1.252.221 1.703.663.451.442.676.997.676 1.664Zm-2.379 1.508c.425 0 .776-.143 1.053-.429.277-.286.416-.646.416-1.079 0-.433-.139-.793-.416-1.079-.277-.286-.628-.429-1.053-.429-.425 0-.78.143-1.066.429-.277.286-.416.646-.416 1.079 0 .433.139.793.416 1.079.286.286.641.429 1.066.429Zm8.255 3.783c0 .676-.225 1.235-.676 1.677-.451.442-1.018.663-1.703.663-.693 0-1.265-.221-1.716-.663-.451-.442-.676-1.001-.676-1.677 0-.676.225-1.231.676-1.664.451-.442 1.023-.663 1.716-.663.685 0 1.252.221 1.703.663.451.442.676.997.676 1.664Zm-2.379 1.508c.425 0 .776-.143 1.053-.429.277-.286.416-.646.416-1.079 0-.433-.139-.793-.416-1.079-.277-.286-.628-.429-1.053-.429-.425 0-.78.143-1.066.429-.277.286-.416.646-.416 1.079 0 .433.139.793.416 1.079.286.286.641.429 1.066.429Zm1.144-8.775-7.514 9.737-.637-.481 7.501-9.737.65.481Zm5.757 9.503v-6.396h1.014v2.548h.949l2.184-2.548h1.209l-2.587 3.003 2.808 3.393h-1.248l-2.418-2.86h-.897v2.86h-1.014Zm11.604 0h-.936l-.026-1.274a2.683 2.683 0 0 1-1.014 1.027 2.814 2.814 0 0 1-1.404.351c-.615 0-1.105-.16-1.469-.481-.364-.321-.546-.75-.546-1.287 0-.52.191-.945.572-1.274.382-.329 1.045-.615 1.989-.858l1.846-.442c-.052-.451-.221-.793-.507-1.027-.277-.243-.658-.364-1.144-.364-.485 0-.879.108-1.183.325-.303.217-.511.537-.624.962l-.962-.182c.148-.615.468-1.096.962-1.443.494-.355 1.101-.533 1.82-.533.815 0 1.456.221 1.924.663.468.442.702 1.053.702 1.833v4.004Zm-4.329-1.755c0 .303.1.546.299.728.2.173.468.26.806.26.642 0 1.175-.23 1.599-.689.434-.468.65-1.07.65-1.807v-.143l-1.846.455c-.546.139-.936.303-1.17.494a.863.863 0 0 0-.338.702Zm5.516-4.641h1.157l1.807 2.587h.845v-2.587h.975v2.587h.832l1.833-2.587h1.144l-2.197 2.99 2.366 3.406h-1.17l-2.015-2.899h-.793v2.899h-.975v-2.899h-.806l-2.028 2.899h-1.131l2.34-3.341-2.184-3.055Zm10.163 8.411h-.975v-2.899h.598c.251-.243.429-.602.533-1.079.104-.477.178-1.218.221-2.223l.078-2.21h4.563v5.512h.871v2.899h-.988v-2.015h-4.901v2.015Zm1.417-7.527-.052 1.287c-.035.867-.108 1.569-.221 2.106-.104.529-.256.94-.455 1.235h3.315v-4.628h-2.587Zm8.548 5.512h-2.691v-6.396h1.014v2.145h1.677c.676 0 1.218.195 1.625.585.416.39.624.906.624 1.547 0 .633-.208 1.144-.624 1.534-.407.39-.949.585-1.625.585Zm4.069 0h-1.014v-6.396h1.014v6.396Zm-2.886-2.119c0-.407-.117-.715-.351-.923-.225-.208-.563-.312-1.014-.312h-1.495v2.47h1.495c.442 0 .78-.104 1.014-.312.234-.217.351-.524.351-.923Zm7.782 2.223c-.98 0-1.773-.308-2.379-.923-.598-.624-.897-1.43-.897-2.418 0-.945.303-1.725.91-2.34.606-.615 1.373-.923 2.301-.923.901 0 1.638.282 2.21.845.572.563.858 1.287.858 2.171 0 .069-.009.169-.026.299a4.297 4.297 0 0 0-.013.221h-5.174c.06.667.286 1.196.676 1.586.398.381.91.572 1.534.572.502 0 .918-.113 1.248-.338.329-.225.563-.555.702-.988l.988.182a2.53 2.53 0 0 1-1.027 1.508c-.52.364-1.157.546-1.911.546Zm-.065-5.72c-.538 0-.997.165-1.378.494-.382.321-.624.754-.728 1.3h4.082c-.035-.529-.239-.958-.611-1.287-.364-.338-.819-.507-1.365-.507Zm7.592 7.631h-.975v-2.899h.598c.251-.243.429-.602.533-1.079.104-.477.178-1.218.221-2.223l.078-2.21h4.563v5.512h.871v2.899h-.988v-2.015h-4.901v2.015Zm1.417-7.527-.052 1.287c-.035.867-.108 1.569-.221 2.106-.104.529-.256.94-.455 1.235h3.315v-4.628h-2.587Zm8.873 5.512h-3.016v-6.396h2.886c.581 0 1.044.147 1.391.442.347.295.52.693.52 1.196 0 .329-.082.615-.247.858a1.412 1.412 0 0 1-.689.546c.39.095.689.282.897.559.217.269.325.602.325 1.001 0 .537-.195.971-.585 1.3-.381.329-.875.494-1.482.494Zm.78-4.641c0-.303-.091-.529-.273-.676-.173-.156-.433-.234-.78-.234h-1.742v1.846h1.807c.321 0 .563-.078.728-.234.173-.165.26-.399.26-.702Zm-2.795 3.783h1.781c.407 0 .715-.087.923-.26.217-.173.325-.425.325-.754s-.1-.576-.299-.741c-.199-.173-.485-.26-.858-.26h-1.872v2.015Zm8.496.962c-.979 0-1.772-.308-2.379-.923-.598-.624-.897-1.43-.897-2.418 0-.945.304-1.725.91-2.34.607-.615 1.374-.923 2.301-.923.902 0 1.638.282 2.21.845.572.563.858 1.287.858 2.171 0 .069-.008.169-.026.299-.008.121-.013.195-.013.221h-5.174c.061.667.286 1.196.676 1.586.399.381.91.572 1.534.572.503 0 .919-.113 1.248-.338.33-.225.564-.555.702-.988l.988.182a2.526 2.526 0 0 1-1.027 1.508c-.52.364-1.157.546-1.911.546Zm-.065-5.72c-.537 0-.996.165-1.378.494-.381.321-.624.754-.728 1.3h4.082c-.034-.529-.238-.958-.611-1.287-.364-.338-.819-.507-1.365-.507Zm8.581 5.616h-1.014v-6.396h1.014v2.574h3.367v-2.574h1.027v6.396h-1.027v-2.925h-3.367v2.925Zm9.296.104c-.979 0-1.772-.308-2.379-.923-.598-.624-.897-1.43-.897-2.418 0-.945.303-1.725.91-2.34.607-.615 1.374-.923 2.301-.923.901 0 1.638.282 2.21.845.572.563.858 1.287.858 2.171 0 .069-.009.169-.026.299a4.297 4.297 0 0 0-.013.221h-5.174c.061.667.286 1.196.676 1.586.399.381.91.572 1.534.572.503 0 .919-.113 1.248-.338.329-.225.563-.555.702-.988l.988.182a2.526 2.526 0 0 1-1.027 1.508c-.52.364-1.157.546-1.911.546Zm-.065-5.72c-.537 0-.997.165-1.378.494-.381.321-.624.754-.728 1.3h4.082c-.035-.529-.238-.958-.611-1.287-.364-.338-.819-.507-1.365-.507Zm4.736 7.631h-.975v-2.899h.598c.251-.243.429-.602.533-1.079.104-.477.178-1.218.221-2.223l.078-2.21h4.563v5.512h.871v2.899h-.988v-2.015h-4.901v2.015Zm1.417-7.527-.052 1.287c-.035.867-.108 1.569-.221 2.106-.104.529-.256.94-.455 1.235h3.315v-4.628h-2.587Zm8.626 5.616c-.98 0-1.773-.308-2.379-.923-.598-.624-.897-1.43-.897-2.418 0-.945.303-1.725.91-2.34.606-.615 1.373-.923 2.301-.923.901 0 1.638.282 2.21.845.572.563.858 1.287.858 2.171 0 .069-.009.169-.026.299a4.297 4.297 0 0 0-.013.221h-5.174c.06.667.286 1.196.676 1.586.398.381.91.572 1.534.572.502 0 .918-.113 1.248-.338.329-.225.563-.555.702-.988l.988.182a2.53 2.53 0 0 1-1.027 1.508c-.52.364-1.157.546-1.911.546Zm-.065-5.72c-.538 0-.997.165-1.378.494-.382.321-.624.754-.728 1.3h4.082c-.035-.529-.239-.958-.611-1.287-.364-.338-.819-.507-1.365-.507Zm3.683 5.629.13-.871c.052.009.095.017.13.026h.104c.364 0 .624-.26.78-.78.165-.52.269-1.361.312-2.522l.091-2.262h4.485v6.396h-1.027v-5.512h-2.496l-.052 1.482c-.061 1.456-.238 2.509-.533 3.159-.295.65-.771.975-1.43.975-.095 0-.178-.009-.247-.026a1.167 1.167 0 0 1-.247-.065Zm9.137-.013h-.975v-6.396h.975v4.901l3.406-4.901h.975v6.396h-.975V130.1l-3.406 4.901Z" fill="#000"/><path fill-rule="evenodd" clip-rule="evenodd" d="m50.893 159.568-2.229-1.981a1 1 0 1 0-1.328 1.495l3 2.666a1 1 0 0 0 1.432-.107l5-6a1 1 0 1 0-1.536-1.28l-4.34 5.207Z" fill="#6FADAA"/><path d="M71.587 163.001h-1.105v-9.75h1.105v4.069h5.642v-4.069h1.105v9.75h-1.105v-4.667h-5.642v4.667Zm10.258 0h-.975v-6.396h.975v4.901l3.406-4.901h.975v6.396h-.975V158.1l-3.406 4.901Zm6.515 0v-6.396h1.014v2.548h.949l2.184-2.548h1.209l-2.587 3.003 2.808 3.393h-1.248l-2.418-2.86h-.897v2.86H88.36Zm11.604 0h-.936l-.026-1.274c-.251.442-.59.784-1.014 1.027a2.814 2.814 0 0 1-1.404.351c-.615 0-1.105-.16-1.469-.481-.364-.321-.546-.75-.546-1.287 0-.52.19-.945.572-1.274.381-.329 1.044-.615 1.99-.858l1.845-.442c-.052-.451-.22-.793-.507-1.027-.277-.243-.659-.364-1.144-.364-.485 0-.88.108-1.183.325-.303.217-.511.537-.624.962l-.962-.182c.147-.615.468-1.096.962-1.443.494-.355 1.1-.533 1.82-.533.815 0 1.456.221 1.924.663.468.442.702 1.053.702 1.833v4.004Zm-4.329-1.755c0 .303.1.546.3.728.198.173.467.26.805.26.641 0 1.174-.23 1.6-.689.432-.468.65-1.07.65-1.807v-.143l-1.847.455c-.546.139-.936.303-1.17.494a.862.862 0 0 0-.338.702Zm6.334 1.755v-6.396h1.014v2.548h.949l2.184-2.548h1.209l-2.587 3.003 2.808 3.393h-1.248l-2.418-2.86h-.897v2.86h-1.014Zm7.678 0h-.975v-6.396h.975v4.901l3.406-4.901h.975v6.396h-.975V158.1l-3.406 4.901Zm5.606-6.396h1.209l1.69 2.353 1.599-2.353h1.144l-2.171 3.133 2.34 3.263h-1.196l-1.82-2.522-1.69 2.522h-1.105l2.223-3.315-2.223-3.081Zm9.886 8.411h-.975v-2.899h.598c.251-.243.429-.602.533-1.079.104-.477.178-1.218.221-2.223l.078-2.21h4.563v5.512h.871v2.899h-.988v-2.015h-4.901v2.015Zm1.417-7.527-.052 1.287c-.035.867-.108 1.569-.221 2.106-.104.529-.256.94-.455 1.235h3.315v-4.628h-2.587Zm5.35 2.301c0-.953.312-1.738.936-2.353.624-.624 1.412-.936 2.366-.936.953 0 1.742.312 2.366.936.624.615.936 1.4.936 2.353 0 .962-.312 1.755-.936 2.379-.624.624-1.413.936-2.366.936-.954 0-1.742-.312-2.366-.936-.624-.624-.936-1.417-.936-2.379Zm5.538 0c0-.693-.208-1.257-.624-1.69-.416-.442-.954-.663-1.612-.663-.659 0-1.196.221-1.612.663-.416.433-.624.997-.624 1.69 0 .702.208 1.274.624 1.716.416.442.953.663 1.612.663.658 0 1.196-.221 1.612-.663.416-.442.624-1.014.624-1.716Zm3.701 3.211h-1.014v-6.396h5.33v6.396h-1.027v-5.512h-3.289v5.512Zm5.944-3.211c0-.953.312-1.738.936-2.353.624-.624 1.413-.936 2.366-.936.954 0 1.742.312 2.366.936.624.615.936 1.4.936 2.353 0 .962-.312 1.755-.936 2.379-.624.624-1.412.936-2.366.936-.953 0-1.742-.312-2.366-.936-.624-.624-.936-1.417-.936-2.379Zm5.538 0c0-.693-.208-1.257-.624-1.69-.416-.442-.953-.663-1.612-.663-.658 0-1.196.221-1.612.663-.416.433-.624.997-.624 1.69 0 .702.208 1.274.624 1.716.416.442.954.663 1.612.663.659 0 1.196-.221 1.612-.663.416-.442.624-1.014.624-1.716Zm1.661 3.224.13-.871c.052.009.095.017.13.026h.104c.364 0 .624-.26.78-.78.165-.52.269-1.361.312-2.522l.091-2.262h4.485v6.396h-1.027v-5.512h-2.496l-.052 1.482c-.061 1.456-.238 2.509-.533 3.159-.295.65-.771.975-1.43.975-.095 0-.178-.009-.247-.026a1.167 1.167 0 0 1-.247-.065Zm9.176-.013h-1.014v-6.396h1.014v2.574h3.367v-2.574h1.027v6.396h-1.027v-2.925h-3.367v2.925Zm7.502 0h-.975v-6.396h.975v4.901l3.406-4.901h.975v6.396h-.975V158.1l-3.406 4.901Zm8.959 0h-1.027v-5.512h-2.223v-.884h5.473v.884h-2.223v5.512Zm6.139.104c-.979 0-1.772-.308-2.379-.923-.598-.624-.897-1.43-.897-2.418 0-.945.304-1.725.91-2.34.607-.615 1.374-.923 2.301-.923.902 0 1.638.282 2.21.845.572.563.858 1.287.858 2.171 0 .069-.008.169-.026.299-.008.121-.013.195-.013.221h-5.174c.061.667.286 1.196.676 1.586.399.381.91.572 1.534.572.503 0 .919-.113 1.248-.338.33-.225.564-.555.702-.988l.988.182a2.526 2.526 0 0 1-1.027 1.508c-.52.364-1.157.546-1.911.546Zm-.065-5.72c-.537 0-.996.165-1.378.494-.381.321-.624.754-.728 1.3h4.082c-.034-.529-.238-.958-.611-1.287-.364-.338-.819-.507-1.365-.507Zm3.684 5.629.13-.871c.052.009.095.017.13.026h.104c.364 0 .624-.26.78-.78.164-.52.268-1.361.312-2.522l.091-2.262h4.485v6.396h-1.027v-5.512h-2.496l-.052 1.482c-.061 1.456-.239 2.509-.533 3.159-.295.65-.772.975-1.43.975a1.04 1.04 0 0 1-.247-.026 1.152 1.152 0 0 1-.247-.065Zm10.891-.013h-2.73v-6.396h1.014v2.145h1.716c.676 0 1.218.195 1.625.585.416.39.624.906.624 1.547 0 .633-.208 1.144-.624 1.534-.407.39-.949.585-1.625.585Zm1.183-2.119c0-.407-.117-.715-.351-.923-.225-.208-.563-.312-1.014-.312h-1.534v2.47h1.534c.442 0 .78-.104 1.014-.312.234-.217.351-.524.351-.923Zm3.436 2.119h-1.014v-6.396h1.014v2.574h3.367v-2.574h1.027v6.396h-1.027v-2.925h-3.367v2.925Zm9.218 0h-2.691v-6.396h1.014v2.145h1.677c.676 0 1.218.195 1.625.585.416.39.624.906.624 1.547 0 .633-.208 1.144-.624 1.534-.407.39-.949.585-1.625.585Zm4.069 0h-1.014v-6.396h1.014v6.396Zm-2.886-2.119c0-.407-.117-.715-.351-.923-.225-.208-.563-.312-1.014-.312h-1.495v2.47h1.495c.442 0 .78-.104 1.014-.312.234-.217.351-.524.351-.923Zm4.103-4.277h1.209l1.69 2.353 1.599-2.353h1.144l-2.171 3.133 2.34 3.263h-1.196l-1.82-2.522-1.69 2.522h-1.105l2.223-3.315-2.223-3.081Zm10.874 6.396h-1.014v-6.396h5.33v6.396h-1.027v-5.512h-3.289v5.512Zm5.424.013.13-.871c.052.009.095.017.13.026h.104c.364 0 .624-.26.78-.78.165-.52.269-1.361.312-2.522l.091-2.262h4.485v6.396H241v-5.512h-2.496l-.052 1.482c-.061 1.456-.238 2.509-.533 3.159-.295.65-.771.975-1.43.975-.095 0-.178-.009-.247-.026a1.167 1.167 0 0 1-.247-.065Zm13.063-.013h-.936l-.026-1.274c-.252.442-.59.784-1.014 1.027a2.814 2.814 0 0 1-1.404.351c-.616 0-1.105-.16-1.469-.481-.364-.321-.546-.75-.546-1.287 0-.52.19-.945.572-1.274.381-.329 1.044-.615 1.989-.858l1.846-.442c-.052-.451-.221-.793-.507-1.027-.278-.243-.659-.364-1.144-.364-.486 0-.88.108-1.183.325-.304.217-.512.537-.624.962l-.962-.182c.147-.615.468-1.096.962-1.443.494-.355 1.1-.533 1.82-.533.814 0 1.456.221 1.924.663.468.442.702 1.053.702 1.833v4.004Zm-4.329-1.755c0 .303.099.546.299.728.199.173.468.26.806.26.641 0 1.174-.23 1.599-.689.433-.468.65-1.07.65-1.807v-.143l-1.846.455c-.546.139-.936.303-1.17.494a.86.86 0 0 0-.338.702Zm8.778 1.755h-1.027v-5.512h-2.223v-.884h5.473v.884h-2.223v5.512Zm6.14.104c-.98 0-1.773-.308-2.379-.923-.598-.624-.897-1.43-.897-2.418 0-.945.303-1.725.91-2.34.606-.615 1.373-.923 2.301-.923.901 0 1.638.282 2.21.845.572.563.858 1.287.858 2.171 0 .069-.009.169-.026.299a4.297 4.297 0 0 0-.013.221h-5.174c.06.667.286 1.196.676 1.586.398.381.91.572 1.534.572.502 0 .918-.113 1.248-.338.329-.225.563-.555.702-.988l.988.182a2.53 2.53 0 0 1-1.027 1.508c-.52.364-1.157.546-1.911.546Zm-.065-5.72c-.538 0-.997.165-1.378.494-.382.321-.624.754-.728 1.3h4.082c-.035-.529-.239-.958-.611-1.287-.364-.338-.819-.507-1.365-.507Zm3.802-.78h1.157l1.807 2.587h.845v-2.587h.975v2.587H269l1.833-2.587h1.144l-2.197 2.99 2.366 3.406h-1.17l-2.015-2.899h-.793v2.899h-.975v-2.899h-.806l-2.028 2.899h-1.131l2.34-3.341-2.184-3.055Zm12.386 6.5c-.98 0-1.773-.308-2.379-.923-.598-.624-.897-1.43-.897-2.418 0-.945.303-1.725.91-2.34.606-.615 1.373-.923 2.301-.923.901 0 1.638.282 2.21.845.572.563.858 1.287.858 2.171 0 .069-.009.169-.026.299a4.297 4.297 0 0 0-.013.221h-5.174c.06.667.286 1.196.676 1.586.398.381.91.572 1.534.572.502 0 .918-.113 1.248-.338.329-.225.563-.555.702-.988l.988.182a2.53 2.53 0 0 1-1.027 1.508c-.52.364-1.157.546-1.911.546Zm-.065-5.72c-.538 0-.997.165-1.378.494-.382.321-.624.754-.728 1.3h4.082c-.035-.529-.239-.958-.611-1.287-.364-.338-.819-.507-1.365-.507Zm7.44-2.665c.32 0 .572-.082.754-.247.182-.173.277-.416.286-.728h.897c0 .537-.178.971-.533 1.3-.356.321-.824.481-1.404.481-.581 0-1.049-.16-1.404-.481-.347-.321-.525-.754-.533-1.3h.91c0 .303.091.542.273.715.182.173.433.26.754.26Zm-1.755 8.281h-.975v-6.396h.975v4.901l3.406-4.901h.975v6.396h-.975V158.1l-3.406 4.901Zm8.565-3.328v-.975h12.48v.975h-12.48Zm16.663 3.328v-6.396h1.014v2.548h.949l2.184-2.548h1.209l-2.587 3.003 2.808 3.393h-1.248l-2.418-2.86h-.897v2.86h-1.014Zm11.604 0h-.936l-.026-1.274a2.683 2.683 0 0 1-1.014 1.027 2.814 2.814 0 0 1-1.404.351c-.615 0-1.105-.16-1.469-.481-.364-.321-.546-.75-.546-1.287 0-.52.191-.945.572-1.274.381-.329 1.044-.615 1.989-.858l1.846-.442c-.052-.451-.221-.793-.507-1.027-.277-.243-.659-.364-1.144-.364-.485 0-.88.108-1.183.325-.303.217-.511.537-.624.962l-.962-.182c.147-.615.468-1.096.962-1.443.494-.355 1.101-.533 1.82-.533.815 0 1.456.221 1.924.663.468.442.702 1.053.702 1.833v4.004Zm-4.329-1.755c0 .303.1.546.299.728.199.173.468.26.806.26.641 0 1.174-.23 1.599-.689.433-.468.65-1.07.65-1.807v-.143l-1.846.455c-.546.139-.936.303-1.17.494a.863.863 0 0 0-.338.702Zm6.334 1.755v-6.396h1.014v2.548h.949l2.184-2.548h1.209l-2.587 3.003 2.808 3.393h-1.248l-2.418-2.86h-.897v2.86h-1.014Zm9.053-3.211c0-.953.312-1.738.936-2.353.624-.624 1.412-.936 2.366-.936.953 0 1.742.312 2.366.936.624.615.936 1.4.936 2.353 0 .962-.312 1.755-.936 2.379-.624.624-1.413.936-2.366.936-.954 0-1.742-.312-2.366-.936-.624-.624-.936-1.417-.936-2.379Zm5.538 0c0-.693-.208-1.257-.624-1.69-.416-.442-.954-.663-1.612-.663-.659 0-1.196.221-1.612.663-.416.433-.624.997-.624 1.69 0 .702.208 1.274.624 1.716.416.442.953.663 1.612.663.658 0 1.196-.221 1.612-.663.416-.442.624-1.014.624-1.716Zm8.953 0c0 .979-.307 1.777-.923 2.392-.606.615-1.399.923-2.379.923-1.074 0-1.906-.377-2.496-1.131-.58-.754-.871-1.829-.871-3.224 0-1.69.317-2.96.949-3.809.633-.858 1.621-1.356 2.964-1.495l1.027-.117c.208-.017.39-.039.546-.065.156-.026.343-.065.559-.117l.117.884a3.404 3.404 0 0 1-.429.117c-.156.026-.42.061-.793.104l-1.066.117c-.944.104-1.642.438-2.093 1.001-.45.563-.71 1.408-.78 2.535a2.741 2.741 0 0 1 1.105-1.027c.46-.243.975-.364 1.547-.364.876 0 1.595.308 2.158.923.572.615.858 1.4.858 2.353Zm-1.066 0c0-.711-.203-1.283-.611-1.716-.398-.442-.927-.663-1.586-.663-.667 0-1.213.225-1.638.676-.424.442-.637 1.01-.637 1.703 0 .702.208 1.274.624 1.716.416.442.954.663 1.612.663.659 0 1.196-.221 1.612-.663.416-.442.624-1.014.624-1.716Zm5.388 3.211h-2.691v-6.396h1.014v2.145h1.677c.676 0 1.218.195 1.625.585.416.39.624.906.624 1.547 0 .633-.208 1.144-.624 1.534-.407.39-.949.585-1.625.585Zm4.069 0h-1.014v-6.396h1.014v6.396Zm-2.886-2.119c0-.407-.117-.715-.351-.923-.225-.208-.563-.312-1.014-.312h-1.495v2.47h1.495c.442 0 .78-.104 1.014-.312.234-.217.351-.524.351-.923Zm6.989-.26c-.806 0-1.417-.182-1.833-.546-.416-.373-.624-.919-.624-1.638v-1.833h1.014v1.703c0 .468.134.823.403 1.066.277.234.68.351 1.209.351.251 0 .485-.017.702-.052.225-.035.481-.091.767-.169v-2.899h1.027v6.396h-1.027v-2.626a8.572 8.572 0 0 1-.845.195 5.762 5.762 0 0 1-.793.052Zm5.817 2.379h-1.014v-6.396h1.014v2.574h3.367v-2.574h1.027v6.396h-1.027v-2.925h-3.367v2.925Zm11.428 0h-.936l-.026-1.274a2.683 2.683 0 0 1-1.014 1.027 2.814 2.814 0 0 1-1.404.351c-.615 0-1.105-.16-1.469-.481-.364-.321-.546-.75-.546-1.287 0-.52.191-.945.572-1.274.381-.329 1.044-.615 1.989-.858l1.846-.442c-.052-.451-.221-.793-.507-1.027-.277-.243-.659-.364-1.144-.364-.485 0-.88.108-1.183.325-.303.217-.511.537-.624.962l-.962-.182c.147-.615.468-1.096.962-1.443.494-.355 1.101-.533 1.82-.533.815 0 1.456.221 1.924.663.468.442.702 1.053.702 1.833v4.004Zm-4.329-1.755c0 .303.1.546.299.728.199.173.468.26.806.26.641 0 1.174-.23 1.599-.689.433-.468.65-1.07.65-1.807v-.143l-1.846.455c-.546.139-.936.303-1.17.494a.863.863 0 0 0-.338.702Zm5.996-2.678c0-.581.187-1.053.559-1.417.373-.364.854-.546 1.443-.546h3.107v6.396h-1.001v-2.509h-1.43l-1.872 2.509h-1.144l1.924-2.574c-.485-.078-.871-.282-1.157-.611-.286-.338-.429-.754-.429-1.248Zm1.066-.026c0 .355.104.628.312.819.208.182.507.273.897.273h1.833v-2.184h-1.82c-.39 0-.693.095-.91.286-.208.182-.312.451-.312.806Zm8.528 1.248c0-.953.312-1.738.936-2.353.624-.624 1.413-.936 2.366-.936.953 0 1.742.312 2.366.936.624.615.936 1.4.936 2.353 0 .962-.312 1.755-.936 2.379-.624.624-1.413.936-2.366.936-.953 0-1.742-.312-2.366-.936-.624-.624-.936-1.417-.936-2.379Zm5.538 0c0-.693-.208-1.257-.624-1.69-.416-.442-.953-.663-1.612-.663-.659 0-1.196.221-1.612.663-.416.433-.624.997-.624 1.69 0 .702.208 1.274.624 1.716.416.442.953.663 1.612.663.659 0 1.196-.221 1.612-.663.416-.442.624-1.014.624-1.716Zm3.702 3.211h-1.014v-6.396h5.33v6.396H397.3v-5.512h-3.289v5.512Zm5.424.013.13-.871c.052.009.095.017.13.026h.104c.364 0 .624-.26.78-.78.164-.52.268-1.361.312-2.522l.091-2.262h4.485v6.396h-1.027v-5.512h-2.496l-.052 1.482c-.061 1.456-.239 2.509-.533 3.159-.295.65-.772.975-1.43.975a1.04 1.04 0 0 1-.247-.026 1.152 1.152 0 0 1-.247-.065Zm13.062-.013h-.936l-.026-1.274a2.683 2.683 0 0 1-1.014 1.027 2.814 2.814 0 0 1-1.404.351c-.615 0-1.105-.16-1.469-.481-.364-.321-.546-.75-.546-1.287 0-.52.191-.945.572-1.274.382-.329 1.045-.615 1.989-.858l1.846-.442c-.052-.451-.221-.793-.507-1.027-.277-.243-.658-.364-1.144-.364-.485 0-.879.108-1.183.325-.303.217-.511.537-.624.962l-.962-.182c.148-.615.468-1.096.962-1.443.494-.355 1.101-.533 1.82-.533.815 0 1.456.221 1.924.663.468.442.702 1.053.702 1.833v4.004Zm-4.329-1.755c0 .303.1.546.299.728.2.173.468.26.806.26.642 0 1.175-.23 1.599-.689.434-.468.65-1.07.65-1.807v-.143l-1.846.455c-.546.139-.936.303-1.17.494a.863.863 0 0 0-.338.702Zm8.779 1.755h-1.027v-5.512h-2.223v-.884h5.473v.884h-2.223v5.512Zm8.449 0h-.936l-.026-1.274c-.252.442-.59.784-1.014 1.027a2.814 2.814 0 0 1-1.404.351c-.616 0-1.105-.16-1.469-.481-.364-.321-.546-.75-.546-1.287 0-.52.19-.945.572-1.274.381-.329 1.044-.615 1.989-.858l1.846-.442c-.052-.451-.221-.793-.507-1.027-.278-.243-.659-.364-1.144-.364-.486 0-.88.108-1.183.325-.304.217-.512.537-.624.962l-.962-.182c.147-.615.468-1.096.962-1.443.494-.355 1.1-.533 1.82-.533.814 0 1.456.221 1.924.663.468.442.702 1.053.702 1.833v4.004Zm-4.329-1.755c0 .303.099.546.299.728.199.173.468.26.806.26.641 0 1.174-.23 1.599-.689.433-.468.65-1.07.65-1.807v-.143l-1.846.455c-.546.139-.936.303-1.17.494a.86.86 0 0 0-.338.702Zm9.19 1.755v-6.396h1.014v2.548h.949l2.184-2.548h1.209l-2.587 3.003 2.808 3.393h-1.248l-2.418-2.86h-.897v2.86h-1.014Zm11.605 0h-.936l-.026-1.274c-.252.442-.59.784-1.014 1.027a2.814 2.814 0 0 1-1.404.351c-.616 0-1.105-.16-1.469-.481-.364-.321-.546-.75-.546-1.287 0-.52.19-.945.572-1.274.381-.329 1.044-.615 1.989-.858l1.846-.442c-.052-.451-.221-.793-.507-1.027-.278-.243-.659-.364-1.144-.364-.486 0-.88.108-1.183.325-.304.217-.512.537-.624.962l-.962-.182c.147-.615.468-1.096.962-1.443.494-.355 1.1-.533 1.82-.533.814 0 1.456.221 1.924.663.468.442.702 1.053.702 1.833v4.004Zm-4.329-1.755c0 .303.099.546.299.728.199.173.468.26.806.26.641 0 1.174-.23 1.599-.689.433-.468.65-1.07.65-1.807v-.143l-1.846.455c-.546.139-.936.303-1.17.494a.86.86 0 0 0-.338.702Zm6.334 4.615v-9.256h.975l.026 1.105c.277-.39.615-.689 1.014-.897a2.871 2.871 0 0 1 1.326-.312c.892 0 1.633.312 2.223.936.589.624.884 1.408.884 2.353 0 .953-.295 1.746-.884 2.379-.59.624-1.331.936-2.223.936-.477 0-.915-.1-1.313-.299a2.904 2.904 0 0 1-1.014-.884v3.939h-1.014Zm5.382-6.071c0-.693-.204-1.257-.611-1.69-.408-.442-.932-.663-1.573-.663-.642 0-1.166.221-1.573.663-.408.433-.611.997-.611 1.69 0 .702.203 1.274.611 1.716.407.442.931.663 1.573.663.641 0 1.165-.221 1.573-.663.407-.442.611-1.014.611-1.716Zm5.136 3.211h-1.027v-5.512h-2.223v-.884h5.473v.884h-2.223v5.512Zm2.863-3.211c0-.953.312-1.738.936-2.353.624-.624 1.413-.936 2.366-.936.954 0 1.742.312 2.366.936.624.615.936 1.4.936 2.353 0 .962-.312 1.755-.936 2.379-.624.624-1.412.936-2.366.936-.953 0-1.742-.312-2.366-.936-.624-.624-.936-1.417-.936-2.379Zm5.538 0c0-.693-.208-1.257-.624-1.69-.416-.442-.953-.663-1.612-.663-.658 0-1.196.221-1.612.663-.416.433-.624.997-.624 1.69 0 .702.208 1.274.624 1.716.416.442.954.663 1.612.663.659 0 1.196-.221 1.612-.663.416-.442.624-1.014.624-1.716Zm5.418-5.07c.321 0 .572-.082.754-.247.182-.173.278-.416.286-.728h.897c0 .537-.177.971-.533 1.3-.355.321-.823.481-1.404.481-.58 0-1.048-.16-1.404-.481-.346-.321-.524-.754-.533-1.3h.91c0 .303.091.542.273.715.182.173.434.26.754.26Zm-1.755 8.281h-.975v-6.396h.975v4.901l3.406-4.901h.975v6.396h-.975V158.1l-3.406 4.901Z" fill="#000"/></svg>