<svg viewBox="0 0 288 170" fill="none" xmlns="http://www.w3.org/2000/svg" class="digi-dolyame-modal__body-image" style="padding:0 16px"><path fill-rule="evenodd" clip-rule="evenodd" d="m3.893 93.567-2.229-1.981A1 1 0 0 0 .336 93.08l3 2.666a1 1 0 0 0 1.432-.107l5-6a1 1 0 1 0-1.536-1.28l-4.34 5.207Z" fill="#6FADAA"/><path d="M23.365 92.69c-.398-.758-.597-1.613-.597-2.565s.199-1.807.597-2.564a4.363 4.363 0 0 1 1.676-1.771c.723-.428 1.546-.642 2.469-.642a4.92 4.92 0 0 1 1.93.375c.592.25 1.093.592 1.504 1.028.41.436.732.963.965 1.58.232.614.349 1.279.349 1.994a5.61 5.61 0 0 1-.35 1.993 4.765 4.765 0 0 1-.964 1.58c-.41.437-.912.78-1.505 1.03a4.92 4.92 0 0 1-1.93.374c-.922 0-1.745-.214-2.468-.642a4.417 4.417 0 0 1-1.676-1.77Zm6.754.291c.664-.732.996-1.684.996-2.856s-.332-2.124-.996-2.856c-.665-.733-1.534-1.099-2.61-1.099-1.087 0-1.959.367-2.614 1.099-.656.727-.984 1.68-.984 2.856s.328 2.13.983 2.863c.657.728 1.528 1.092 2.616 1.092 1.075 0 1.944-.367 2.609-1.099ZM35.102 95h-1.016v-6.398h5.332V95H38.39v-5.51h-3.288V95Zm5.42.013.134-.87c.084.017.167.025.247.025a.634.634 0 0 0 .381-.114c.106-.08.21-.228.311-.444.106-.22.19-.559.254-1.016.064-.457.108-1.032.133-1.726l.09-2.266h4.48V95h-1.021v-5.51H43.03l-.051 1.48c-.03.668-.082 1.246-.159 1.732-.076.487-.169.885-.279 1.194-.11.304-.245.547-.406.73-.161.181-.33.306-.508.374a1.672 1.672 0 0 1-.61.102c-.169 0-.334-.03-.495-.09ZM53.587 95h-.933l-.032-1.238a2.863 2.863 0 0 1-1.04.984 2.76 2.76 0 0 1-1.372.356c-.605 0-1.094-.16-1.466-.477-.369-.317-.553-.746-.553-1.288 0-.614.235-1.077.705-1.39.453-.296 1.069-.544 1.847-.743l1.854-.431c-.043-.458-.212-.805-.508-1.042-.292-.24-.673-.361-1.143-.361-.478 0-.873.11-1.187.33-.309.22-.518.54-.628.958l-.94-.184a2.252 2.252 0 0 1 .94-1.44c.503-.356 1.121-.534 1.853-.534.8 0 1.433.22 1.898.66.47.436.705 1.03.705 1.784V95Zm-4.342-1.752c0 .296.098.535.292.717.199.178.47.267.813.267.609 0 1.138-.224 1.587-.673.448-.448.672-1.056.672-1.822v-.146l-1.866.457c-.508.132-.884.288-1.13.47a.863.863 0 0 0-.368.73Zm8.284-.628c-.804 0-1.416-.187-1.835-.559-.414-.377-.622-.91-.622-1.6v-1.86h1.016v1.708c0 .466.133.819.4 1.06.27.237.666.356 1.187.356.52 0 1.018-.079 1.492-.235v-2.888h1.028V95h-1.029v-2.628a5.72 5.72 0 0 1-1.637.248ZM63.31 95h-.977v-6.398h.977v4.9l3.403-4.9h.977V95h-.977v-4.9L63.31 95Zm9.528 0h-3.015v-6.398h2.888c.58 0 1.044.146 1.39.438.348.291.521.691.521 1.2 0 .334-.085.626-.254.875a1.395 1.395 0 0 1-.685.533c.389.102.69.286.901.553.216.262.324.596.324 1.003 0 .554-.201.992-.603 1.314-.398.321-.887.482-1.467.482Zm-.273-5.548h-1.739v1.841h1.803c.317 0 .56-.083.73-.248.173-.165.26-.393.26-.685 0-.605-.351-.908-1.054-.908Zm-1.739 4.691h1.778c.41 0 .721-.087.933-.26.211-.174.317-.425.317-.756 0-.317-.102-.562-.305-.736-.199-.178-.482-.267-.85-.267h-1.873v2.02ZM81.452 95h-.933l-.032-1.238a2.863 2.863 0 0 1-1.04.984 2.76 2.76 0 0 1-1.372.356c-.605 0-1.094-.16-1.466-.477-.368-.317-.552-.746-.552-1.288 0-.614.234-1.077.704-1.39.453-.296 1.069-.544 1.847-.743l1.854-.431c-.042-.458-.212-.805-.508-1.042-.292-.24-.673-.361-1.142-.361-.479 0-.874.11-1.188.33-.308.22-.518.54-.628.958l-.94-.184a2.252 2.252 0 0 1 .94-1.44c.504-.356 1.122-.534 1.854-.534.8 0 1.432.22 1.898.66.47.436.704 1.03.704 1.784V95Zm-4.342-1.752c0 .296.098.535.292.717.2.178.47.267.813.267.61 0 1.138-.224 1.587-.673.448-.448.673-1.056.673-1.822v-.146l-1.867.457c-.507.132-.884.288-1.13.47a.863.863 0 0 0-.368.73Zm8.335-6.716c.195.17.442.254.743.254.3 0 .547-.085.742-.254.195-.173.294-.414.298-.723h.896c0 .541-.18.973-.54 1.294-.356.318-.821.477-1.397.477-.575 0-1.04-.16-1.396-.477-.355-.321-.535-.753-.54-1.294h.908c0 .309.095.55.286.723ZM84.435 95h-.977v-6.398h.978v4.9l3.402-4.9h.977V95h-.977v-4.9L84.436 95Zm8.957 0h-1.028v-5.51h-2.222v-.888h5.472v.888h-2.222V95Zm3.04-3.237c0-.944.303-1.723.908-2.336.605-.618 1.37-.927 2.292-.927.914 0 1.654.277 2.222.832.571.558.856 1.278.856 2.158 0 .004-.012.178-.038.52h-5.198c.055.715.273 1.26.653 1.632.386.368.895.552 1.53.552.563 0 1.022-.119 1.378-.356a1.7 1.7 0 0 0 .704-.996l.933.184c-.135.626-.478 1.13-1.028 1.51-.55.377-1.212.566-1.987.566-.973 0-1.754-.312-2.342-.934-.588-.626-.882-1.428-.882-2.405Zm4.641-1.892c-.385-.334-.866-.501-1.441-.501-.576 0-1.062.169-1.46.507a1.854 1.854 0 0 0-.673 1.289h4.202a1.798 1.798 0 0 0-.628-1.295ZM108.227 95h-1.016v-6.398h5.332V95h-1.028v-5.51h-3.288V95Zm6.874-5.567c.622-.622 1.411-.933 2.368-.933.956 0 1.745.311 2.367.933.622.622.934 1.407.934 2.355 0 .96-.312 1.754-.934 2.38-.622.622-1.411.934-2.367.934-.957 0-1.746-.312-2.368-.934-.622-.626-.933-1.42-.933-2.38 0-.948.311-1.733.933-2.355Zm2.368 0c-.643 0-1.177.218-1.6.654-.423.436-.635 1.003-.635 1.701 0 .707.212 1.278.635 1.714.419.444.952.666 1.6.666.643 0 1.18-.222 1.612-.666.419-.444.628-1.016.628-1.714 0-.69-.209-1.257-.628-1.701-.436-.436-.973-.654-1.612-.654ZM122.395 95v-6.398h1.015v2.551h.946l2.184-2.551h1.212l-2.59 3.002L127.974 95h-1.25l-2.419-2.863h-.895V95h-1.015Zm8.651-.05-2.786-6.348h1.149l2.196 5.046 1.987-5.046h1.079l-3.733 9.26h-1.066l1.174-2.913Zm5.821.05h-1.015v-6.398h5.332V95h-1.029v-5.51h-3.288V95Zm6.449 0v-6.398h1.016v2.551h.946l2.183-2.551h1.213l-2.59 3.002L148.896 95h-1.25l-2.419-2.863h-.895V95h-1.016Zm7.681 0h-.977v-6.398h.977v4.9l3.402-4.9h.978V95h-.978v-4.9l-3.402 4.9Zm11.343-2.38c-.804 0-1.415-.187-1.834-.559-.415-.377-.622-.91-.622-1.6v-1.86h1.015v1.708c0 .466.134.819.4 1.06.271.237.667.356 1.187.356.521 0 1.018-.079 1.492-.235v-2.888h1.028V95h-1.028v-2.628c-.554.165-1.1.248-1.638.248Zm9.706 2.38h-.933l-.032-1.238a2.87 2.87 0 0 1-1.041.984 2.76 2.76 0 0 1-1.371.356c-.605 0-1.094-.16-1.466-.477-.369-.317-.553-.746-.553-1.288 0-.614.235-1.077.705-1.39.453-.296 1.069-.544 1.847-.743l1.854-.431c-.043-.458-.212-.805-.508-1.042-.292-.24-.673-.361-1.143-.361-.478 0-.874.11-1.187.33-.309.22-.518.54-.628.958l-.94-.184a2.251 2.251 0 0 1 .94-1.44c.503-.356 1.121-.534 1.853-.534.8 0 1.433.22 1.898.66.47.436.705 1.03.705 1.784V95Zm-4.342-1.752c0 .296.097.535.292.717.199.178.47.267.813.267.609 0 1.138-.224 1.587-.673.448-.448.672-1.056.672-1.822v-.146l-1.866.457c-.508.132-.884.288-1.13.47a.864.864 0 0 0-.368.73Zm7.528-3.174c-.414.428-.622.99-.622 1.689 0 .698.203 1.273.61 1.726.398.453.914.68 1.549.68.537 0 .981-.142 1.333-.426.351-.288.577-.67.679-1.149l.977.172c-.114.664-.444 1.218-.99 1.663-.537.448-1.204.673-1.999.673-.931 0-1.702-.316-2.311-.946-.609-.635-.914-1.433-.914-2.393 0-.94.307-1.718.92-2.336.614-.618 1.382-.927 2.305-.927.77 0 1.415.203 1.936.61.524.406.863.951 1.015 1.637l-.99.184a1.946 1.946 0 0 0-.686-1.092c-.338-.27-.759-.406-1.263-.406-.635 0-1.151.214-1.549.641ZM183.656 95h-1.029v-5.51h-2.221v-.888h5.471v.888h-2.221V95Zm3.212-4.43c0-.576.184-1.048.552-1.416.372-.368.855-.552 1.447-.552h3.111V95h-1.003v-2.507h-1.429L187.674 95h-1.149l1.942-2.577c-.478-.08-.865-.286-1.161-.616-.292-.334-.438-.747-.438-1.238Zm2.247 1.066h1.86v-2.184h-1.848c-.385 0-.687.093-.907.28-.22.181-.33.452-.33.812 0 .36.108.633.323.819.22.182.521.273.902.273ZM195.088 95h-.978v-6.398h1.054l2.273 2.99 2.291-2.99h1.054V95h-.978v-5.046l-2.272 2.977h-.235l-2.209-2.92V95Zm8.798 0h-.978v-6.398h.978v4.9l3.402-4.9h.978V95h-.978v-4.9l-3.402 4.9Zm8.822-2.977v-1.014h11.96v1.014h-11.96ZM230.127 95h-1.016v-6.398h5.332V95h-1.028v-5.51h-3.288V95Zm6.874-5.567c.623-.622 1.412-.933 2.368-.933.957 0 1.746.311 2.368.933.622.622.933 1.407.933 2.355 0 .96-.311 1.754-.933 2.38-.622.622-1.411.934-2.368.934-.956 0-1.745-.312-2.368-.934-.622-.626-.933-1.42-.933-2.38 0-.948.311-1.733.933-2.355Zm2.368 0c-.643 0-1.176.218-1.599.654-.424.436-.635 1.003-.635 1.701 0 .707.211 1.278.635 1.714.418.444.952.666 1.599.666.643 0 1.181-.222 1.612-.666.419-.444.629-1.016.629-1.714 0-.69-.21-1.257-.629-1.701-.435-.436-.973-.654-1.612-.654Zm8.925 4.539h4.71V95h-6.202v-.908l2.933-3.047c.639-.639 1.106-1.184 1.403-1.637.296-.453.444-.925.444-1.416 0-.541-.178-.982-.533-1.32-.356-.343-.811-.514-1.365-.514-.491 0-.937.144-1.339.431-.415.31-.665.785-.749 1.429l-1.067-.223c.102-.575.309-1.064.622-1.466.314-.406.69-.704 1.13-.895.44-.19.925-.286 1.454-.286.872 0 1.583.259 2.133.775.554.516.831 1.197.831 2.044 0 .677-.186 1.28-.558 1.809-.347.49-.857 1.087-1.53 1.79l-2.317 2.406Zm12.384-2.133c0 .952-.315 1.735-.946 2.349-.626.609-1.451.914-2.475.914-.838 0-1.553-.21-2.146-.629-.588-.423-.973-1.045-1.155-1.866l1.079-.311c.148.613.423 1.066.825 1.358.407.292.881.438 1.422.438.639 0 1.181-.205 1.625-.615.423-.394.635-.936.635-1.625 0-.635-.203-1.173-.609-1.613-.415-.415-.94-.622-1.575-.622-.419 0-.791.07-1.117.21a1.85 1.85 0 0 0-.768.596l-.869-.273.831-4.9h4.85v.99h-3.98l-.502 2.87c.504-.301 1.071-.451 1.701-.451.927 0 1.687.298 2.279.895.597.592.895 1.354.895 2.285Zm3.113-6.251c.641 0 1.127.256 1.456.767.329.503.494 1.213.494 2.132s-.16 1.638-.481 2.158c-.312.511-.802.767-1.469.767-.615 0-1.088-.256-1.417-.767-.321-.52-.481-1.24-.481-2.158 0-.919.152-1.63.455-2.132.303-.511.784-.767 1.443-.767Zm5.941.13L264.584 95h-1.001l5.148-9.282h1.001Zm-5.941.676c-.329 0-.572.178-.728.533-.147.347-.221.867-.221 1.56 0 .693.074 1.218.221 1.573.156.355.399.533.728.533.667 0 1.001-.702 1.001-2.106 0-1.395-.334-2.093-1.001-2.093Zm5.681 2.912c.633 0 1.114.256 1.443.767.338.503.507 1.213.507 2.132s-.16 1.638-.481 2.158c-.312.511-.802.767-1.469.767-.615 0-1.088-.256-1.417-.767-.321-.52-.481-1.24-.481-2.158 0-.919.152-1.63.455-2.132.303-.511.784-.767 1.443-.767Zm0 .819c-.329 0-.572.173-.728.52-.147.347-.221.867-.221 1.56 0 .702.074 1.23.221 1.586.156.347.399.52.728.52.667 0 1.001-.702 1.001-2.106 0-1.387-.334-2.08-1.001-2.08ZM23.066 115v-6.398h1.016v2.551h.946l2.183-2.551h1.213l-2.59 3.002L28.646 115h-1.25l-2.419-2.863h-.895V115h-1.016Zm11.604 0h-.933l-.032-1.238a2.863 2.863 0 0 1-1.04.984 2.76 2.76 0 0 1-1.372.356c-.605 0-1.094-.159-1.466-.477-.369-.317-.553-.746-.553-1.288 0-.614.235-1.077.705-1.39.453-.296 1.069-.544 1.847-.743l1.854-.432c-.043-.457-.212-.804-.508-1.041-.292-.241-.673-.361-1.143-.361-.478 0-.874.11-1.187.33-.309.22-.518.539-.628.958l-.94-.184a2.253 2.253 0 0 1 .94-1.441c.503-.355 1.121-.533 1.853-.533.8 0 1.433.22 1.898.66.47.436.705 1.031.705 1.784V115Zm-4.342-1.752c0 .296.098.535.292.717.199.178.47.267.813.267.609 0 1.138-.224 1.587-.673.448-.448.672-1.056.672-1.822v-.146l-1.866.457c-.508.132-.884.288-1.13.47a.863.863 0 0 0-.368.73Zm5.529-4.646h1.155l1.81 2.589h.843v-2.589h.978v2.589h.832l1.828-2.589h1.149l-2.197 2.989L44.617 115h-1.168l-2.012-2.901h-.794V115h-.977v-2.901h-.807L36.834 115h-1.136l2.343-3.339-2.184-3.059Zm10.175 8.41h-.99v-2.894h.603c.245-.246.423-.595.533-1.048.114-.457.186-1.208.216-2.253l.095-2.215h4.552v5.516h.87v2.894h-.991V115h-4.888v2.012Zm1.403-7.522-.05 1.282c-.051 1.651-.276 2.766-.674 3.346h3.314v-4.628h-2.59ZM60.181 115h-1.01v-6.398h1.01V115Zm-4.158 0h-2.73v-6.398h1.017v2.145h1.713c.677 0 1.221.195 1.632.584.41.389.615.906.615 1.549 0 .635-.207 1.147-.622 1.536-.41.389-.952.584-1.625.584Zm-.184-3.352h-1.53v2.47h1.53c.44 0 .777-.106 1.01-.318.237-.216.355-.522.355-.92s-.118-.703-.355-.914c-.233-.212-.57-.318-1.01-.318Zm5.974.115c0-.944.302-1.723.907-2.336.605-.618 1.37-.927 2.292-.927.914 0 1.654.277 2.221.832.572.558.857 1.278.857 2.158l-.038.52h-5.199c.055.715.273 1.259.654 1.632.385.368.895.552 1.53.552.563 0 1.022-.119 1.378-.356a1.7 1.7 0 0 0 .704-.996l.933.184c-.135.626-.478 1.13-1.028 1.511-.55.376-1.213.565-1.987.565-.973 0-1.754-.311-2.342-.934-.588-.626-.883-1.428-.883-2.405Zm4.64-1.892c-.386-.334-.866-.501-1.441-.501-.576 0-1.063.169-1.46.507a1.856 1.856 0 0 0-.673 1.289h4.202a1.797 1.797 0 0 0-.628-1.295Zm6.163 7.141h-.99v-2.894h.603c.245-.246.423-.595.533-1.048.114-.457.186-1.208.216-2.253l.095-2.215h4.552v5.516h.87v2.894h-.991V115h-4.888v2.012Zm1.403-7.522-.05 1.282c-.051 1.651-.276 2.766-.674 3.346h3.314v-4.628h-2.59Zm8.874 5.51h-3.015v-6.398h2.888c.58 0 1.043.146 1.39.438.347.292.52.691.52 1.199 0 .335-.084.627-.253.876a1.391 1.391 0 0 1-.686.533c.39.102.69.286.902.553.216.262.323.596.323 1.003 0 .554-.2.992-.603 1.314-.397.321-.886.482-1.466.482Zm-.273-5.548h-1.74v1.841h1.804c.317 0 .56-.083.73-.248.173-.165.26-.393.26-.685 0-.605-.351-.908-1.054-.908Zm-1.74 4.691h1.778c.41 0 .722-.087.933-.26.212-.174.318-.425.318-.756 0-.317-.102-.562-.305-.736-.199-.178-.482-.266-.85-.266H80.88v2.018Zm5.219-2.38c0-.944.302-1.723.907-2.336.606-.618 1.37-.927 2.292-.927.914 0 1.654.277 2.221.832.572.558.857 1.278.857 2.158l-.038.52H87.14c.055.715.273 1.259.653 1.632.385.368.895.552 1.53.552.563 0 1.022-.119 1.378-.356a1.7 1.7 0 0 0 .704-.996l.933.184c-.135.626-.478 1.13-1.028 1.511-.55.376-1.212.565-1.987.565-.973 0-1.754-.311-2.342-.934-.588-.626-.882-1.428-.882-2.405Zm4.64-1.892c-.385-.334-.866-.501-1.441-.501-.576 0-1.062.169-1.46.507a1.856 1.856 0 0 0-.673 1.289h4.202a1.797 1.797 0 0 0-.628-1.295ZM97.893 115h-1.016v-6.398h1.016v2.577h3.364v-2.577h1.028V115h-1.028v-2.926h-3.364V115Zm6.017-3.237c0-.944.303-1.723.908-2.336.605-.618 1.369-.927 2.291-.927.914 0 1.655.277 2.222.832.571.558.857 1.278.857 2.158l-.038.52h-5.199c.055.715.273 1.259.654 1.632.385.368.895.552 1.53.552.563 0 1.022-.119 1.377-.356.356-.241.591-.573.705-.996l.933.184c-.136.626-.478 1.13-1.028 1.511-.551.376-1.213.565-1.987.565-.974 0-1.754-.311-2.343-.934-.588-.626-.882-1.428-.882-2.405Zm4.64-1.892c-.385-.334-.865-.501-1.441-.501-.575 0-1.062.169-1.46.507a1.855 1.855 0 0 0-.672 1.289h4.202a1.798 1.798 0 0 0-.629-1.295Zm3.307 7.141h-.99v-2.894h.603c.246-.246.423-.595.533-1.048.115-.457.187-1.208.216-2.253l.095-2.215h4.552v5.516h.869v2.894h-.99V115h-4.888v2.012Zm1.403-7.522-.051 1.282c-.05 1.651-.275 2.766-.672 3.346h3.313v-4.628h-2.59Zm5.351 2.273c0-.944.303-1.723.908-2.336.605-.618 1.369-.927 2.292-.927.914 0 1.654.277 2.221.832.572.558.857 1.278.857 2.158l-.038.52h-5.199c.055.715.273 1.259.654 1.632.385.368.895.552 1.53.552.563 0 1.022-.119 1.377-.356.356-.241.591-.573.705-.996l.933.184c-.135.626-.478 1.13-1.028 1.511-.55.376-1.213.565-1.987.565-.973 0-1.754-.311-2.342-.934-.589-.626-.883-1.428-.883-2.405Zm4.64-1.892c-.385-.334-.865-.501-1.44-.501-.576 0-1.063.169-1.46.507a1.856 1.856 0 0 0-.673 1.289h4.202c-.034-.529-.243-.961-.629-1.295Zm2.254 5.142.133-.87c.085.017.167.025.248.025a.637.637 0 0 0 .381-.114c.105-.08.209-.228.311-.444.105-.22.19-.559.254-1.016.063-.457.107-1.032.133-1.726l.089-2.266h4.481V115h-1.022v-5.51h-2.501l-.051 1.479a15.858 15.858 0 0 1-.158 1.733c-.076.487-.17.885-.28 1.194a2.23 2.23 0 0 1-.406.729 1.32 1.32 0 0 1-.508.375 1.66 1.66 0 0 1-1.104.013Zm9.141-.013h-.978v-6.398h.978v4.9l3.402-4.9h.977V115h-.977v-4.9l-3.402 4.9Z" fill="#000"/><path fill-rule="evenodd" clip-rule="evenodd" d="m3.893 141.567-2.229-1.981a1 1 0 1 0-1.328 1.495l3 2.666a1 1 0 0 0 1.432-.107l5-6a1 1 0 1 0-1.536-1.28l-4.34 5.207Z" fill="#6FADAA"/><path d="M24.59 143h-1.111v-9.75h1.11v4.069h5.638v-4.069h1.104V143h-1.104v-4.666H24.59V143Zm10.258 0h-.978v-6.398h.978v4.9l3.402-4.9h.977V143h-.977v-4.9l-3.402 4.9Zm6.512 0v-6.398h1.016v2.551h.946l2.183-2.551h1.213l-2.59 3.002L46.94 143h-1.25l-2.419-2.863h-.895V143H41.36Zm11.604 0h-.933l-.032-1.238a2.863 2.863 0 0 1-1.041.984 2.76 2.76 0 0 1-1.371.356c-.605 0-1.094-.159-1.466-.477-.369-.317-.553-.746-.553-1.288 0-.614.235-1.077.705-1.39.453-.296 1.069-.544 1.847-.743l1.854-.432c-.043-.457-.212-.804-.508-1.041-.292-.241-.673-.361-1.143-.361-.478 0-.874.11-1.187.33-.309.22-.518.539-.628.958l-.94-.184a2.253 2.253 0 0 1 .94-1.441c.503-.355 1.121-.533 1.853-.533.8 0 1.433.22 1.898.66.47.436.705 1.031.705 1.784V143Zm-4.342-1.752c0 .296.097.535.292.717.199.178.47.267.813.267.609 0 1.138-.224 1.587-.673.448-.448.672-1.056.672-1.822v-.146l-1.866.457c-.508.132-.884.288-1.13.47a.863.863 0 0 0-.368.73ZM54.97 143v-6.398h1.015v2.551h.946l2.184-2.551h1.212l-2.59 3.002L60.55 143H59.3l-2.419-2.863h-.895V143H54.97Zm7.68 0h-.977v-6.398h.977v4.9l3.403-4.9h.977V143h-.977v-4.9L62.65 143Zm5.605-6.398h1.206l1.689 2.355 1.6-2.355h1.142l-2.17 3.135L74.063 143H72.87l-1.822-2.52L69.36 143h-1.105l2.222-3.313-2.222-3.085Zm9.884 8.41h-.99v-2.894h.602c.246-.246.424-.595.534-1.048.114-.457.186-1.208.216-2.253l.095-2.215h4.551v5.516h.87v2.894h-.99V143h-4.888v2.012Zm1.403-7.522-.051 1.282c-.051 1.651-.275 2.766-.673 3.346h3.313v-4.628h-2.59Zm6.284-.057c.622-.622 1.411-.933 2.367-.933.957 0 1.746.311 2.368.933.622.622.933 1.407.933 2.355 0 .961-.31 1.754-.933 2.38-.622.623-1.411.934-2.368.934-.956 0-1.745-.311-2.367-.934-.622-.626-.933-1.419-.933-2.38 0-.948.31-1.733.933-2.355Zm2.367 0c-.643 0-1.176.218-1.6.654-.422.436-.634 1.003-.634 1.701 0 .707.212 1.278.635 1.714.419.444.952.666 1.6.666.643 0 1.18-.222 1.612-.666.419-.444.628-1.016.628-1.714 0-.69-.21-1.257-.628-1.701-.436-.436-.974-.654-1.613-.654ZM94.135 143h-1.016v-6.398h5.332V143h-1.028v-5.51h-3.288V143Zm6.874-5.567c.622-.622 1.412-.933 2.368-.933s1.746.311 2.368.933c.622.622.933 1.407.933 2.355 0 .961-.311 1.754-.933 2.38-.622.623-1.412.934-2.368.934s-1.746-.311-2.368-.934c-.622-.626-.933-1.419-.933-2.38 0-.948.311-1.733.933-2.355Zm2.368 0c-.643 0-1.176.218-1.6.654-.423.436-.634 1.003-.634 1.701 0 .707.211 1.278.634 1.714.419.444.952.666 1.6.666.643 0 1.181-.222 1.612-.666.419-.444.629-1.016.629-1.714 0-.69-.21-1.257-.629-1.701-.436-.436-.973-.654-1.612-.654Zm3.897 5.58.134-.87c.084.017.167.025.247.025a.637.637 0 0 0 .381-.114c.106-.08.21-.228.311-.444.106-.22.191-.559.254-1.016.064-.457.108-1.032.133-1.726l.089-2.266h4.482V143h-1.022v-5.51h-2.501l-.051 1.479c-.03.669-.083 1.246-.159 1.733a6.753 6.753 0 0 1-.279 1.194 2.23 2.23 0 0 1-.406.729 1.32 1.32 0 0 1-.508.375 1.667 1.667 0 0 1-.609.102c-.17 0-.335-.03-.496-.089Zm9.179-.013h-1.015v-6.398h1.015v2.577h3.364v-2.577h1.029V143h-1.029v-2.926h-3.364V143Zm7.503 0h-.977v-6.398h.977v4.9l3.402-4.9h.978V143h-.978v-4.9l-3.402 4.9Zm8.957 0h-1.029v-5.51h-2.221v-.888h5.471v.888h-2.221V143Zm3.04-3.237c0-.944.303-1.723.908-2.336.605-.618 1.369-.927 2.291-.927.914 0 1.655.277 2.222.832.571.558.857 1.278.857 2.158l-.038.52h-5.199c.055.715.273 1.259.654 1.632.385.368.895.552 1.53.552.563 0 1.022-.119 1.377-.356.356-.241.591-.573.705-.996l.933.184c-.136.626-.478 1.13-1.028 1.511-.551.376-1.213.565-1.987.565-.974 0-1.754-.311-2.343-.934-.588-.626-.882-1.428-.882-2.405Zm4.64-1.892c-.385-.334-.865-.501-1.441-.501-.575 0-1.062.169-1.46.507a1.855 1.855 0 0 0-.672 1.289h4.202a1.798 1.798 0 0 0-.629-1.295Zm2.254 5.142.133-.87c.085.017.167.025.248.025a.631.631 0 0 0 .38-.114c.106-.08.21-.228.311-.444.106-.22.191-.559.254-1.016.064-.457.108-1.032.134-1.726l.089-2.266h4.481V143h-1.022v-5.51h-2.501l-.051 1.479a15.858 15.858 0 0 1-.158 1.733c-.077.487-.17.885-.28 1.194a2.23 2.23 0 0 1-.406.729 1.32 1.32 0 0 1-.508.375 1.66 1.66 0 0 1-1.104.013Zm10.892-.013h-2.729v-6.398h1.015v2.145h1.714c.677 0 1.221.195 1.632.584.41.389.615.906.615 1.549 0 .635-.207 1.147-.622 1.536-.41.389-.952.584-1.625.584Zm-.184-3.352h-1.53v2.47h1.53c.44 0 .777-.106 1.009-.318.237-.216.356-.522.356-.92s-.119-.703-.356-.914c-.232-.212-.569-.318-1.009-.318ZM158.36 143h-1.015v-6.398h1.015v2.577h3.365v-2.577h1.028V143h-1.028v-2.926h-3.365V143Zm13.413 0h-1.009v-6.398h1.009V143Zm-4.158 0h-2.729v-6.398h1.015v2.145h1.714c.677 0 1.221.195 1.632.584.41.389.615.906.615 1.549 0 .635-.207 1.147-.622 1.536-.41.389-.952.584-1.625.584Zm-.184-3.352h-1.53v2.47h1.53c.44 0 .777-.106 1.009-.318.237-.216.356-.522.356-.92s-.119-.703-.356-.914c-.232-.212-.569-.318-1.009-.318Zm5.573-3.046h1.206l1.689 2.355 1.6-2.355h1.142l-2.171 3.135 2.342 3.263h-1.193l-1.822-2.52-1.688 2.52h-1.105l2.222-3.313-2.222-3.085ZM183.878 143h-1.016v-6.398h5.332V143h-1.028v-5.51h-3.288V143Zm5.421.013.133-.87c.085.017.167.025.248.025a.637.637 0 0 0 .381-.114c.105-.08.209-.228.311-.444.105-.22.19-.559.253-1.016.064-.457.108-1.032.134-1.726l.089-2.266h4.481V143h-1.022v-5.51h-2.501l-.051 1.479a15.858 15.858 0 0 1-.158 1.733c-.076.487-.17.885-.28 1.194a2.23 2.23 0 0 1-.406.729 1.32 1.32 0 0 1-.508.375 1.66 1.66 0 0 1-1.104.013Zm13.063-.013h-.933l-.032-1.238a2.854 2.854 0 0 1-1.041.984 2.76 2.76 0 0 1-1.371.356c-.605 0-1.094-.159-1.466-.477-.368-.317-.552-.746-.552-1.288 0-.614.235-1.077.704-1.39.453-.296 1.069-.544 1.848-.743l1.853-.432c-.042-.457-.212-.804-.508-1.041-.292-.241-.673-.361-1.142-.361-.479 0-.874.11-1.187.33-.309.22-.519.539-.629.958l-.939-.184a2.256 2.256 0 0 1 .939-1.441c.504-.355 1.122-.533 1.854-.533.8 0 1.432.22 1.898.66.469.436.704 1.031.704 1.784V143Zm-4.341-1.752c0 .296.097.535.291.717.199.178.47.267.813.267.609 0 1.138-.224 1.587-.673.448-.448.673-1.056.673-1.822v-.146l-1.866.457c-.508.132-.885.288-1.13.47a.862.862 0 0 0-.368.73Zm8.791 1.752h-1.028v-5.51h-2.222v-.888h5.472v.888h-2.222V143Zm3.041-3.237c0-.944.302-1.723.907-2.336.605-.618 1.369-.927 2.292-.927.914 0 1.654.277 2.221.832.572.558.857 1.278.857 2.158l-.038.52h-5.198c.055.715.273 1.259.653 1.632.385.368.895.552 1.53.552.563 0 1.022-.119 1.378-.356a1.7 1.7 0 0 0 .704-.996l.933.184c-.135.626-.478 1.13-1.028 1.511-.55.376-1.212.565-1.987.565-.973 0-1.754-.311-2.342-.934-.588-.626-.882-1.428-.882-2.405Zm4.64-1.892c-.385-.334-.866-.501-1.441-.501-.576 0-1.062.169-1.46.507a1.856 1.856 0 0 0-.673 1.289h4.202a1.797 1.797 0 0 0-.628-1.295Zm2.374-1.269h1.155l1.809 2.589h.844v-2.589h.978v2.589h.831l1.828-2.589h1.149l-2.196 2.989 2.361 3.409h-1.168l-2.012-2.901h-.793V143h-.978v-2.901h-.806L217.844 143h-1.136l2.342-3.339-2.183-3.059Zm9.185 3.161c0-.944.302-1.723.907-2.336.606-.618 1.369-.927 2.292-.927.914 0 1.655.277 2.222.832.571.558.857 1.278.857 2.158l-.038.52h-5.199c.055.715.273 1.259.654 1.632.385.368.895.552 1.529.552.563 0 1.022-.119 1.378-.356a1.7 1.7 0 0 0 .704-.996l.934.184c-.136.626-.479 1.13-1.029 1.511-.55.376-1.212.565-1.987.565-.973 0-1.754-.311-2.342-.934-.588-.626-.882-1.428-.882-2.405Zm4.64-1.892c-.385-.334-.866-.501-1.441-.501-.576 0-1.062.169-1.46.507a1.856 1.856 0 0 0-.673 1.289h4.202a1.797 1.797 0 0 0-.628-1.295Zm5.268-3.339c.195.169.443.254.743.254.301 0 .548-.085.743-.254.194-.173.294-.414.298-.723h.895c0 .541-.18.973-.539 1.295-.356.317-.821.476-1.397.476-.575 0-1.041-.159-1.396-.476-.356-.322-.536-.754-.54-1.295h.908c0 .309.095.55.285.723ZM234.951 143h-.977v-6.398h.977v4.9l3.403-4.9h.977V143h-.977v-4.9l-3.403 4.9Zm8.823-2.977v-1.014h11.96v1.014h-11.96ZM260.177 143v-6.398h1.015v2.551h.946l2.184-2.551h1.212l-2.59 3.002 2.812 3.396h-1.25l-2.419-2.863h-.895V143h-1.015Zm11.603 0h-.933l-.032-1.238a2.854 2.854 0 0 1-1.041.984 2.76 2.76 0 0 1-1.371.356c-.605 0-1.094-.159-1.466-.477-.368-.317-.552-.746-.552-1.288 0-.614.235-1.077.704-1.39.453-.296 1.069-.544 1.848-.743l1.853-.432c-.042-.457-.212-.804-.508-1.041-.292-.241-.673-.361-1.142-.361-.479 0-.874.11-1.187.33-.309.22-.519.539-.629.958l-.939-.184a2.252 2.252 0 0 1 .939-1.441c.504-.355 1.122-.533 1.854-.533.8 0 1.432.22 1.898.66.469.436.704 1.031.704 1.784V143Zm-4.342-1.752c0 .296.098.535.292.717.199.178.47.267.813.267.609 0 1.138-.224 1.587-.673.448-.448.673-1.056.673-1.822v-.146l-1.866.457c-.508.132-.885.288-1.13.47a.862.862 0 0 0-.369.73Zm6.348 1.752v-6.398h1.016v2.551h.946l2.183-2.551h1.213l-2.59 3.002 2.812 3.396h-1.251l-2.418-2.863h-.895V143h-1.016ZM23.492 157.433c.622-.622 1.411-.933 2.367-.933.957 0 1.746.311 2.368.933.622.622.933 1.407.933 2.355 0 .961-.31 1.754-.933 2.38-.622.623-1.411.934-2.368.934-.956 0-1.745-.311-2.367-.934-.622-.626-.933-1.419-.933-2.38 0-.948.31-1.733.933-2.355Zm2.367 0c-.643 0-1.176.218-1.6.654-.422.436-.634 1.003-.634 1.701 0 .707.212 1.278.635 1.714.419.444.952.666 1.6.666.643 0 1.18-.222 1.612-.666.419-.444.628-1.016.628-1.714 0-.69-.21-1.257-.628-1.701-.436-.436-.974-.654-1.613-.654Zm7.89 5.669c-1.053 0-1.878-.373-2.475-1.118-.597-.744-.895-1.824-.895-3.237 0-1.646.31-2.907.933-3.783.622-.876 1.616-1.382 2.983-1.517l1.029-.121c.372-.029.74-.089 1.104-.178l.114.883c-.253.08-.66.154-1.218.222l-1.067.114c-.85.089-1.527.398-2.03.927-.5.537-.782 1.407-.845 2.609.33-.542.747-.91 1.25-1.105.479-.19.946-.285 1.403-.285.872 0 1.591.306 2.158.92.572.609.857 1.394.857 2.355 0 .973-.304 1.769-.914 2.387-.61.618-1.405.927-2.387.927Zm.039-5.694c-.66 0-1.206.222-1.638.666-.423.449-.635 1.02-.635 1.714 0 .707.212 1.278.635 1.714.419.444.952.666 1.6.666.643 0 1.18-.222 1.612-.666.414-.44.622-1.011.622-1.714 0-.702-.201-1.274-.603-1.714-.398-.444-.929-.666-1.593-.666ZM45.568 163H44.56v-6.398h1.009V163Zm-4.157 0h-2.73v-6.398h1.016v2.145h1.714c.677 0 1.221.195 1.631.584.411.389.616.906.616 1.549 0 .635-.207 1.147-.622 1.536-.41.389-.952.584-1.625.584Zm-.184-3.352h-1.53v2.47h1.53c.44 0 .777-.106 1.01-.318.236-.216.355-.522.355-.92s-.119-.703-.356-.914c-.232-.212-.569-.318-1.009-.318Zm8.455.972c-.804 0-1.415-.187-1.834-.559-.415-.377-.622-.91-.622-1.6v-1.859h1.015v1.707c0 .466.133.819.4 1.06.27.237.667.356 1.187.356a4.74 4.74 0 0 0 1.492-.235v-2.888h1.028V163H51.32v-2.628c-.554.165-1.1.248-1.638.248Zm5.82 2.38h-1.015v-6.398h1.016v2.577h3.364v-2.577h1.029V163h-1.029v-2.926h-3.364V163Zm11.427 0h-.933l-.032-1.238a2.863 2.863 0 0 1-1.041.984c-.423.237-.88.356-1.371.356-.605 0-1.094-.159-1.467-.477-.368-.317-.552-.746-.552-1.288 0-.614.235-1.077.705-1.39.453-.296 1.068-.544 1.847-.743l1.854-.432c-.043-.457-.212-.804-.508-1.041-.292-.241-.673-.361-1.143-.361-.478 0-.874.11-1.187.33-.309.22-.518.539-.628.958l-.94-.184a2.253 2.253 0 0 1 .94-1.441c.503-.355 1.121-.533 1.853-.533.8 0 1.433.22 1.898.66.47.436.705 1.031.705 1.784V163Zm-4.342-1.752c0 .296.097.535.292.717.199.178.47.267.812.267.61 0 1.139-.224 1.587-.673.449-.448.673-1.056.673-1.822v-.146l-1.866.457c-.508.132-.884.288-1.13.47a.863.863 0 0 0-.368.73Zm6.011-2.679c0-.575.184-1.047.552-1.415.373-.368.855-.552 1.448-.552h3.11V163h-1.003v-2.507h-1.428L69.404 163h-1.149l1.943-2.577c-.478-.081-.866-.286-1.162-.616-.292-.334-.438-.747-.438-1.238Zm2.247 1.067h1.86v-2.184h-1.847c-.385 0-.688.093-.908.279-.22.182-.33.453-.33.813 0 .36.108.633.324.819.22.182.52.273.901.273Zm8.278-2.203c.622-.622 1.41-.933 2.367-.933.957 0 1.746.311 2.368.933.622.622.933 1.407.933 2.355 0 .961-.311 1.754-.933 2.38-.622.623-1.411.934-2.368.934-.956 0-1.745-.311-2.367-.934-.623-.626-.934-1.419-.934-2.38 0-.948.312-1.733.934-2.355Zm2.367 0c-.643 0-1.176.218-1.6.654-.423.436-.634 1.003-.634 1.701 0 .707.211 1.278.635 1.714.419.444.952.666 1.6.666.642 0 1.18-.222 1.612-.666.419-.444.628-1.016.628-1.714 0-.69-.21-1.257-.628-1.701-.436-.436-.974-.654-1.613-.654ZM87.432 163h-1.016v-6.398h5.332V163H90.72v-5.51h-3.288V163Zm5.42.013.134-.87c.084.017.167.025.247.025a.636.636 0 0 0 .381-.114c.106-.08.21-.228.311-.444.106-.22.19-.559.254-1.016.064-.457.108-1.032.133-1.726l.09-2.266h4.48V163h-1.021v-5.51H95.36l-.05 1.479c-.03.669-.083 1.246-.16 1.733-.076.487-.169.885-.279 1.194-.11.304-.245.548-.406.729-.161.182-.33.307-.508.375a1.665 1.665 0 0 1-.61.102c-.169 0-.334-.03-.494-.089Zm13.064-.013h-.933l-.032-1.238a2.854 2.854 0 0 1-1.041.984 2.76 2.76 0 0 1-1.371.356c-.605 0-1.094-.159-1.466-.477-.368-.317-.552-.746-.552-1.288 0-.614.234-1.077.704-1.39.453-.296 1.069-.544 1.847-.743l1.854-.432c-.043-.457-.212-.804-.508-1.041-.292-.241-.673-.361-1.143-.361-.478 0-.873.11-1.187.33-.309.22-.518.539-.628.958l-.939-.184a2.248 2.248 0 0 1 .939-1.441c.504-.355 1.121-.533 1.853-.533.8 0 1.433.22 1.898.66.47.436.705 1.031.705 1.784V163Zm-4.342-1.752c0 .296.098.535.292.717.199.178.47.267.813.267.609 0 1.138-.224 1.587-.673.448-.448.672-1.056.672-1.822v-.146l-1.866.457c-.508.132-.884.288-1.13.47a.864.864 0 0 0-.368.73Zm8.792 1.752h-1.029v-5.51h-2.221v-.888h5.471v.888h-2.221V163Zm8.448 0h-.933l-.031-1.238a2.87 2.87 0 0 1-2.412 1.34c-.606 0-1.094-.159-1.467-.477-.368-.317-.552-.746-.552-1.288 0-.614.235-1.077.705-1.39.452-.296 1.068-.544 1.847-.743l1.853-.432c-.042-.457-.211-.804-.508-1.041-.292-.241-.672-.361-1.142-.361-.478 0-.874.11-1.187.33-.309.22-.519.539-.629.958l-.939-.184a2.256 2.256 0 0 1 .939-1.441c.504-.355 1.122-.533 1.854-.533.8 0 1.432.22 1.898.66.47.436.704 1.031.704 1.784V163Zm-4.341-1.752c0 .296.097.535.292.717.199.178.469.267.812.267.61 0 1.138-.224 1.587-.673.449-.448.673-1.056.673-1.822v-.146l-1.866.457c-.508.132-.885.288-1.13.47a.862.862 0 0 0-.368.73Zm9.204 1.752v-6.398h1.015v2.551h.946l2.184-2.551h1.212l-2.59 3.002 2.812 3.396h-1.25l-2.419-2.863h-.895V163h-1.015Zm11.603 0h-.933l-.032-1.238a2.854 2.854 0 0 1-1.041.984 2.76 2.76 0 0 1-1.371.356c-.605 0-1.094-.159-1.466-.477-.368-.317-.552-.746-.552-1.288 0-.614.235-1.077.704-1.39.453-.296 1.069-.544 1.848-.743l1.853-.432c-.042-.457-.212-.804-.508-1.041-.292-.241-.673-.361-1.142-.361-.479 0-.874.11-1.187.33-.309.22-.519.539-.629.958l-.939-.184a2.252 2.252 0 0 1 .939-1.441c.504-.355 1.122-.533 1.854-.533.8 0 1.432.22 1.898.66.469.436.704 1.031.704 1.784V163Zm-4.342-1.752c0 .296.098.535.292.717.199.178.47.267.813.267.609 0 1.138-.224 1.587-.673.448-.448.673-1.056.673-1.822v-.146l-1.866.457c-.508.132-.885.288-1.13.47a.862.862 0 0 0-.369.73Zm6.348 4.615v-9.261h.978l.025 1.104a2.881 2.881 0 0 1 1.003-.889 2.823 2.823 0 0 1 1.333-.317c.889 0 1.629.311 2.222.933.592.622.888 1.407.888 2.355 0 .956-.296 1.748-.888 2.374-.593.626-1.333.94-2.222.94a2.86 2.86 0 0 1-1.32-.305 2.833 2.833 0 0 1-1.003-.876v3.942h-1.016Zm3.199-8.43c-.647 0-1.172.218-1.574.654-.406.453-.609 1.02-.609 1.701 0 .69.203 1.261.609 1.714.398.444.923.666 1.574.666.631 0 1.156-.222 1.575-.666.406-.453.609-1.024.609-1.714 0-.681-.203-1.248-.609-1.701-.424-.436-.948-.654-1.575-.654Zm7.319 5.567h-1.028v-5.51h-2.222v-.888h5.472v.888h-2.222V163Zm3.974-5.567c.622-.622 1.411-.933 2.368-.933.956 0 1.745.311 2.367.933.622.622.933 1.407.933 2.355 0 .961-.311 1.754-.933 2.38-.622.623-1.411.934-2.367.934-.957 0-1.746-.311-2.368-.934-.622-.626-.933-1.419-.933-2.38 0-.948.311-1.733.933-2.355Zm2.368 0c-.644 0-1.177.218-1.6.654-.423.436-.635 1.003-.635 1.701 0 .707.212 1.278.635 1.714.419.444.952.666 1.6.666.643 0 1.18-.222 1.612-.666.419-.444.628-1.016.628-1.714 0-.69-.209-1.257-.628-1.701-.436-.436-.973-.654-1.612-.654Zm6.912-2.901c.195.169.442.254.743.254.3 0 .548-.085.742-.254.195-.173.295-.414.299-.723h.895c0 .541-.18.973-.54 1.295-.355.317-.821.476-1.396.476-.576 0-1.041-.159-1.397-.476-.355-.322-.535-.754-.539-1.295h.907c0 .309.096.55.286.723ZM160.049 163h-.978v-6.398h.978v4.9l3.402-4.9h.978V163h-.978v-4.9l-3.402 4.9Z" fill="#000"/><path d="M3.617 24.875c0 .465.068.902.204 1.31.14.405.336.76.59 1.064.255.304.572.544.951.72a3.01 3.01 0 0 0 1.268.263c.738 0 1.353-.206 1.848-.618.497-.415.809-.943.934-1.584l.902.241a3.409 3.409 0 0 1-1.267 2.047c-.663.52-1.472.779-2.428.779a4.155 4.155 0 0 1-1.654-.323 3.544 3.544 0 0 1-1.257-.897 4.147 4.147 0 0 1-.779-1.342 4.85 4.85 0 0 1-.28-1.66c0-.791.158-1.504.474-2.138a3.67 3.67 0 0 1 1.39-1.509c.613-.376 1.322-.564 2.128-.564.941 0 1.73.252 2.363.757.634.505 1.042 1.177 1.225 2.015l-.892.252a2.745 2.745 0 0 0-.902-1.541c-.477-.412-1.078-.618-1.805-.618-.602 0-1.135.152-1.6.456-.463.301-.814.704-1.053 1.209a3.845 3.845 0 0 0-.36 1.681Zm7.59 1.386c0-.799.255-1.458.767-1.977.512-.523 1.159-.784 1.94-.784.773 0 1.4.235 1.879.704.483.472.725 1.081.725 1.826l-.032.44h-4.4c.047.605.232 1.066.554 1.38.326.312.758.468 1.295.468.476 0 .864-.1 1.165-.3.3-.205.5-.486.596-.844l.79.156c-.115.53-.405.956-.87 1.278-.466.319-1.026.478-1.681.478-.824 0-1.485-.263-1.982-.79-.498-.53-.747-1.208-.747-2.035Zm3.925-1.6c-.325-.284-.732-.425-1.219-.425-.487 0-.899.143-1.235.43a1.569 1.569 0 0 0-.57 1.09h3.556a1.52 1.52 0 0 0-.532-1.096ZM18.77 29h-.86v-5.414h3.599v.752h-2.74V29Zm4.216-4.71c.526-.527 1.194-.79 2.003-.79.81 0 1.477.263 2.004.79.526.526.79 1.19.79 1.992 0 .813-.264 1.484-.79 2.014-.527.527-1.195.79-2.004.79-.809 0-1.477-.263-2.003-.79-.526-.53-.79-1.2-.79-2.014 0-.802.264-1.466.79-1.992Zm2.003 0c-.544 0-.995.184-1.353.553-.358.369-.537.848-.537 1.44 0 .597.179 1.08.537 1.45.354.375.805.563 1.353.563.545 0 1-.188 1.364-.564.355-.376.532-.859.532-1.45 0-.583-.177-1.063-.532-1.44a1.854 1.854 0 0 0-1.364-.552Zm4.19 6.413h-.838v-2.45h.51c.208-.207.358-.503.451-.886.097-.387.158-1.022.183-1.907l.08-1.874h3.852v4.667h.735v2.45h-.838V29h-4.135v1.703Zm1.187-6.365-.043 1.085c-.043 1.396-.233 2.34-.57 2.83h2.804v-3.915h-2.191ZM36.182 29h-.86v-5.414h.86v2.18h2.846v-2.18h.87V29h-.87v-2.476h-2.846V29Zm5.236-3.749c0-.487.156-.886.468-1.198.315-.311.723-.467 1.224-.467h2.632V29h-.848v-2.122h-1.209L42.101 29h-.973l1.644-2.18a1.641 1.641 0 0 1-.983-.522c-.247-.282-.37-.632-.37-1.047Zm1.902.902h1.574v-1.847H43.33c-.326 0-.582.078-.769.236-.186.154-.279.383-.279.688 0 .304.091.535.274.692.186.154.44.231.763.231Z" fill="#000" fill-opacity=".6"/><path d="M4.717 9.635h4.316V11H2.705V9.832l2.399-2.418c.838-.826 1.413-1.471 1.727-1.936.317-.466.476-.931.476-1.397 0-.49-.15-.887-.451-1.187-.296-.3-.692-.45-1.187-.45-.457 0-.861.143-1.212.431-.347.284-.559.705-.635 1.263l-1.403-.273c.152-.876.531-1.549 1.136-2.018.605-.474 1.331-.711 2.177-.711.902 0 1.634.268 2.197.806.563.537.844 1.238.844 2.101 0 .33-.047.641-.14.933a3.42 3.42 0 0 1-.476.933c-.224.33-.478.654-.761.971a30.56 30.56 0 0 1-1.143 1.194L4.717 9.635Zm12.13-1.834c0 .973-.317 1.769-.952 2.386-.635.618-1.47.927-2.507.927a4.223 4.223 0 0 1-1.53-.266 2.966 2.966 0 0 1-1.187-.85 3.017 3.017 0 0 1-.648-1.43l1.429-.374c.08.534.3.933.66 1.2.364.267.789.4 1.276.4.592 0 1.07-.178 1.434-.533.368-.36.553-.834.553-1.422 0-.576-.182-1.045-.546-1.41-.36-.367-.824-.552-1.39-.552-.364 0-.692.068-.984.204-.288.13-.51.315-.667.552l-1.18-.337.818-5.046h5.002v1.289h-3.847l-.412 2.469a3.2 3.2 0 0 1 1.517-.362c.944 0 1.705.294 2.285.882.584.584.876 1.342.876 2.273Zm3.113-6.213c.641 0 1.127.256 1.456.767.33.503.494 1.213.494 2.132s-.16 1.638-.481 2.158c-.312.511-.802.767-1.47.767-.614 0-1.087-.256-1.416-.767-.32-.52-.481-1.24-.481-2.158 0-.919.151-1.63.455-2.132.303-.511.784-.767 1.443-.767Zm5.94.13L20.754 11h-1.001L24.9 1.718h1Zm-5.94.676c-.33 0-.572.178-.728.533-.148.347-.221.867-.221 1.56 0 .693.073 1.218.22 1.573.157.355.4.533.729.533.667 0 1-.702 1-2.106 0-1.395-.333-2.093-1-2.093Zm5.68 2.912c.633 0 1.114.256 1.444.767.338.503.507 1.213.507 2.132s-.16 1.638-.481 2.158c-.312.511-.802.767-1.47.767-.614 0-1.087-.256-1.416-.767-.32-.52-.481-1.24-.481-2.158 0-.919.152-1.63.455-2.132.303-.511.784-.767 1.443-.767Zm0 .819c-.329 0-.571.173-.727.52-.148.347-.221.867-.221 1.56 0 .702.073 1.23.22 1.586.157.347.4.52.729.52.667 0 1-.702 1-2.106 0-1.387-.333-2.08-1-2.08Z" fill="#000"/><path d="M82.87 28.13h3.984V29h-5.247v-.768l2.481-2.578c.541-.54.937-1.003 1.187-1.386.251-.383.376-.782.376-1.198 0-.458-.15-.83-.45-1.117-.302-.29-.686-.435-1.156-.435-.415 0-.793.122-1.133.365-.35.262-.562.665-.634 1.209l-.902-.188c.086-.487.261-.9.526-1.24.265-.345.584-.597.956-.758a3.064 3.064 0 0 1 1.23-.242c.738 0 1.34.218 1.805.655.47.437.704 1.014.704 1.73 0 .573-.158 1.083-.473 1.53-.294.416-.725.92-1.294 1.515l-1.96 2.036Zm8.56.87h-.859v-5.414h.86v2.18h2.846v-2.18h.87V29h-.87v-2.476h-2.846V29Zm5.092-2.74c0-.798.256-1.457.768-1.976.513-.523 1.159-.784 1.94-.784.773 0 1.4.235 1.879.704.484.472.725 1.081.725 1.826l-.032.44h-4.399c.047.605.231 1.066.553 1.38.326.312.758.468 1.295.468.476 0 .865-.1 1.166-.3.3-.205.499-.486.596-.844l.789.156c-.114.53-.404.956-.87 1.278-.465.319-1.026.478-1.681.478-.824 0-1.484-.263-1.982-.79-.498-.53-.747-1.208-.747-2.035Zm3.927-1.6c-.326-.283-.733-.424-1.22-.424-.486 0-.898.143-1.235.43a1.57 1.57 0 0 0-.57 1.09h3.556a1.517 1.517 0 0 0-.531-1.096Zm2.798 6.043h-.838v-2.45h.51c.208-.207.359-.503.452-.886.096-.387.157-1.022.182-1.907l.081-1.874h3.851v4.667h.736v2.45h-.838V29h-4.136v1.703Zm1.187-6.365-.043 1.085c-.043 1.396-.233 2.34-.569 2.83h2.803v-3.915h-2.191Zm4.528 1.923c0-.799.256-1.458.768-1.977.512-.523 1.158-.784 1.939-.784.773 0 1.4.235 1.88.704.483.472.725 1.081.725 1.826l-.032.44h-4.399c.046.605.231 1.066.553 1.38.326.312.757.468 1.294.468.477 0 .865-.1 1.166-.3a1.44 1.44 0 0 0 .596-.844l.79.156c-.115.53-.405.956-.87 1.278-.466.319-1.026.478-1.682.478-.823 0-1.484-.263-1.982-.79-.497-.53-.746-1.208-.746-2.035Zm3.926-1.6c-.326-.284-.732-.425-1.219-.425-.487 0-.899.143-1.235.43a1.568 1.568 0 0 0-.57 1.09h3.556a1.522 1.522 0 0 0-.532-1.096Zm1.907 4.35.113-.736c.071.014.141.021.209.021a.533.533 0 0 0 .322-.096c.09-.068.178-.194.264-.376.089-.187.161-.473.214-.86.054-.386.092-.873.113-1.46l.075-1.918h3.792V29h-.864v-4.662h-2.116l-.043 1.251c-.026.566-.07 1.055-.135 1.467a5.693 5.693 0 0 1-.236 1.01 1.898 1.898 0 0 1-.344.617c-.136.154-.279.26-.43.317a1.407 1.407 0 0 1-.934.01Zm7.734-.011h-.827v-5.414h.827v4.146l2.879-4.146h.827V29h-.827v-4.146L122.529 29Z" fill="#000" fill-opacity=".6"/><path d="M83.717 9.635h4.316V11h-6.328V9.832l2.399-2.418c.838-.826 1.413-1.471 1.727-1.936.317-.466.476-.931.476-1.397 0-.49-.15-.887-.451-1.187-.296-.3-.692-.45-1.187-.45-.457 0-.861.143-1.212.431-.347.284-.56.705-.635 1.263l-1.403-.273c.152-.876.531-1.549 1.136-2.018.605-.474 1.331-.711 2.177-.711.902 0 1.634.268 2.197.806.563.537.844 1.238.844 2.101 0 .33-.047.641-.14.933a3.42 3.42 0 0 1-.476.933c-.224.33-.478.654-.761.971-.284.318-.665.716-1.143 1.194l-1.536 1.561Zm12.13-1.834c0 .973-.317 1.769-.952 2.386-.635.618-1.47.927-2.507.927a4.223 4.223 0 0 1-1.53-.266 2.966 2.966 0 0 1-1.187-.85 3.017 3.017 0 0 1-.648-1.43l1.429-.374c.08.534.3.933.66 1.2.364.267.789.4 1.276.4.592 0 1.07-.178 1.434-.533.368-.36.552-.834.552-1.422 0-.576-.181-1.045-.545-1.41-.36-.367-.823-.552-1.39-.552-.364 0-.692.068-.984.204-.288.13-.51.315-.667.552l-1.18-.337.818-5.046h5.002v1.289h-3.846l-.413 2.469a3.2 3.2 0 0 1 1.517-.362c.944 0 1.705.294 2.285.882.584.584.876 1.342.876 2.273Zm3.113-6.213c.641 0 1.126.256 1.456.767.329.503.494 1.213.494 2.132s-.161 1.638-.481 2.158c-.312.511-.802.767-1.47.767-.615 0-1.087-.256-1.416-.767-.32-.52-.481-1.24-.481-2.158 0-.919.151-1.63.455-2.132.303-.511.784-.767 1.443-.767Zm5.941.13L99.753 11h-1.001l5.148-9.282h1.001Zm-5.941.676c-.33 0-.572.178-.728.533-.147.347-.221.867-.221 1.56 0 .693.074 1.218.22 1.573.157.355.4.533.729.533.667 0 1-.702 1-2.106 0-1.395-.333-2.093-1-2.093Zm5.681 2.912c.632 0 1.113.256 1.443.767.338.503.507 1.213.507 2.132s-.161 1.638-.481 2.158c-.312.511-.802.767-1.469.767-.616 0-1.088-.256-1.417-.767-.321-.52-.481-1.24-.481-2.158 0-.919.151-1.63.455-2.132.303-.511.784-.767 1.443-.767Zm0 .819c-.33 0-.572.173-.728.52-.148.347-.221.867-.221 1.56 0 .702.073 1.23.221 1.586.156.347.398.52.728.52.667 0 1.001-.702 1.001-2.106 0-1.387-.334-2.08-1.001-2.08Z" fill="#000"/><path d="M165.226 29h-.924v-1.993h-4.017v-.8l3.733-5.457h1.208v5.414h1.133v.843h-1.133V29Zm-.924-7.24-3.034 4.404h3.034V21.76Zm6.515 7.24h-.859v-5.414h.859v2.18h2.847v-2.18h.87V29h-.87v-2.476h-2.847V29Zm5.092-2.74c0-.798.256-1.457.768-1.976.512-.523 1.159-.784 1.939-.784.774 0 1.4.235 1.88.704.483.472.725 1.081.725 1.826l-.032.44h-4.399c.047.605.231 1.066.553 1.38.326.312.758.468 1.295.468.476 0 .864-.1 1.165-.3.301-.205.5-.486.596-.844l.79.156c-.115.53-.405.956-.87 1.278-.466.319-1.026.478-1.681.478-.824 0-1.485-.263-1.982-.79-.498-.53-.747-1.208-.747-2.035Zm3.926-1.6c-.325-.283-.732-.424-1.219-.424-.487 0-.899.143-1.235.43a1.563 1.563 0 0 0-.569 1.09h3.555a1.518 1.518 0 0 0-.532-1.096Zm2.799 6.043h-.838v-2.45h.51c.208-.207.358-.503.451-.886.097-.387.158-1.022.183-1.907l.081-1.874h3.851v4.667h.735v2.45h-.837V29h-4.136v1.703Zm1.187-6.365-.043 1.085c-.043 1.396-.233 2.34-.57 2.83h2.804v-3.915h-2.191Zm4.528 1.923c0-.799.256-1.458.768-1.977.512-.523 1.158-.784 1.939-.784.773 0 1.4.235 1.88.704.483.472.725 1.081.725 1.826l-.033.44h-4.399c.047.605.231 1.066.554 1.38.326.312.757.468 1.294.468.476 0 .865-.1 1.166-.3.3-.205.499-.486.596-.844l.789.156c-.114.53-.404.956-.87 1.278-.465.319-1.026.478-1.681.478-.823 0-1.484-.263-1.982-.79-.498-.53-.746-1.208-.746-2.035Zm3.926-1.6c-.326-.284-.732-.425-1.219-.425-.487 0-.899.143-1.236.43a1.57 1.57 0 0 0-.569 1.09h3.556a1.522 1.522 0 0 0-.532-1.096Zm1.907 4.35.112-.736c.072.014.142.021.21.021a.535.535 0 0 0 .322-.096c.09-.068.177-.194.263-.376.09-.187.161-.473.215-.86.054-.386.092-.873.113-1.46l.075-1.918h3.792V29h-.865v-4.662h-2.116l-.043 1.251c-.025.566-.07 1.055-.134 1.467a5.693 5.693 0 0 1-.236 1.01 1.898 1.898 0 0 1-.344.617c-.136.154-.279.26-.43.317a1.411 1.411 0 0 1-.934.01Zm7.734-.011h-.827v-5.414h.827v4.146l2.879-4.146h.827V29h-.827v-4.146L201.916 29Z" fill="#000" fill-opacity=".6"/><path d="M162.717 9.635h4.316V11h-6.328V9.832l2.399-2.418c.838-.826 1.413-1.471 1.727-1.936.317-.466.476-.931.476-1.397 0-.49-.151-.887-.451-1.187-.296-.3-.692-.45-1.187-.45-.457 0-.861.143-1.212.431-.347.284-.559.705-.635 1.263l-1.403-.273c.152-.876.531-1.549 1.136-2.018.605-.474 1.331-.711 2.177-.711.902 0 1.634.268 2.197.806.563.537.844 1.238.844 2.101 0 .33-.047.641-.14.933a3.41 3.41 0 0 1-.476.933c-.224.33-.478.654-.761.971-.284.318-.665.716-1.143 1.194l-1.536 1.561Zm12.13-1.834c0 .973-.317 1.769-.952 2.386-.635.618-1.471.927-2.507.927a4.222 4.222 0 0 1-1.53-.266 2.964 2.964 0 0 1-1.187-.85 3.022 3.022 0 0 1-.648-1.43l1.429-.374c.08.534.3.933.66 1.2a2.1 2.1 0 0 0 1.276.4c.592 0 1.07-.178 1.434-.533.368-.36.553-.834.553-1.422 0-.576-.182-1.045-.546-1.41-.36-.367-.823-.552-1.391-.552a2.31 2.31 0 0 0-.983.204c-.288.13-.51.315-.667.552l-1.181-.337.819-5.046h5.002v1.289h-3.846l-.413 2.469a3.2 3.2 0 0 1 1.517-.362c.944 0 1.705.294 2.285.882.584.584.876 1.342.876 2.273Zm3.113-6.213c.641 0 1.126.256 1.456.767.329.503.494 1.213.494 2.132s-.161 1.638-.481 2.158c-.312.511-.802.767-1.469.767-.616 0-1.088-.256-1.417-.767-.321-.52-.481-1.24-.481-2.158 0-.919.151-1.63.455-2.132.303-.511.784-.767 1.443-.767Zm5.941.13L178.753 11h-1.001l5.148-9.282h1.001Zm-5.941.676c-.33 0-.572.178-.728.533-.148.347-.221.867-.221 1.56 0 .693.073 1.218.221 1.573.156.355.398.533.728.533.667 0 1.001-.702 1.001-2.106 0-1.395-.334-2.093-1.001-2.093Zm5.681 2.912c.632 0 1.113.256 1.443.767.338.503.507 1.213.507 2.132s-.161 1.638-.481 2.158c-.312.511-.802.767-1.469.767-.616 0-1.088-.256-1.417-.767-.321-.52-.481-1.24-.481-2.158 0-.919.151-1.63.455-2.132.303-.511.784-.767 1.443-.767Zm0 .819c-.33 0-.572.173-.728.52-.148.347-.221.867-.221 1.56 0 .702.073 1.23.221 1.586.156.347.398.52.728.52.667 0 1.001-.702 1.001-2.106 0-1.387-.334-2.08-1.001-2.08Z" fill="#000"/><path d="M242.223 29.086c-.516 0-.983-.106-1.402-.317a2.462 2.462 0 0 1-.994-.913 2.563 2.563 0 0 1-.365-1.364c0-.688.213-1.345.639-1.972l2.487-3.77h1.053l-2.111 3.169c.297-.097.583-.145.859-.145.777 0 1.418.242 1.923.725.505.48.757 1.105.757 1.875a2.73 2.73 0 0 1-.37 1.423c-.247.412-.588.73-1.021.956a3.122 3.122 0 0 1-1.455.333Zm.01-.865c.527 0 .978-.174 1.354-.52.351-.337.526-.78.526-1.328 0-.537-.175-.973-.526-1.31-.369-.33-.816-.494-1.343-.494-.254 0-.498.046-.73.14-.233.089-.43.214-.591.375-.344.362-.516.813-.516 1.354 0 .523.172.95.516 1.284.344.333.78.5 1.31.5Zm7.434.779h-.859v-5.414h.859v2.18h2.847v-2.18h.87V29h-.87v-2.476h-2.847V29Zm5.092-2.74c0-.798.256-1.457.768-1.976.512-.523 1.158-.784 1.939-.784.773 0 1.4.235 1.88.704.483.472.725 1.081.725 1.826l-.032.44h-4.399c.046.605.231 1.066.553 1.38.326.312.757.468 1.294.468.477 0 .865-.1 1.166-.3a1.44 1.44 0 0 0 .596-.844l.79.156c-.115.53-.405.956-.871 1.278-.465.319-1.025.478-1.681.478-.823 0-1.484-.263-1.982-.79-.497-.53-.746-1.208-.746-2.035Zm3.926-1.6c-.326-.283-.732-.424-1.219-.424-.487 0-.899.143-1.236.43a1.57 1.57 0 0 0-.569 1.09h3.556a1.522 1.522 0 0 0-.532-1.096Zm2.798 6.043h-.837v-2.45h.51c.207-.207.358-.503.451-.886.097-.387.157-1.022.183-1.907l.08-1.874h3.851v4.667h.736v2.45h-.838V29h-4.136v1.703Zm1.187-6.365-.043 1.085c-.043 1.396-.232 2.34-.569 2.83h2.804v-3.915h-2.192Zm4.528 1.923c0-.799.256-1.458.768-1.977.512-.523 1.159-.784 1.939-.784.774 0 1.4.235 1.88.704.484.472.725 1.081.725 1.826l-.032.44h-4.399c.047.605.231 1.066.553 1.38.326.312.758.468 1.295.468.476 0 .865-.1 1.165-.3.301-.205.5-.486.596-.844l.79.156c-.115.53-.405.956-.87 1.278-.466.319-1.026.478-1.681.478-.824 0-1.484-.263-1.982-.79-.498-.53-.747-1.208-.747-2.035Zm3.927-1.6c-.326-.284-.733-.425-1.22-.425s-.898.143-1.235.43a1.567 1.567 0 0 0-.569 1.09h3.555a1.52 1.52 0 0 0-.531-1.096Zm1.906 4.35.113-.736c.072.014.141.021.21.021a.537.537 0 0 0 .322-.096c.089-.068.177-.194.263-.376.089-.187.161-.473.215-.86.054-.386.091-.873.113-1.46l.075-1.918h3.792V29h-.865v-4.662h-2.116l-.043 1.251c-.025.566-.07 1.055-.134 1.467a5.772 5.772 0 0 1-.237 1.01 1.898 1.898 0 0 1-.343.617c-.137.154-.28.26-.43.317a1.417 1.417 0 0 1-.516.086c-.143 0-.283-.025-.419-.075Zm9.217-.011h-2.31v-5.414h.86V25.4h1.45c.573 0 1.033.165 1.38.494.348.33.521.767.521 1.311 0 .537-.175.97-.526 1.3-.347.33-.806.494-1.375.494Zm-.156-2.836h-1.294v2.09h1.294c.373 0 .657-.09.854-.27.201-.182.301-.441.301-.778s-.1-.594-.301-.773c-.197-.18-.481-.269-.854-.269Z" fill="#000" fill-opacity=".6"/><path d="M241.717 9.635h4.316V11h-6.328V9.832l2.399-2.418c.838-.826 1.413-1.471 1.727-1.936.317-.466.476-.931.476-1.397 0-.49-.151-.887-.451-1.187-.296-.3-.692-.45-1.187-.45-.457 0-.861.143-1.212.431-.347.284-.559.705-.635 1.263l-1.403-.273c.152-.876.531-1.549 1.136-2.018.605-.474 1.331-.711 2.177-.711.902 0 1.634.268 2.197.806.563.537.844 1.238.844 2.101 0 .33-.047.641-.14.933a3.41 3.41 0 0 1-.476.933c-.224.33-.478.654-.761.971-.284.318-.665.716-1.143 1.194l-1.536 1.561Zm12.13-1.834c0 .973-.317 1.769-.952 2.386-.635.618-1.471.927-2.507.927a4.222 4.222 0 0 1-1.53-.266 2.964 2.964 0 0 1-1.187-.85 3.022 3.022 0 0 1-.648-1.43l1.429-.374c.08.534.3.933.66 1.2a2.1 2.1 0 0 0 1.276.4c.592 0 1.07-.178 1.434-.533.368-.36.553-.834.553-1.422 0-.576-.182-1.045-.546-1.41-.36-.367-.823-.552-1.391-.552a2.31 2.31 0 0 0-.983.204c-.288.13-.51.315-.667.552l-1.181-.337.819-5.046h5.002v1.289h-3.846l-.413 2.469a3.2 3.2 0 0 1 1.517-.362c.944 0 1.705.294 2.285.882.584.584.876 1.342.876 2.273Zm3.113-6.213c.641 0 1.126.256 1.456.767.329.503.494 1.213.494 2.132s-.161 1.638-.481 2.158c-.312.511-.802.767-1.469.767-.616 0-1.088-.256-1.417-.767-.321-.52-.481-1.24-.481-2.158 0-.919.151-1.63.455-2.132.303-.511.784-.767 1.443-.767Zm5.941.13L257.753 11h-1.001l5.148-9.282h1.001Zm-5.941.676c-.33 0-.572.178-.728.533-.148.347-.221.867-.221 1.56 0 .693.073 1.218.221 1.573.156.355.398.533.728.533.667 0 1.001-.702 1.001-2.106 0-1.395-.334-2.093-1.001-2.093Zm5.681 2.912c.632 0 1.113.256 1.443.767.338.503.507 1.213.507 2.132s-.161 1.638-.481 2.158c-.312.511-.802.767-1.469.767-.616 0-1.088-.256-1.417-.767-.321-.52-.481-1.24-.481-2.158 0-.919.151-1.63.455-2.132.303-.511.784-.767 1.443-.767Zm0 .819c-.33 0-.572.173-.728.52-.148.347-.221.867-.221 1.56 0 .702.073 1.23.221 1.586.156.347.398.52.728.52.667 0 1.001-.702 1.001-2.106 0-1.387-.334-2.08-1.001-2.08Z" fill="#000"/><path fill="#C7C9CC" d="M25 50h51v-1H25zM104 50h51v-1h-51zM183 50h51v-1h-51z"/><path d="M11 40a9 9 0 0 0-9 9" stroke="#6FADAA" stroke-width="1.5"/><circle cx="11" cy="49" r="4" transform="rotate(-90 11 49)" fill="#242424"/><path d="M99 49a9 9 0 0 0-18 0" stroke="#6FADAA" stroke-width="1.5"/><circle cx="90" cy="49" r="4" transform="rotate(-90 90 49)" fill="#242424"/><path d="M169 58a8.999 8.999 0 1 0-9-9" stroke="#6FADAA" stroke-width="1.5"/><circle cx="169" cy="49" r="4" transform="rotate(-90 169 49)" fill="#242424"/><circle cx="248" cy="49" r="8.25" stroke="#6FADAA" stroke-width="1.5"/><path fill-rule="evenodd" clip-rule="evenodd" d="m247.114 49.891-1.783-1.444a.855.855 0 0 0-1.129.06.685.685 0 0 0 .067 1.03l2.4 1.944a.854.854 0 0 0 1.146-.078l4-4.375a.686.686 0 0 0-.103-1.027.855.855 0 0 0-1.127.094l-3.471 3.796Z" fill="#6FADAA"/></svg>